<?xml version="1.0" encoding="utf-8"?>
<!-- Generator: Adobe Illustrator 24.1.2, SVG Export Plug-In . SVG Version: 6.00 Build 0)  -->
<svg version="1.1" id="Layer_1" xmlns="http://www.w3.org/2000/svg" xmlns:xlink="http://www.w3.org/1999/xlink" x="0px" y="0px"
	 viewBox="0 0 1114 1128" style="enable-background:new 0 0 1114 1128;" xml:space="preserve">
<style type="text/css">
	.st0{fill:#3B2412;}
	.st1{fill:#FBAB38;}
	.st2{fill:#FEFEFE;}
	.st3{fill:#24FBFF;}
	.st4{fill:#52618A;}
	.st5{fill:#012353;}
	.st6{clip-path:url(#SVGID_1_);}
	.st7{fill:#DDA96B;}
	.st8{fill:#B97B2B;}
	.st9{fill:#EFDFAC;}
	.st10{fill:#E8C079;}
	.st11{fill:#EFEBD2;}
	.st12{fill:#F9EFD7;}
	.st13{fill:#6F634E;}
	.st14{fill:#0F0B07;}
	.st15{fill:#FDFDFF;}
	.st16{fill:#504C3C;}
	.st17{fill:#261B10;}
	.st18{fill:#FFFFFF;}
	.st19{clip-path:url(#SVGID_2_);}
	.st20{clip-path:url(#SVGID_3_);}
	.st21{fill:#5A4E42;}
	.st22{fill:#3A291A;}
	.st23{fill:#724F35;}
	.st24{fill:#E4BE88;}
	.st25{fill:#DDCCA6;}
	.st26{fill:#845020;}
	.st27{fill:#6C6A74;}
	.st28{opacity:0.5;}
	.st29{fill:#35374D;}
	.st30{fill:#FFCD50;}
	.st31{fill:#FC9130;}
	.st32{opacity:0.6;}
	.st33{fill:#D37F1A;}
	.st34{fill:#FB132B;}
	.st35{fill:#0F1200;}
	.st36{fill:#C47D14;}
	.st37{fill:#FAB847;}
</style>
<g>
	<path class="st0" d="M1065.4,221.3C932.5,106.9,559,32.6,558.9,32.6v0h0h0v0c-0.1,0-373.7,74.3-506.6,188.7
		c0,0-29.7,590,506.6,889.1v0c0,0,0,0,0,0c0,0,0,0,0,0v0C1095.1,811.3,1065.4,221.3,1065.4,221.3z"/>
</g>
<g>
	<path class="st1" d="M1041.2,226.8c-8.1-7-17.2-13.8-27-20.5c-14.2-9.6-29.9-18.9-46.9-27.7C916,151.7,854,128.1,793.7,108.6
		C772,101.5,750.4,95,729.8,89c-97-28-175.8-43.7-175.9-43.7c-0.1,0-359.5,71.5-487.4,181.5c0,0-3.5,70.3,14.4,174
		c2.5,14.7,5.5,30,9,46c9.1,41.7,21.6,87.3,38.9,134.9c5.1,14,10.5,28.1,16.4,42.4c6.1,14.7,12.7,29.6,19.8,44.5
		c3.2,6.8,6.5,13.6,9.9,20.4c70.7,140.8,187.3,286.4,379.1,393.4c58.1-32.4,109.2-68.3,154.3-106.6
		c286.7-243.4,327.6-581.3,332.7-702.9c0.4-10,0.6-18.5,0.6-25.4C1041.6,234.1,1041.2,226.8,1041.2,226.8z M981.8,276
		c0,6.7-0.2,15.2-0.6,25.4c-4,91.1-30.7,314.2-188.5,509.4c-59.2,73.3-136.9,142.5-238.9,199.4c-167.7-93.5-269.8-220.8-332-343.9
		c-3.4-6.8-6.7-13.6-9.9-20.4c-7.1-15-13.6-29.9-19.5-44.6c-5.8-14.4-11.1-28.6-16-42.6c-17-49-28.3-95.4-35.8-136.3
		c-3-16.5-5.5-32.1-7.4-46.7c-9.3-70.6-7-116.2-7-116.2c84.2-72.4,282.6-125.8,376.6-148c31.3-7.4,51.1-11.3,51.1-11.3
		c0,0,42.8,8.5,102.5,24.1c20.4,5.3,42.9,11.5,66.2,18.4c59.6,17.7,125.3,40.4,179.8,67.1c17.5,8.6,33.8,17.6,48.5,27
		c11.4,7.3,21.7,14.9,30.7,22.6C981.6,259.5,981.9,265.3,981.8,276z"/>
</g>
<g>
	<path class="st2" d="M192.4,601.3L145.1,624c-5.9-14.3-11.4-28.4-16.4-42.4l47.7-22.9C181.3,572.7,186.6,586.9,192.4,601.3z"/>
</g>
<g>
	<path class="st2" d="M1014.3,206.4l-63.4,30.5c-14.6-9.4-31-18.4-48.5-27l65-31.2C984.3,187.5,1000.1,196.8,1014.3,206.4z"/>
</g>
<g>
	<path class="st2" d="M1041.5,247.3c-0.1,6.9-0.2,15.4-0.6,25.4l-59.7,28.7c0.4-10.2,0.6-18.8,0.6-25.4L1041.5,247.3z"/>
</g>
<g>
	<path class="st2" d="M140.6,422.4l-50.8,24.4c-3.5-15.9-6.4-31.3-9-46l52.3-25.1C135.1,390.2,137.5,405.8,140.6,422.4z"/>
</g>
<g>
	<path class="st2" d="M793.7,108.6l-71.1,34.2c-23.4-6.9-45.8-13.1-66.2-18.4L729.8,89C750.4,95,772,101.5,793.7,108.6z"/>
</g>
<g>
	<g>
		<path class="st3" d="M422.3,78.3c0.1-0.3,0.3-0.7,0.4-1C422.5,77.6,422.4,77.9,422.3,78.3z"/>
	</g>
</g>
<g>
	<g>
		<path class="st3" d="M685.3,78.3c-0.1-0.3-0.3-0.7-0.4-1C685.2,77.6,685.3,77.9,685.3,78.3z"/>
	</g>
</g>
<g>
	<g>
		<path class="st4" d="M533.2,53.3c0,0.3,0.1,0.5,0.1,0.8C533.3,53.8,533.2,53.5,533.2,53.3z"/>
	</g>
</g>
<g>
	<g>
		<path class="st4" d="M574.5,53.3c0,0.3-0.1,0.5-0.1,0.8C574.4,53.8,574.5,53.5,574.5,53.3z"/>
	</g>
</g>
<g>
	<g>
		<path class="st5" d="M423.5,99.3c0-0.1,0.1-0.1,0.1-0.2C423.6,99.1,423.6,99.2,423.5,99.3z"/>
	</g>
	<g>
		<path class="st5" d="M423,100.2c0.2-0.3,0.3-0.6,0.5-0.9C423.4,99.5,423.3,99.8,423,100.2z"/>
	</g>
</g>
<g>
	<g>
		<path class="st5" d="M684.2,99.3c-0.1-0.1-0.1-0.2-0.1-0.2C684.1,99.2,684.1,99.3,684.2,99.3z"/>
	</g>
	<g>
		<path class="st5" d="M684.7,100.2c-0.2-0.4-0.4-0.7-0.5-0.9C684.4,99.6,684.5,99.9,684.7,100.2z"/>
	</g>
</g>
<g>
	<g>
		<defs>
			<path id="SVGID_7_" d="M822.1,762.1H282.4c-17.4-50.5,11.3-148.3,11.3-148.3c-68.9-142.1,14.8-232.8,14.8-232.8
				c12.2-92.4,66.3-89.8,66.3-89.8l25.3-21.8c25.3-21.8,9.6-42.7,7-88.9c-2.6-46.2,32.3-17.4,32.3-17.4s27.9,65.4,53.2,75
				c25.3,9.6,127.2,11.6,127.2,11.6c19.6-17.5,38.1-36,55.6-55.6c32.1-36.5,53.8-21,53.8-21c47.5,71.8,10.1,143.5,10.1,143.5
				S840.3,428.7,822.1,762.1z"/>
		</defs>
		<use xlink:href="#SVGID_7_"  style="overflow:visible;fill:#E4BE88;"/>
		<clipPath id="SVGID_1_">
			<use xlink:href="#SVGID_7_"  style="overflow:visible;"/>
		</clipPath>
		<g class="st6">
			<path class="st7" d="M409.5,258.7c0,0,40.8-21.9,61.6-25.4c20.8-3.5,23-9.1,23-9.1L437,144.2l-39.4,4.8L409.5,258.7z"/>
			<path class="st8" d="M404.3,153.2c0,0,24.8,3.1,25.8,19.9c1,16.8-6.1,37.9-1.7,43.8c7.2,9.6,16.9,25.3,16.9,25.3
				s8.1-6.2,28.1-9.2c20.1-3,32.1-6.1,32.1-6.1l-56.1-78.1L404.3,153.2z"/>
			<path class="st8" d="M619.8,249.7c0,0-15.4,11.7,4.5,24.2c17.6,11,14.8,10.6,23.7,16.2c8.9,5.5,47.1,26.9,50.4,34.5
				s8.3,11.5,19.3,18.3c0,0,10.2,8.7,11.8,3.7c4.2-12.7,5.5-13.9,9.7-30c0,0,18.7-37.6,21-73.1c2.2-35.5-27.8-89.7-49.1-80.5
				C689.9,172.2,619.8,249.7,619.8,249.7z"/>
		</g>
	</g>
	<path class="st9" d="M776.9,641.9c-20.9-19-82.5,52.2-72.1,38.9c10.4-13.3-1.1-45.9-15.3-35.7c-14.2,10.3-58.1-36.6-2.7-73.5
		c55.4-36.9,26.2-89.3,35-115.9c8.7-26.6-21.5-34.8-77.7-40.7c-56.2-5.9-29.2,2.1-60.7,26.1c-31.5,24-56.2,19.2-56.2,19.2
		c-6-13-38-3.9-48-9.2s-55.5-3.9-69.7,0c-14.1,3.9-27.3-7.6-47.1-13.2c-32.3-9.2-20.4-49.2-14-65.3c6.4-16-6.3-16.4-22.4-11.5
		c-4.6,1.4-10.5,6.5-16.4,13c-0.4,2.3-0.7,4.6-1,7c0,0-83.7,90.7-14.8,232.8c0,0-28.8,97.7-11.3,148.3h526
		C826.3,718.8,796.3,659.5,776.9,641.9z"/>
	<path class="st10" d="M463.5,364.1c0,0,17.3-27.6,47.6-37c10.8-3.4,70.7,35.9,78.1,51.7c7.4,15.8-23.2,42.8-23.2,42.8l-68.6-16.3
		c0,0-8.6,76.7-47.6,88.6s-45.9-6.8-45.9-6.8s-109-18.3-62.5-42.4s67.4-68.1,67.4-68.1s-9-13.9-22.8-12.8
		c-13.8,1.1,11.6-49.3,11.6-49.3s17.2-10.4,29.8-11.4c22.2-1.8,20.8,58,20.8,58L463.5,364.1z"/>
	<path class="st11" d="M524.3,336.5c0,0-85.5,48.7-19.7,62.1l42.2-23l48.3,22.9C595.2,398.5,580.1,324.9,524.3,336.5z"/>
	<path class="st12" d="M369.5,379.2c0,0-13.4-50.1,39-72.4c52.4-22.3,0.3,63.4-1.8,75.1c-2,11.7-60.1,27.6-24.8-31.7"/>
	<path class="st13" d="M362.4,375.6c0,0-4,22.1,28.8,24.1l14.8-16L362.4,375.6z"/>
	<path class="st14" d="M362.4,371.8c0,0,3-29.6,31.9-25.5c28.9,4.2,8.1,39.5,5,42.1S364.5,403.5,362.4,371.8z"/>
	
		<ellipse transform="matrix(0.9993 -3.700626e-02 3.700626e-02 0.9993 -13.526 14.6349)" class="st15" cx="388.6" cy="372.7" rx="19" ry="20.1"/>
	<path class="st16" d="M404.9,384.9c-6.6,7.8-18.8,7.5-25.5-0.4c-6.7-7.9-6.8-20.6-0.2-28.4c6.6-7.8,19.2-8.5,25.8-0.6
		S411.4,377.1,404.9,384.9z"/>
	<circle class="st17" cx="395.5" cy="367.5" r="14"/>
	<ellipse transform="matrix(0.3543 -0.9351 0.9351 0.3543 -88.4868 594.106)" class="st18" cx="386" cy="361.1" rx="2.6" ry="9"/>
	<path class="st13" d="M595.2,399.7c0,0-7.7,43.4-64.5,36.4c0,0-28.1,0.1-35.4-23.6l92.2-19.3L595.2,399.7z"/>
	<g>
		<defs>
			<path id="SVGID_9_" d="M494.1,409.4c0,0,17.8-19.7,33.3-34.3c16.2-15.2,46.5-3.3,67.9,23.4c0,0-6.8,32.4-60.3,32.4
				C499,430.9,494.1,409.4,494.1,409.4z"/>
		</defs>
		<clipPath id="SVGID_2_">
			<use xlink:href="#SVGID_9_"  style="overflow:visible;"/>
		</clipPath>
		<g class="st19">
			<path class="st14" d="M494.1,409.4c0,0,17.8-19.7,33.3-34.3c16.2-15.2,46.5-3.3,67.9,23.4c0,0-6.8,32.4-60.3,32.4
				C499,430.9,494.1,409.4,494.1,409.4z"/>
			<circle class="st15" cx="549.5" cy="406.9" r="31.2"/>
			<g>
				<defs>
					
						<ellipse id="SVGID_11_" transform="matrix(0.1608 -0.987 0.987 0.1608 59.5315 883.8088)" cx="549.5" cy="406.9" rx="31.2" ry="31.2"/>
				</defs>
				<clipPath id="SVGID_3_">
					<use xlink:href="#SVGID_11_"  style="overflow:visible;"/>
				</clipPath>
				<g class="st20">
					
						<ellipse transform="matrix(0.1602 -0.9871 0.9871 0.1602 66.5157 893.7235)" class="st16" cx="558.5" cy="407.8" rx="25" ry="25"/>
					
						<ellipse transform="matrix(0.9239 -0.3827 0.3827 0.9239 -112.3516 247.7863)" class="st17" cx="566.7" cy="406.3" rx="16.6" ry="16.6"/>
					
						<ellipse transform="matrix(0.3543 -0.9351 0.9351 0.3543 -11.9212 766.3702)" class="st18" cx="549" cy="391.8" rx="3.8" ry="10.6"/>
				</g>
			</g>
		</g>
	</g>
	<path class="st21" d="M397.6,526.5c-0.3-10.6-3.2-17.9-7.9-22.8c-4.9-5.1-63.5-23.5-63.5-23.5s-16.9,24.8,0,57.1l17.4,33
		c0,0,8.4,17.2,74.7,15.5s84-32.3,84-32.3s-2.5-10.5-25.2-2.1c-22.7,8.4-38.8,10.6-49.5,9.9c-20.3-1.4-30-15.3-30-15.3L397.6,526.5z
		"/>
	<path class="st22" d="M326,457.7c0,0,8.9-24.8,47.6-18.8c38.7,6,41.7,23.8,41.7,23.8s11.9,51.6-55.5,51.6c0,0-33.7-6.9-33.7-38.3
		V457.7z"/>
	<path class="st17" d="M334.3,465.2c0,0,2.4-7.4,8.4-3.9c6,3.4,7.9,17.7,3,18.7C340.1,481,339.2,477.5,334.3,465.2z"/>
	<path class="st17" d="M394.4,484.6c-2.9,2-6.3,2.8-9.8,2.5c-5.9-0.9-20.4-6.2-12.1-19.6c0,0,2.4-4.6,6.9-3.6
		c4.5,1,8.5,7.4,9.1,19.4C390.3,484.2,392.3,484.6,394.4,484.6z"/>
	<path class="st23" d="M341.4,452.6c6.8-0.1,13.7,0.2,20.5,0.9c11.7,1,24.4,2.6,34.9,8.1c1.7,0.9,3.2-1.7,1.5-2.6
		c-10.7-5.5-23.2-7.3-35.1-8.4c-7.3-0.7-14.5-1.1-21.8-1c-0.8,0-1.5,0.7-1.5,1.5C339.9,451.9,340.5,452.6,341.4,452.6L341.4,452.6z"
		/>
	<path class="st17" d="M356.9,513.4c0,0-2-41.8,0.1-39.7c2.1,2.1,2.7,40.5,2.7,40.5L356.9,513.4z"/>
	<path class="st17" d="M334.3,535c0,0,18.9,1.7,23.5-3.4c0,0,28.6,17.2,39.7,14.3c0,0,19.9,16.8,41.3,13.4
		c14.7-2.5,29.4-5.7,43.8-9.8c0,0-27.4,14.4-58.9,13.1C392.3,561.4,333.5,553.4,334.3,535z"/>
	<path class="st24" d="M430.4,509.2c-0.9,0.7-1,2-0.3,2.9c0,0.1,0.1,0.1,0.1,0.1c0.9,0.9,2.3,0.9,3.2,0.1c0.9-0.7,1-2,0.3-2.8
		c0-0.1-0.1-0.1-0.1-0.2C432.8,508.5,431.3,508.4,430.4,509.2z"/>
	<path class="st24" d="M416.8,519.6c-0.9,0.7-1,2-0.3,2.8c0.1,0.1,0.1,0.1,0.2,0.2c0.9,0.9,2.3,0.9,3.2,0.1c0.9-0.7,1-2,0.3-2.9
		c0-0.1-0.1-0.1-0.1-0.1C419.2,518.9,417.8,518.8,416.8,519.6z"/>
	<path class="st24" d="M425.8,529.9c-0.9,0.7-1,2-0.3,2.9c0,0,0.1,0.1,0.1,0.1c0.9,0.9,2.3,0.9,3.2,0.1c0.9-0.7,1-2,0.3-2.9
		c0-0.1-0.1-0.1-0.1-0.1C428.2,529.1,426.8,529.1,425.8,529.9z"/>
	<path class="st24" d="M428.1,542.5c-0.9,0.7-1,2-0.3,2.9c0,0,0.1,0.1,0.1,0.1c0.9,0.9,2.3,0.9,3.2,0.1c0.9-0.7,1-2,0.3-2.9
		c0,0-0.1-0.1-0.1-0.1C430.5,541.8,429.1,541.8,428.1,542.5z"/>
	<path class="st24" d="M443,523.9c-0.9,0.7-1,2-0.3,2.9c0,0.1,0.1,0.1,0.1,0.1c0.9,0.9,2.3,0.9,3.2,0.1c0.9-0.7,1-2,0.3-2.8
		c0-0.1-0.1-0.1-0.1-0.2C445.3,523.1,443.9,523.1,443,523.9z"/>
	<path class="st24" d="M418.1,507.8c-0.3-1.1-1.4-1.7-2.4-1.5c-0.1,0-0.2,0-0.2,0.1c-1.2,0.4-1.8,1.7-1.5,2.9
		c0.3,1.1,1.4,1.7,2.4,1.5c0.1,0,0.2,0,0.2-0.1C417.8,510.2,418.4,509,418.1,507.8z"/>
	<path class="st24" d="M410.5,536.7c-0.3-1.1-1.4-1.7-2.5-1.5c-0.1,0-0.1,0-0.2,0.1c-1.2,0.4-1.8,1.7-1.5,2.9
		c0.3,1.1,1.4,1.7,2.5,1.4c0.1,0,0.1,0,0.2-0.1C410.2,539.2,410.9,537.9,410.5,536.7z"/>
	<path class="st24" d="M463.4,522.6c-0.3-1.1-1.4-1.7-2.5-1.4c-0.1,0-0.1,0-0.2,0.1c-1.2,0.4-1.8,1.7-1.5,2.9
		c0.3,1.1,1.4,1.7,2.5,1.4c0.1,0,0.1,0,0.2-0.1C463.1,525,463.7,523.8,463.4,522.6z"/>
	<path class="st24" d="M454,511.8c-0.3-1.1-1.4-1.7-2.5-1.4c-0.1,0-0.1,0-0.2,0.1c-1.2,0.4-1.8,1.7-1.5,2.9c0.3,1.1,1.4,1.7,2.5,1.4
		c0.1,0,0.1,0,0.2-0.1C453.7,514.2,454.3,513,454,511.8z"/>
	<path class="st24" d="M444.3,539c-0.3-1.1-1.4-1.7-2.5-1.5c-0.1,0-0.1,0-0.2,0.1c-1.2,0.4-1.8,1.7-1.5,2.9c0.3,1.1,1.4,1.7,2.5,1.4
		c0.1,0,0.1,0,0.2-0.1C444,541.4,444.6,540.2,444.3,539z"/>
	<path class="st24" d="M306.4,501.9c-0.9,0.7-1,2-0.3,2.8c0.1,0.1,0.1,0.1,0.2,0.2c0.9,0.9,2.3,0.9,3.2,0.1c0.9-0.7,1-2,0.3-2.9
		c0-0.1-0.1-0.1-0.1-0.1C308.7,501.2,307.3,501.1,306.4,501.9z"/>
	<path class="st24" d="M287.1,514.5c-0.9,0.7-1,2-0.3,2.9c0,0.1,0.1,0.1,0.1,0.1c0.9,0.9,2.3,0.9,3.2,0.1c0.9-0.7,1-2,0.3-2.8
		c-0.1-0.1-0.1-0.1-0.2-0.2C289.4,513.7,288,513.7,287.1,514.5z"/>
	<path class="st24" d="M301,524.6c-0.9,0.7-1,2-0.3,2.9c0,0.1,0.1,0.1,0.1,0.1c0.9,0.9,2.3,0.9,3.2,0.1c0.9-0.7,1-2,0.3-2.9
		c0-0.1-0.1-0.1-0.1-0.1C303.3,523.9,301.9,523.9,301,524.6z"/>
	<path class="st24" d="M298.4,537.4c-0.9,0.7-1,2-0.3,2.9c0,0.1,0.1,0.1,0.1,0.1c0.9,0.9,2.3,0.9,3.2,0.1c0.9-0.7,1-2,0.3-2.9
		c0-0.1-0.1-0.1-0.1-0.1C300.7,536.6,299.3,536.6,298.4,537.4z"/>
	<path class="st24" d="M308.7,517.5c-0.9,0.7-1,2-0.3,2.9c0,0.1,0.1,0.1,0.1,0.1c0.9,0.9,2.3,0.9,3.2,0.1c0.9-0.7,1-2,0.3-2.9
		c0-0.1-0.1-0.1-0.1-0.1C311,516.8,309.6,516.7,308.7,517.5z"/>
	<path class="st24" d="M288.4,502.6c-0.3-1.1-1.4-1.7-2.4-1.5c-0.1,0-0.2,0-0.2,0.1c-1.2,0.4-1.8,1.7-1.5,2.9
		c0.3,1.1,1.4,1.7,2.5,1.5c0.1,0,0.1,0,0.2-0.1C288.1,505.1,288.7,503.8,288.4,502.6z"/>
	<path class="st24" d="M318.6,542.6c-0.3-1.1-1.4-1.7-2.5-1.4c-0.1,0-0.1,0-0.2,0.1c-1.2,0.4-1.8,1.7-1.5,2.9
		c0.3,1.1,1.4,1.8,2.4,1.5c0.1,0,0.1,0,0.2-0.1C318.3,545,318.9,543.8,318.6,542.6z"/>
	<path class="st25" d="M578.6,524.6c-35.1-7.3-72.2-9-108-8.5c-1.4,0-1.9,1.7-0.2,1.7c35.6-0.5,72.6,1.3,107.4,8.5
		C579,526.5,580.3,524.9,578.6,524.6L578.6,524.6z"/>
	<path class="st25" d="M533.1,531.5c-19.9-4.7-41-5.8-61.4-5.5c-0.8,0-1.1,1.1-0.1,1.1c20.2-0.3,41.2,0.8,61,5.5
		C533.3,532.7,534,531.7,533.1,531.5z"/>
	<path class="st25" d="M550.6,554.2c-30.7-10.8-64.2-16.9-96.7-20.7c-1.3-0.2-2,1.3-0.4,1.5c32.4,3.8,65.6,9.9,96.1,20.7
		C550.7,556,552.1,554.7,550.6,554.2z"/>
	<path class="st25" d="M569.6,482.5c-35.6,4.7-71.9,13.8-106.2,24.2c-1.4,0.4-1.4,1.7,0.2,1.2c34.2-10.3,70.2-19.4,105.6-24
		C570.3,483.8,571.2,482.3,569.6,482.5L569.6,482.5z"/>
	<path class="st25" d="M524,567c-21.2-11.7-45.1-18.9-68.8-24c-0.9-0.2-1.7,1.2-0.6,1.4c23.5,5,47.3,12.2,68.4,23.9
		C523.8,568.7,525,567.5,524,567L524,567z"/>
	<path class="st25" d="M224.9,505.4c24.3-7.3,50.1-9,75-8.5c1,0,1.3,1.7,0.1,1.7c-24.7-0.5-50.4,1.3-74.6,8.5
		C224.6,507.3,223.7,505.7,224.9,505.4L224.9,505.4z"/>
	<path class="st25" d="M256.5,512.3c13.8-4.7,28.5-5.8,42.6-5.5c0.6,0,0.8,1.1,0.1,1.1c-14-0.3-28.6,0.8-42.4,5.5
		C256.3,513.6,255.8,512.5,256.5,512.3z"/>
	<path class="st25" d="M228.7,549.4c21.3-10.8,44.5-16.9,67.2-20.7c0.9-0.2,1.4,1.3,0.3,1.5c-22.5,3.9-45.6,9.9-66.7,20.7
		C228.7,551.1,227.8,549.9,228.7,549.4L228.7,549.4z"/>
	<path class="st25" d="M231.1,463.4c24.7,4.7,49.9,13.8,73.8,24.2c0.9,0.4,1,1.7-0.2,1.2c-23.7-10.3-48.8-19.4-73.3-24
		C230.6,464.6,230,463.2,231.1,463.4L231.1,463.4z"/>
	<path class="st25" d="M254,574c14.7-11.7,31.3-18.9,47.7-24c0.6-0.2,1.2,1.2,0.4,1.4c-16.3,5.1-32.8,12.3-47.4,23.9
		C254.2,575.8,253.3,574.6,254,574z"/>
	<path class="st7" d="M315,605.7c0,0,47.7,87.7,148,77.4s166.6-46.2,166.6-46.2s12,93.3-175.5,83C286.5,710.7,315,605.7,315,605.7z"
		/>
	<path class="st7" d="M635.9,281.7l39.1-64.7c0,0,26.4-31.7,36.2-36.2c9.8-4.5,12.7,6.7,18.7,16.5c6,9.8,21.6,51.3,4.8,93.9
		c-6.5,16.2-15.3,31.5-26.2,45.2L635.9,281.7z"/>
	<path class="st26" d="M660,299.9c0,0,27.5-60,43-67c15.5-7,16.3,23.2,13.5,33.8c-2.8,10.6-21.6,59.2-21.6,59.2L660,299.9z"/>
	<path class="st8" d="M506,276.8c-14.1,11.1-28,24-38.2,38.8c-3.2,4.6-6.1,9.8-7.2,15.3c-0.7,3.7,5,5.3,5.7,1.6
		c1.9-9.9,9.7-18.6,16.3-25.8c7.1-7.7,14.6-14.9,22.6-21.6c1.7-1.4,3.3-2.8,5-4.2C513.3,278.5,509.1,274.3,506,276.8L506,276.8z"/>
	<path class="st7" d="M759.1,395.5c4.8,17.6,6.8,36.3,7.5,54.4c1.3,36.3-4.5,74.1-23.7,105.5c-13,21.2-31.8,37.8-53.8,49.2
		c-3.4,1.8-0.4,6.9,3,5.1c20.4-10.4,38-25.6,51.3-44.3c11.5-16.3,19.2-35.1,23.7-54.6c7.4-31.7,7-65,1.8-97
		c-1-6.7-2.4-13.4-4.1-19.9C763.8,390.2,758.1,391.7,759.1,395.5L759.1,395.5z"/>
</g>
<g>
	<g>
		<g>
			<g>
				<g>
					<g>
						<g>
							<path class="st27" d="M504.8,222.4c1.5-9.3,5.8-17.8,12.2-25.8c1.4-1.7,0.7-4.4-1.4-5.2c-18.5-7-36.6,0.5-54.4,14.3
								c8.6-12.7,8.8-24.6-1.1-36.2c-1.3-1.5-3.6-1.5-4.7,0.2c-12.8,19.5-56.2,47.2-84.8,81.3L504.8,222.4z"/>
						</g>
					</g>
				</g>
				<g class="st28">
					<g>
						<g>
							<g>
								<path class="st18" d="M466,211.2c16.2-11.9,32.7-18.1,49.4-12.6c0.5-0.7,1-1.4,1.5-2c1.4-1.7,0.7-4.4-1.4-5.2
									c-15.9-6-31.4-1.4-46.8,8.8c-8.2,2.3-13.1,6.1-12.7,8.9c0.1,0.9,0.8,1.6,1.6,2.2C460.1,213.2,463.5,213,466,211.2z"/>
							</g>
						</g>
					</g>
					<g>
						<g>
							<g>
								<path class="st18" d="M457.1,177.6c1.1-1.7,3.4-1.7,4.7-0.2c2.6,3.1,4.5,6.2,5.7,9.3c-0.2-5.8-2.6-11.5-7.4-17.2
									c-1.3-1.5-3.6-1.5-4.7,0.2c-12.8,19.5-56.2,47.2-84.8,81.3l10.8-2.3C409.4,219.3,445.6,195.1,457.1,177.6z"/>
							</g>
						</g>
					</g>
				</g>
				<g>
					<g>
						<g>
							<path class="st29" d="M358,249.9c19-21.2,41.6-38.5,63.4-56.4c9.2-7.7,18.6-15.1,26-24.5c0,0,0.7-0.9,0.7-0.9
								c2.6-4.1,8.7-4.8,12-1.4c8.3,8.5,11.8,21.1,7.1,32.3c-1.5,3.7-3.5,7.1-5.7,10.2l-6.5-6.4c13.6-10,30.2-18.8,47.7-17.7
								c4.4,0.3,8.9,1.1,13,2.7c4.1,1,6.6,5.2,5,9.2c-0.3,0.9-0.8,1.6-1.4,2.3c-1,1.1-1.9,2.3-2.8,3.4c-4.8,6.2-8.4,12.9-11.2,20.4
								c-0.3,0.9-1.3,1.3-2.1,1c-0.7-0.3-1.1-0.9-1-1.5c0.1-10.3,5.6-19.7,11.8-27.6l0.2-0.3c-0.2,0.1-0.1,0.4,0,0.5
								c-19-6.2-38.5,3.9-53.7,15.3c-4.2,3-9.4-2.2-6.5-6.4c6.2-8.3,8.5-18,2.6-26.6c-0.8-1.2-2-2.8-3-3.9c0,0,0-0.1,0-0.1l0,0
								c0.5,0.5,1.3,0.6,1.9,0.1c0.1-0.1,0.2-0.2,0.3-0.3l-0.1,0.1c-7.9,10.6-18.6,19.1-28.6,27.5c-21.6,17.7-43.8,34.7-62.4,55.4
								C360.8,260.4,354,254.6,358,249.9L358,249.9z"/>
						</g>
					</g>
				</g>
			</g>
			<g>
				<g>
					<g>
						<g>
							<path class="st30" d="M589.8,59.1c3.1,15,5.8,29.8,7.9,44.4c1.7,12.1,3.1,24,4,35.8c1.6,20.5,2,40.5,1,60L283,330.3
								c-26.6-38.1-60.2-72.6-97.7-105.3l13.1-10.5c71.8,55.5,144.5-7.6,99.7-73.5l9.7-5.1c6.1,8,12.9,14.5,20.1,19.6
								c56.3,39.9,139.3-3.2,117.6-73.5l14.4-4.6c41.7,78,99.7,52.2,116.4,7.1c2.8-7.5,4.4-15.5,4.6-23.6L589.8,59.1z"/>
						</g>
					</g>
				</g>
				<g>
					<g>
						<g>
							<path class="st31" d="M589.8,59.1c3.1,15,5.8,29.8,7.9,44.4c-1.4-3.1-3.2-6.1-5.4-8.8c-4-4.9-9.8-8.5-16-10.2
								c2.8-7.5,4.4-15.5,4.6-23.6L589.8,59.1z"/>
						</g>
					</g>
				</g>
				<g>
					<g>
						<g>
							<path class="st31" d="M601.6,139.4C601.6,139.4,601.7,139.4,601.6,139.4c1.7,20.4,2,40.4,1,60L283,330.3
								c-26.6-38.1-60.2-72.6-97.7-105.3l13.1-10.5c71.8,55.5,144.5-7.6,99.7-73.5l9.7-5.1c6.1,8,12.9,14.5,20.1,19.6l-7.7,2.8
								c0.2,7.3,0.3,14.6,0.5,22c0.2,11,0.3,22.7-5.5,32.1c-5,8.2-13.6,13.4-19.8,20.8c-7,8.4-10.5,20.1-7.7,30.7
								c2.8,10.6,12.4,19.5,23.4,20c8.1,0.4,15.8-3.5,23-7.1c55.4-27.7,114.8-47.4,175.8-58.5c23.3-4.3,48.3-7.9,66.2-23.5
								C591.8,181.1,599.3,160.1,601.6,139.4z"/>
						</g>
					</g>
				</g>
				<g class="st32">
					<g>
						<g>
							<g>
								<path class="st18" d="M313,146.9c6.1,8,12.9,14.5,20.1,19.6c56.3,39.9,139.3-3.2,117.6-73.5l14.4-4.6
									c41.7,78,99.7,52.2,116.4,7.1c2.8-7.5,4.4-15.5,4.6-23.6l5.9-1.3c-0.7-3.8-1.5-7.7-2.3-11.6l-8.8,1.9
									c-0.2,8.2-1.9,16.1-4.6,23.6c-16.7,45.1-74.8,70.9-116.4-7.1L445.5,82c21.8,70.3-61.3,113.4-117.6,73.5
									c-7.3-5.1-14.1-11.6-20.1-19.6l-9.7,5.1c2.4,3.5,4.4,7,6.1,10.5L313,146.9z"/>
							</g>
						</g>
					</g>
					<g>
						<g>
							<g>
								<path class="st18" d="M203.6,225.5c69.5,53.8,140-3.8,103.5-67.4c23,58.9-43.3,107.1-108.8,56.4L185.2,225c3,2.6,6,5.3,9,8
									L203.6,225.5z"/>
							</g>
						</g>
					</g>
				</g>
				<g>
					<g>
						<g>
							<path class="st33" d="M284,335.1c-1.9,0.4-3.9-0.3-5-2c-24.1-34.5-55.8-68.6-96.9-104.4c-1.1-0.9-1.7-2.3-1.7-3.8
								c0-1.4,0.7-2.8,1.8-3.7l13.2-10.5c1.7-1.4,4.2-1.4,6,0c36.8,28.5,72.1,23.6,90.7,6.1c19.1-18,19.9-46.7,2-73
								c-0.8-1.1-1-2.6-0.7-3.9c0.3-1.3,1.2-2.5,2.4-3.1l9.7-5.1c2.1-1.1,4.7-0.5,6.1,1.3c28.3,37.3,71,38.9,98.7,24.7
								c22.3-11.5,42-37,30.5-74.2c-0.8-2.5,0.6-5.2,3.2-6.1l14.4-4.6c2.2-0.7,4.7,0.3,5.8,2.3c18.8,35.2,42.5,51.7,66.9,46.5
								c0.3-0.1,0.6-0.1,0.9-0.2c23.9-5.6,43.2-32.3,44.1-60.7c0.1-2.2,1.7-4.1,3.8-4.6l8.8-1.9c1.3-0.3,2.6,0,3.7,0.7
								c1.1,0.7,1.8,1.8,2.1,3.1c10.9,52.5,15.2,98.8,13,141.5c-0.1,1.9-1.3,3.5-3,4.2l-319.7,131C284.5,334.9,284.3,335,284,335.1z
								 M192.8,225.2c38.4,33.9,68.6,66.4,91.9,99.2L598,196c1.7-39.7-2.2-82.7-12-131.2l-0.4,0.1c-2.5,31.6-24,59.6-51.3,66
								c-28.1,6.6-55.9-10.7-76.7-47.6l-6.1,2c8.4,33.7-5.6,65.1-36.6,81.1c-30.3,15.6-76.6,14.4-108.3-24.2l-1.4,0.8
								c17.6,29.3,15.4,60.6-6.3,81c-21.1,19.8-59.9,26.2-100.2-3.2L192.8,225.2z"/>
						</g>
					</g>
				</g>
				<g>
					<g>
						<g>
							
								<ellipse transform="matrix(0.8107 -0.5854 0.5854 0.8107 -56.3959 249.9096)" class="st34" cx="358.3" cy="212.2" rx="14.5" ry="20.5"/>
						</g>
					</g>
				</g>
				<g>
					<g>
						<g>
							
								<ellipse transform="matrix(0.7431 -0.6691 0.6691 0.7431 -125.5336 239.2065)" class="st34" cx="248.8" cy="283.1" rx="14.5" ry="20.5"/>
						</g>
					</g>
				</g>
				<g>
					<g>
						<g>
							
								<ellipse transform="matrix(0.9694 -0.2453 0.2453 0.9694 -25.595 123.2407)" class="st34" cx="481.9" cy="164.4" rx="14.5" ry="20.5"/>
						</g>
					</g>
				</g>
				<g>
					<g>
						<g>
							
								<ellipse transform="matrix(0.994 -0.1095 0.1095 0.994 -12.5781 66.2353)" class="st34" cx="596.8" cy="147.6" rx="14.5" ry="20.5"/>
						</g>
					</g>
				</g>
				<g>
					<g>
						<g>
							<path class="st35" d="M367,234.3c-7.8,1.6-17.1-2.6-23.5-11.4c-3.7-5.1-5.7-10.9-5.8-16.4c-0.1-6,2.2-11,6.4-14
								c4.2-3,9.6-3.6,15.3-1.6c5.2,1.8,10.1,5.6,13.8,10.6l0,0c3.7,5.1,5.7,10.9,5.8,16.4c0.1,6-2.2,11-6.4,14
								C370.8,233.1,368.9,233.9,367,234.3z M351.1,197.4c-1,0.2-1.9,0.6-2.6,1.2c-2.1,1.5-3.3,4.3-3.2,7.8c0,4,1.6,8.3,4.3,12.1
								c5.3,7.4,13.8,10.7,18.5,7.3c2.1-1.5,3.3-4.3,3.2-7.8c0-4-1.6-8.3-4.3-12.1l0,0c-2.8-3.8-6.3-6.6-10.1-7.9
								C354.8,197.2,352.8,197.1,351.1,197.4z"/>
						</g>
					</g>
				</g>
				<g>
					<g>
						<g>
							<path class="st35" d="M258.2,304.6c-2.5,0.5-5.3,0.5-8.2-0.2c-5.4-1.2-10.6-4.4-14.8-9.1c-4.2-4.6-6.8-10.2-7.5-15.7
								c-0.7-6,1-11.1,4.8-14.6c7.6-6.9,20.7-4.3,29.8,5.8c0,0,0,0,0,0c4.2,4.6,6.8,10.2,7.5,15.7c0.7,6-1,11.1-4.8,14.6
								C263.1,302.9,260.8,304,258.2,304.6z M241,269c-1.3,0.3-2.4,0.8-3.4,1.7c-1.9,1.8-2.8,4.6-2.4,8.1c0.5,3.9,2.5,8,5.6,11.5
								c3.2,3.5,7,5.9,10.9,6.8c3.4,0.8,6.4,0.2,8.3-1.5c1.9-1.8,2.8-4.6,2.4-8.1c-0.5-3.9-2.5-8-5.6-11.5l0,0
								C252,270.6,245.6,268,241,269z"/>
						</g>
					</g>
				</g>
				<g>
					<g>
						<g>
							<path class="st35" d="M487.3,188c-9.8,2.1-19.8-6.2-23.1-19.2c-3.3-13.2,1.8-25.5,11.8-28c5-1.3,10.2,0.2,14.8,4.1
								c4.2,3.6,7.3,8.9,8.9,15c3.3,13.2-1.8,25.5-11.8,28C487.7,187.9,487.5,188,487.3,188z M478.1,148.1c-0.1,0-0.2,0-0.2,0.1
								c-5.6,1.4-8.5,10.1-6.3,18.9c2.2,8.8,8.9,15,14.5,13.6c5.6-1.4,8.5-10.1,6.3-18.9c-1.2-4.6-3.5-8.5-6.5-11.1
								C483.3,148.4,480.5,147.5,478.1,148.1z"/>
						</g>
					</g>
				</g>
				<g>
					<g>
						<g>
							<path class="st35" d="M600.9,171.5c-0.5,0.1-0.9,0.2-1.4,0.2c-5.1,0.6-10.1-1.6-14.1-6.1c-3.7-4.1-6.1-9.8-6.7-16
								c-0.7-6.2,0.4-12.3,3.1-17.1c2.9-5.2,7.3-8.4,12.4-9c10.2-1.1,19.3,8.6,20.8,22.1c0,0,0,0,0,0
								C616.4,158.5,610.3,169.5,600.9,171.5z M594.3,131.1c-2.3,0.5-4.5,2.3-6,5.1c-1.9,3.5-2.7,8-2.2,12.6
								c0.5,4.7,2.3,8.9,4.9,11.9c2.3,2.6,5,3.9,7.6,3.6c5.8-0.6,9.8-8.8,8.9-17.8s-6.7-16.1-12.5-15.5
								C594.7,131,594.5,131,594.3,131.1z M611.2,146.1L611.2,146.1L611.2,146.1z"/>
						</g>
					</g>
				</g>
				<g>
					<g>
						<g>
							<path class="st30" d="M613.7,229.9c0.3,3.1,0.3,5.9,0.2,8.3c-0.2,3.8-3.4,6.8-7.2,6.8c-101,0.7-226.1,47.4-299,113.6
								c-1.8,1.6-4.4,1.9-6.3,0.6c-9.7-6.4-19.1-20.1-23.8-30.2c-1.5-3.3-1.2-7.1,0.5-10.1c0.5-0.9,1.1-1.7,1.9-2.4
								c79.6-76.1,189-124,316.2-123.3c4.3,0,8.2,2.6,9.8,6.5C610.3,209.4,612.9,220.8,613.7,229.9z"/>
						</g>
					</g>
				</g>
				<g>
					<g>
						<g>
							<path class="st31" d="M613.7,229.9c0.3,3.1,0.3,5.9,0.2,8.3c-0.2,3.8-3.4,6.8-7.2,6.8c-101,0.7-226.1,47.4-299,113.6
								c-1.8,1.6-4.4,1.9-6.3,0.6c-9.7-6.4-19.1-20.1-23.8-30.2c-1.5-3.3-1.2-7.1,0.5-10.1c3.7-3.6,7.7-6.9,11.6-10.1l1.9,0.3
								c5.6,6,11.2,12,16.7,18c1.6,1.7,3.2,3.4,5.4,4.3c5.1,2,10.5-1.7,14.8-5.1c60.3-47.5,135-73.7,210.3-88.7
								C563.5,232.4,588.6,228.6,613.7,229.9z"/>
						</g>
					</g>
				</g>
				<g class="st32">
					<g>
						<g>
							<path class="st18" d="M606,199.6c-1.7-3.9-5.6-6.5-9.8-6.5c-32.1-0.2-63.1,2.7-92.8,8.4l-0.1,0l0,0
								c-3.9,0.7-7.7,1.5-11.5,2.4l0,0l-0.3,0.1c-82.7,18.2-154.7,58.1-211.5,112.4c-0.8,0.7-1.4,1.5-1.9,2.4c-1.8,3-2,6.8-0.5,10.1
								c0.4,0.9,0.9,1.9,1.4,2.9c0.2-1.1,0.6-2.2,1.2-3.1c0.5-0.9,1.1-1.7,1.9-2.4c48.9-46.7,109-82.8,177.6-103.5l1,49.5l28.7-9.1
								l2-48.8c4-0.9,8-1.7,12-2.5l0.3,47.8l13.9-3l-2.6-46.9c26.8-4.6,54.7-6.9,83.4-6.8c4.3,0,8.2,2.6,9.8,6.5
								c1.9,4.5,3.5,9.2,4.7,13.9C611.6,215.6,609.3,207.2,606,199.6z"/>
						</g>
					</g>
				</g>
				<g>
					<g>
						<g>
							<path class="st33" d="M306.2,364.5c-2.6,0.5-5.3,0.1-7.6-1.4c-10.6-7-20.7-21.7-25.5-32.3c-2.8-6.1-1.4-13.3,3.5-18
								c41.2-39.4,88.9-70.2,141.8-91.5c55.6-22.4,115.4-33.5,177.8-33.2c6.2,0,11.8,3.7,14.3,9.4c5.5,12.7,8.9,29.5,8.2,40.8
								c-0.4,6.3-5.6,11.4-12,11.4c-100.3,0.7-224.7,47.9-295.8,112.3l0,0C309.6,363.3,307.9,364.2,306.2,364.5z M496.1,208
								c-80.3,17.1-153.7,55.3-212.8,111.8c-1.9,1.8-2.4,4.6-1.4,6.9c4.4,9.7,13.4,22.5,22,28.2c0.1,0.1,0.3,0,0.4-0.1l0,0
								c35.6-32.2,85.5-61.5,140.5-82.3c54.6-20.7,112.1-32.2,161.7-32.5c1.3,0,2.3-1,2.4-2.2c0.5-8.4-1.9-23.5-7.5-36.4
								c-0.9-2.2-3.1-3.5-5.4-3.6C562,197.7,528.5,201.2,496.1,208z"/>
						</g>
					</g>
				</g>
				<g>
					<g>
						<g>
							<circle class="st30" cx="185.9" cy="206.4" r="24.1"/>
						</g>
					</g>
				</g>
				<g>
					<g>
						<g>
							<circle class="st30" cx="297.4" cy="130.4" r="24.1"/>
						</g>
					</g>
				</g>
				<g>
					<g>
						<g>
							<circle class="st30" cx="447.1" cy="67.9" r="24.1"/>
						</g>
					</g>
				</g>
				<g>
					<g>
						<g>
							
								<ellipse transform="matrix(0.8241 -0.5664 0.5664 0.8241 75.1903 338.6228)" class="st30" cx="582.9" cy="48.2" rx="24.1" ry="24.1"/>
						</g>
					</g>
				</g>
				<g class="st32">
					<g>
						<g>
							<polygon class="st18" points="182.8,180.1 173.1,227.1 184.8,227.4 193,183.7 							"/>
						</g>
					</g>
				</g>
				<g class="st32">
					<g>
						<g>
							<polygon class="st18" points="191,227.7 198.3,187.4 202.2,191.2 194.9,225.4 							"/>
						</g>
					</g>
				</g>
				<g>
					<g>
						<g>
							<path class="st35" d="M191.9,234.7c-15.6,3.3-31-6.7-34.3-22.3c-3.3-15.6,6.7-31,22.3-34.3c15.6-3.3,31,6.7,34.3,22.3
								S207.5,231.4,191.9,234.7z M181.9,187.6c-10.4,2.2-17,12.4-14.8,22.8c2.2,10.4,12.4,17,22.8,14.8c10.4-2.2,17-12.4,14.8-22.8
								C202.5,192.1,192.3,185.4,181.9,187.6z"/>
						</g>
					</g>
				</g>
				<g class="st32">
					<g>
						<g>
							<polygon class="st18" points="294.1,105.3 284.5,152.2 296.1,152.6 304.3,108.8 							"/>
						</g>
					</g>
				</g>
				<g class="st32">
					<g>
						<g>
							<polygon class="st18" points="302.4,152.9 309.6,112.6 313.5,116.4 306.2,150.5 							"/>
						</g>
					</g>
				</g>
				<g>
					<g>
						<g>
							<path class="st35" d="M303.4,158.7c-15.6,3.3-31-6.7-34.3-22.3s6.7-31,22.3-34.3c15.6-3.3,31,6.7,34.3,22.3
								S319,155.4,303.4,158.7z M293.4,111.6c-10.4,2.2-17,12.4-14.8,22.8c2.2,10.4,12.4,17,22.8,14.8s17-12.4,14.8-22.8
								C314,116.1,303.8,109.4,293.4,111.6z"/>
						</g>
					</g>
				</g>
				<g class="st32">
					<g>
						<g>
							<polygon class="st18" points="443.5,44.3 433.8,91.2 445.5,91.6 453.7,47.8 							"/>
						</g>
					</g>
				</g>
				<g class="st32">
					<g>
						<g>
							<polygon class="st18" points="451.7,91.9 459,51.6 462.9,55.4 455.6,89.5 							"/>
						</g>
					</g>
				</g>
				<g>
					<g>
						<g>
							<path class="st35" d="M453.1,96.2c-15.6,3.3-31-6.7-34.3-22.3s6.7-31,22.3-34.3c15.6-3.3,31,6.7,34.3,22.3
								S468.7,92.8,453.1,96.2z M443.1,49.1c-10.4,2.2-17,12.4-14.8,22.8c2.2,10.4,12.4,17,22.8,14.8c10.4-2.2,17-12.4,14.8-22.8
								C463.7,53.5,453.5,46.9,443.1,49.1z"/>
						</g>
					</g>
				</g>
				<g class="st32">
					<g>
						<g>
							<polygon class="st18" points="579,21.3 569.4,68.2 581,68.6 589.2,24.9 							"/>
						</g>
					</g>
				</g>
				<g class="st32">
					<g>
						<g>
							<polygon class="st18" points="587.3,68.9 594.5,28.6 598.4,32.4 591.1,66.5 							"/>
						</g>
					</g>
				</g>
				<g>
					<g>
						<g>
							<path class="st35" d="M588.9,76.5c-15.6,3.3-31-6.7-34.3-22.3s6.7-31,22.3-34.3c15.6-3.3,31,6.7,34.3,22.3
								S604.5,73.2,588.9,76.5z M578.9,29.4c-10.4,2.2-17,12.4-14.8,22.8c2.2,10.4,12.4,17,22.8,14.8c10.4-2.2,17-12.4,14.8-22.8
								C599.5,33.9,589.2,27.2,578.9,29.4z"/>
						</g>
					</g>
				</g>
			</g>
		</g>
	</g>
</g>
<g>
	<path class="st0" d="M97.7,776.8c-0.5,8.3-2.5,15-5.9,19.8c-4.5,6.4-8.8,7.1-11.6,7.1h-2.9v-27.8c-9.2-0.8-18.3-2-27.8-3.5
		c-11.8-1.9-23.3-2.3-34.6-2v84.5H83c23.3,0,42.6-7.8,57.4-23.2c13.5-14.1,20.9-32.3,21.9-53.9c-21.2-0.3-42.4-0.6-63.6-0.9
		C98.3,776.8,98,776.8,97.7,776.8z"/>
	<path class="st0" d="M142.1,716.1c-13.9-16.6-34.7-25-61.9-25H14.9v79.2c11.4-0.3,22.8,0.1,34.6,2c9.4,1.5,18.6,2.7,27.8,3.5v-34
		h2.9c5.4,0,9.1,2.2,12.1,7.2c3.7,6.3,5.6,14.1,5.6,23.1c0,1.6-0.1,3.1-0.1,4.6c0.3,0,0.6,0,0.9,0c21.2,0.3,42.5,0.6,63.6,0.9
		c0.1-1.8,0.1-3.6,0.1-5.4C162.4,751.1,155.6,732.2,142.1,716.1z"/>
	<path class="st36" d="M99,801.6c-5.1,7.2-11.4,10.8-18.8,10.8H68.5V775c-6.3-0.7-12.6-1.6-19-2.6c-8.8-1.4-17.4-2-25.9-2.1v75.8H83
		c20.9,0,37.9-6.8,51-20.5c12-12.5,18.5-28.6,19.5-48c-15.7-0.2-31.3-0.5-47-0.7C105.9,787.1,103.4,795.4,99,801.6z"/>
	<path class="st37" d="M135.3,721.8c-12.2-14.6-30.6-21.8-55.1-21.8H23.7v70.4c8.5,0.1,17.1,0.7,25.9,2.1c6.4,1,12.7,1.9,19,2.6
		v-41.9h11.7c8.6,0,15.1,3.9,19.6,11.6c4.5,7.7,6.8,16.9,6.8,27.5c0,1.6,0,3.2-0.1,4.7c15.7,0.2,31.3,0.5,47,0.7
		c0.1-1.7,0.1-3.5,0.1-5.3C153.7,753.2,147.6,736.3,135.3,721.8z"/>
	<path class="st0" d="M244.1,801.3c-1.8,3.7-4.2,5.1-8.5,5.1c-9.3,0-11.9-14.3-12.4-27.8c-21.9-0.3-43.9-0.6-65.8-0.9
		c0.8,23,8.1,41.9,21.8,56.3c14.6,15.4,33.7,23.2,56.6,23.2c22.9,0,41.9-8,56.5-23.8c12.8-13.9,20-31.9,21.4-53.6
		c-21.9-0.3-43.8-0.5-65.8-0.8C247.3,792.8,245.3,798.8,244.1,801.3z"/>
	<path class="st0" d="M292.3,711.7c-14.5-15.2-33.3-22.8-56.1-22.8c-24.5,0-44.1,8.2-58.2,24.4c-13.8,15.8-20.7,36-20.7,59.9
		c0,1.5,0,3,0.1,4.5c22,0.3,43.9,0.6,65.8,0.9c0-1.4-0.1-2.8-0.1-4.2c0-15.8,2.3-34.7,13.3-34.7c7.8,0,11.7,9.9,11.7,29.3
		c0,3.7-0.1,7-0.2,9.9c21.9,0.3,43.9,0.6,65.8,0.8c0.2-2.7,0.3-5.4,0.3-8.2C314,746.9,306.7,726.8,292.3,711.7z"/>
	<path class="st37" d="M286,717.8c-12.8-13.4-29.4-20.1-49.7-20.1c-22,0-39.2,7.1-51.6,21.4c-12.4,14.2-18.6,32.3-18.6,54.1
		c0,1.6,0,3.1,0.1,4.6c16.1,0.2,32.2,0.5,48.3,0.7c0-1.3-0.1-2.7-0.1-4.1c0-29,7.4-43.5,22.1-43.5c13.6,0,20.5,12.7,20.5,38.1
		c0,3.6-0.1,6.9-0.2,10c16.1,0.2,32.2,0.4,48.2,0.6c0.2-2.6,0.3-5.3,0.3-8.1C305.2,749.1,298.8,731.2,286,717.8z"/>
	<path class="st36" d="M251.9,805.2c-3.3,6.6-8.8,9.9-16.3,9.9c-13.4,0-20.4-12.2-21.1-36.7c-16.1-0.2-32.2-0.5-48.3-0.7
		c0.8,20.7,7.3,37.4,19.3,50.1c13,13.6,29.7,20.5,50.3,20.5c20.4,0,37.1-7,50-21c11.4-12.3,17.7-28.2,19.1-47.7
		c-16.1-0.2-32.1-0.4-48.2-0.6C256.1,791.2,254.6,800,251.9,805.2z"/>
	<path class="st0" d="M460.8,756.4L459,747c-3.5-18.2-11.5-32.6-23.7-42.8c-12.2-10.2-28.3-15.3-47.7-15.3
		c-25.9,0-45.9,8.6-59.3,25.7c-12.9,16.4-19.5,36.8-19.5,60.5c0,1.6,0,3.1,0.1,4.6c21.6,0.3,43.3,0.5,64.9,0.7
		c-0.1-2.5-0.2-5.2-0.2-8.3c0-22,4.5-33.2,13.3-33.2c3,0,9.2,0,11.3,15.3l0.2,1.2h-22.6v25c27.2,0.3,54.4,0.5,81.7,0.7
		c0.6,0,1.2,0,1.7,0v-24.6L460.8,756.4z"/>
	<path class="st0" d="M375.8,780.4v13.3c-0.8-3-1.6-7.2-1.9-13.4c-21.6-0.2-43.3-0.5-64.9-0.7c0.8,22.6,7.7,41,20.4,54.8
		c13.8,15,31.6,22.6,52.9,22.6c14.8,0,27.2-3.7,37-10.9c0.2,0.8,0.5,1.6,0.7,2.4l1.9,6.3h37.3v-73.7c-0.6,0-1.2,0-1.7,0
		C430.2,781,403,780.7,375.8,780.4z M389,804.9c-1.7,0-3.3-0.3-4.8-0.9h9.8C392.6,804.6,390.9,804.9,389,804.9z"/>
	<path class="st37" d="M364.8,772.1c0-28,7.4-42,22.1-42c11.2,0,17.9,7.6,20,22.8l43.5-4.3c-3.1-16.3-10-28.8-20.7-37.7
		c-10.6-8.9-24.7-13.3-42.1-13.3c-23.2,0-40.7,7.4-52.4,22.3c-11.7,14.9-17.6,33.2-17.6,55.1c0,1.6,0,3.2,0.1,4.7
		c15.8,0.2,31.6,0.4,47.3,0.5C364.9,777.8,364.8,775,364.8,772.1z"/>
	<path class="st37" d="M384.5,764.2v16.4c22,0.2,43.9,0.4,65.9,0.6v-16.9H384.5z"/>
	<path class="st36" d="M384.5,795.2h24.2c-0.1,5.7-2,10.2-5.8,13.5c-3.8,3.3-8.4,4.9-13.9,4.9c-6.7,0-12.4-2.7-17.1-8.1
		c-3.9-4.5-6.2-12.9-6.9-25.2c-15.8-0.2-31.6-0.3-47.3-0.5c0.8,20.3,6.8,36.5,18.1,48.8c12.1,13.2,27.6,19.8,46.5,19.8
		c17.8,0,31.2-5.9,40.3-17.6c2.1,4.1,4.1,9.2,5.9,15.3h22v-65c-21.9-0.2-43.9-0.4-65.9-0.6V795.2z"/>
	<path class="st0" d="M526.8,746.1v-3.7h66v-51.3H465.3v90.1c29.8-0.4,59.7-7.4,89.5-11.4c8.5-0.9,16.9-1.4,25.4-1.5v-22.1H526.8z"
		/>
	<path class="st0" d="M465.3,781.2v73.6h127.5v-52.5h-66v-6.3h53.3v-27.8c-8.4,0.1-16.9,0.6-25.4,1.5
		C525,773.8,495.1,780.8,465.3,781.2z"/>
	<path class="st36" d="M474.1,780.9v65.2h110v-34.9h-66v-23.9h53.3v-18.8c-5.5,0.3-11.1,0.7-16.6,1.3
		C527.9,773.4,501,779.4,474.1,780.9z"/>
	<path class="st37" d="M518.1,754.8v-21.2h66v-33.7h-110v81c26.9-1.5,53.8-7.5,80.7-11.1c5.5-0.6,11.1-1,16.6-1.3v-13.6H518.1z"/>
	<path class="st0" d="M593,768.2v86.6h59.8v-39.7l4.8-6.8l21.3,46.5h68.8l-41.6-84.2c-3.4,0.3-6.8,0.6-10.1,0.9
		C661.5,773.4,627.4,768.8,593,768.2z"/>
	<path class="st0" d="M741.4,691.1h-61.7l-26.8,40.2v-40.2H593v77.1c34.3,0.6,68.4,5.2,103,3.3c3.3-0.3,6.7-0.6,10.1-0.9l-8.1-16.5
		L741.4,691.1z"/>
	<path class="st36" d="M601.8,768.5v77.6h42.3v-33.7l15.2-21.5l25.3,55.2h49.1l-36.9-74.6c-0.2,0-0.5,0-0.7,0.1
		C664.4,773.3,633.2,769.6,601.8,768.5z"/>
	<path class="st37" d="M724.7,699.9h-40.3l-40.3,60.4v-60.4h-42.3v68.5c31.4,1.1,62.6,4.8,94.2,3.1c0.2,0,0.5,0,0.7-0.1l-8.9-18
		L724.7,699.9z"/>
	<path class="st0" d="M736.8,769v85.8h62.4v-85.4c-16.5-0.4-33.1-0.6-49.7-0.6C745.4,768.9,741.1,768.9,736.8,769z"/>
	<path class="st0" d="M736.8,691.1V769c4.3-0.1,8.5-0.2,12.7-0.2c16.6,0,33.2,0.2,49.7,0.6v-78.3H736.8z"/>
	<path class="st36" d="M745.6,768.9v77.2h44.9v-76.8c-13.6-0.2-27.3-0.4-40.9-0.4C748.2,768.9,746.9,768.9,745.6,768.9z"/>
	<path class="st37" d="M745.6,699.9v69c1.3,0,2.6,0,3.9,0c13.7,0,27.3,0.1,40.9,0.4v-69.3H745.6z"/>
	<path class="st0" d="M895.7,691.1v51l-32.5-51h-56v78.5c47.3,1.2,94.6,3.8,142.5,7.6v-86.1H895.7z"/>
	<path class="st0" d="M807.2,854.9h54v-61.9l38.4,61.9h50.2v-77.6c-47.9-3.8-95.2-6.4-142.5-7.6V854.9z"/>
	<path class="st36" d="M816,846.1h36.4v-70.8c0-1.3-0.1-2.7-0.2-4.1c-12.1-0.5-24.2-1-36.3-1.3V846.1z"/>
	<path class="st37" d="M904.4,699.9v43.3c0,10.5,0.8,20.8,2.2,31c11.4,0.7,22.8,1.5,34.3,2.4v-76.7H904.4z"/>
	<path class="st37" d="M892.4,753.5l-34.1-53.5H816v70c12.1,0.4,24.2,0.8,36.3,1.3c-0.4-5.7-1.5-12.3-3.4-19.9
		c3.3,7.4,6.5,14.1,9.8,20.2c15.2,0.7,30.4,1.6,45.7,2.5C901.2,767.8,897.2,760.9,892.4,753.5z"/>
	<path class="st36" d="M907.8,781.5c-1-2.4-2.2-4.9-3.5-7.5c-15.3-1-30.5-1.8-45.7-2.5c1.9,3.6,3.9,6.9,5.8,10l40,64.6h36.5v-69.5
		c-11.5-0.9-22.9-1.7-34.3-2.4C907,776.6,907.4,779.1,907.8,781.5z"/>
	<path class="st0" d="M1016.1,780.1c-0.1-2.4-0.2-5.1-0.2-8.1c0-22,4.5-33.2,13.3-33.2c3,0,9.2,0,11.3,15.3l0.2,1.2H1018v24.7
		c27.8-0.6,55.5-2.6,83.4-2.4v-21.1l1.7-0.2l-1.8-9.4c-3.5-18.2-11.5-32.6-23.7-42.8c-12.2-10.2-28.3-15.3-47.7-15.3
		c-25.9,0-45.9,8.6-59.3,25.7c-12.9,16.4-19.5,36.8-19.5,60.5c0,0.8,0,1.5,0,2.3c4.7,0.4,9.4,0.8,14.2,1.2
		C982.3,780.2,999.2,780.5,1016.1,780.1z"/>
	<path class="st0" d="M1018,780.1v13.7c-0.8-3-1.6-7.4-1.9-13.6c-16.9,0.3-33.8,0.1-50.8-1.6c-4.7-0.4-9.5-0.8-14.2-1.2
		c0.4,23.6,7.3,42.8,20.5,57.1c13.8,15,31.6,22.6,52.9,22.6c14.8,0,27.2-3.7,37-10.9c0.2,0.8,0.5,1.6,0.7,2.4l1.9,6.3h37.3v-77.1
		C1073.6,777.5,1045.8,779.5,1018,780.1z M1031.3,804.9c-1.7,0-3.3-0.3-4.8-0.9h9.8C1034.8,804.6,1033.2,804.9,1031.3,804.9z"/>
	<path class="st37" d="M1007.3,780.3c-0.1-2.6-0.2-5.3-0.2-8.2c0-28,7.4-42,22.1-42c11.2,0,17.9,7.6,20,22.8l43.5-4.3
		c-3.1-16.3-10-28.8-20.7-37.7c-10.6-8.9-24.7-13.3-42.1-13.3c-23.2,0-40.7,7.4-52.4,22.3s-17.6,33.2-17.6,55.1c0,1,0,2,0.1,3
		c1.8,0.1,3.6,0.3,5.4,0.4C979.4,779.9,993.4,780.3,1007.3,780.3z"/>
	<path class="st36" d="M1026.8,795.2h24.2c-0.1,5.7-2,10.2-5.8,13.5c-3.8,3.3-8.4,4.9-13.9,4.9c-6.7,0-12.4-2.7-17.1-8.1
		c-3.9-4.5-6.2-12.9-6.9-25.3c-14,0.1-27.9-0.3-42-1.7c-1.8-0.2-3.6-0.3-5.4-0.4c0.5,21.1,6.6,37.9,18.2,50.5
		c12.1,13.2,27.6,19.8,46.5,19.8c17.8,0,31.2-5.9,40.3-17.6c2.1,4.1,4.1,9.2,5.9,15.3h22v-68.4c-22,0.2-43.9,1.5-65.9,2.2V795.2z"/>
	<path class="st37" d="M1026.8,764.2v15.7c21.9-0.7,43.9-2,65.9-2.2v-13.5H1026.8z"/>
</g>
</svg>
