<svg xmlns="http://www.w3.org/2000/svg" version="1.1" xmlns:xlink="http://www.w3.org/1999/xlink" xmlns:svgjs="http://svgjs.dev/svgjs" width="128" height="128" viewBox="0 0 128 128"><g transform="matrix(0.8046875,0,0,0.8046875,12.221578124999994,22.892636882496674)"><svg viewBox="0 0 96 77" data-background-color="#ffffff" preserveAspectRatio="xMidYMid meet" height="102" width="128" xmlns="http://www.w3.org/2000/svg" xmlns:xlink="http://www.w3.org/1999/xlink"><g id="tight-bounds" transform="matrix(1,0,0,1,0.25950000000000273,0.06407489873527084)"><svg viewBox="0 0 95.48099999999998 76.87185020252944" height="76.87185020252944" width="95.48099999999998"><g><svg viewBox="0 0 95.48099999999998 76.87185020252944" height="76.87185020252944" width="95.48099999999998"><g><svg viewBox="0 0 95.48099999999998 76.87185020252944" height="76.87185020252944" width="95.48099999999998"><g id="textblocktransform"><svg viewBox="0 0 95.48099999999998 76.87185020252944" height="76.87185020252944" width="95.48099999999998" id="textblock"><g><svg viewBox="0 0 95.48099999999998 76.87185020252944" height="76.87185020252944" width="95.48099999999998"><g><svg viewBox="0 0 95.48099999999998 76.87185020252944" height="76.87185020252944" width="95.48099999999998"><g><svg xmlns="http://www.w3.org/2000/svg" xmlns:xlink="http://www.w3.org/1999/xlink" version="1.1" x="0" y="0" viewBox="10.137 17.502 80.729 64.995" enable-background="new 0 0 100 100" xml:space="preserve" height="76.87185020252944" width="95.48099999999998" class="icon-icon-0" data-fill-palette-color="accent" id="icon-0"><g fill="#0098ea" data-fill-palette-color="accent"><g fill="#0098ea" data-fill-palette-color="accent"><path d="M30.609 64.216V70.552C31.583 70.311 32.311 70.067 32.8 69.337 33.288 68.849 33.533 68.116 33.533 67.384 33.533 66.655 33.288 65.925 32.8 65.437 32.312 64.948 31.583 64.704 30.609 64.216M25.977 57.15C25.977 57.879 26.221 58.368 26.709 58.856 27.198 59.344 27.686 59.589 28.66 59.83V54.468C27.931 54.712 27.198 54.956 26.709 55.445S25.977 56.418 25.977 57.15M33.285 43.853A19.4 19.4 0 0 0 29.632 43.502C18.911 43.502 10.137 52.276 10.137 62.998S18.911 82.497 29.632 82.497C40.357 82.497 49.128 73.72 49.128 62.998 49.128 62.46 49.1 61.927 49.057 61.399 41.178 58.739 35.104 52.072 33.285 43.853M36.945 69.822C36.457 70.796 35.724 71.528 34.751 72.26 33.777 72.748 32.557 73.234 31.098 73.234V74.695C31.098 75.184 31.098 75.673 30.853 75.917 30.853 76.158 30.609 76.402 30.121 76.402 29.877 76.402 29.632 76.402 29.388 76.158 29.144 75.917 29.144 75.673 29.144 75.184V73.234C27.93 72.99 26.953 72.749 26.22 72.505 25.491 72.017 24.762 71.528 24.029 71.04 23.541 70.552 23.052 69.822 22.808 69.093 22.564 68.361 22.324 67.872 22.324 67.143 22.079 66.899 22.324 66.411 22.564 66.169 22.808 65.681 23.297 65.681 24.029 65.681 24.517 65.681 24.761 65.681 25.003 65.925 25.247 66.169 25.491 66.41 25.732 66.654 25.977 67.383 26.22 68.116 26.465 68.36 26.709 68.848 26.953 69.092 27.441 69.578 27.93 69.822 28.415 70.31 28.903 70.31V63.486C27.685 63.242 26.465 62.757 25.732 62.268 24.762 61.78 24.274 61.291 23.541 60.318 23.053 59.589 22.808 58.368 22.808 57.15 22.808 55.444 23.297 54.223 24.273 53.009 25.246 52.031 26.953 51.299 28.903 51.055V49.597C28.903 48.865 29.144 48.376 29.877 48.376 30.609 48.376 30.853 48.864 30.853 49.597V51.055C31.827 51.055 32.8 51.299 33.533 51.787A3.8 3.8 0 0 1 35.483 53.25C35.967 53.737 36.212 54.223 36.457 54.711 36.701 55.199 36.701 55.688 36.701 56.176 36.701 56.661 36.457 57.15 36.213 57.391A1.86 1.86 0 0 1 34.995 57.879C34.021 57.879 33.534 57.391 33.045 56.417 32.8 55.199 32.071 54.467 30.853 53.981V60.073C32.071 60.317 33.045 60.802 33.777 61.047 34.51 61.291 34.995 61.779 35.724 62.268 36.212 62.756 36.701 63.486 37.189 64.215 37.433 64.947 37.677 65.68 37.677 66.653 37.678 67.872 37.433 68.849 36.945 69.822M77.184 53.765C76.47 53.765 75.775 53.837 75.089 53.944A24.1 24.1 0 0 1 65.077 61.111 13.54 13.54 0 0 0 63.503 67.446C63.503 74.97 69.66 81.13 77.184 81.13 84.71 81.13 90.866 74.971 90.866 67.446 90.865 59.922 84.71 53.765 77.184 53.765M82.315 72.234C81.972 72.918 81.459 73.431 80.775 73.946 80.091 74.289 79.235 74.629 78.212 74.629V75.655C78.212 75.998 78.212 76.34 78.04 76.511 78.04 76.68 77.869 76.852 77.526 76.852 77.355 76.852 77.183 76.852 77.011 76.68 76.84 76.511 76.84 76.339 76.84 75.997V74.628C75.988 74.457 75.303 74.288 74.788 74.116 74.276 73.773 73.765 73.43 73.251 73.089A3.7 3.7 0 0 1 72.395 71.722C72.223 71.208 72.054 70.866 72.054 70.353 71.882 70.182 72.054 69.839 72.223 69.67 72.395 69.327 72.738 69.327 73.251 69.327 73.594 69.327 73.765 69.327 73.934 69.498 74.106 69.67 74.277 69.839 74.446 70.011 74.618 70.523 74.789 71.036 74.961 71.208 75.132 71.551 75.304 71.722 75.646 72.062 75.99 72.233 76.33 72.576 76.672 72.576V67.787C75.818 67.616 74.961 67.275 74.446 66.933 73.765 66.59 73.423 66.247 72.909 65.565 72.566 65.053 72.395 64.197 72.395 63.342 72.395 62.145 72.738 61.287 73.422 60.435 74.106 59.75 75.303 59.236 76.671 59.065V58.041C76.671 57.527 76.84 57.185 77.355 57.185 77.869 57.185 78.04 57.528 78.04 58.041V59.065C78.724 59.065 79.406 59.236 79.921 59.579A2.68 2.68 0 0 1 81.29 60.604C81.63 60.947 81.802 61.288 81.973 61.63 82.145 61.973 82.145 62.316 82.145 62.658S81.973 63.342 81.802 63.511A1.3 1.3 0 0 1 80.948 63.854C80.264 63.854 79.922 63.511 79.579 62.828 79.407 61.974 78.895 61.46 78.041 61.119V65.394C78.895 65.565 79.579 65.906 80.093 66.077 80.608 66.248 80.948 66.591 81.46 66.933 81.803 67.276 82.146 67.787 82.488 68.299 82.659 68.813 82.831 69.327 82.831 70.011 82.83 70.866 82.658 71.552 82.315 72.234M77.869 68.3V72.747C78.552 72.577 79.064 72.406 79.406 71.894 79.749 71.551 79.921 71.037 79.921 70.523 79.921 70.011 79.749 69.499 79.406 69.157 79.064 68.813 78.552 68.643 77.869 68.3M74.618 63.343C74.618 63.855 74.789 64.197 75.132 64.54S75.818 65.054 76.5 65.223V61.46C75.989 61.631 75.475 61.803 75.132 62.146S74.618 62.828 74.618 63.343M52.682 32.349C52.682 33.142 52.947 33.673 53.478 34.205 54.009 34.736 54.54 35.002 55.599 35.264V29.431C54.806 29.697 54.009 29.962 53.478 30.493S52.682 31.552 52.682 32.349M57.721 40.034V46.926C58.78 46.664 59.573 46.398 60.104 45.605 60.635 45.074 60.901 44.277 60.901 43.48 60.901 42.687 60.635 41.893 60.104 41.362S58.779 40.565 57.721 40.034M77.864 38.709C77.864 27.047 68.323 17.502 56.658 17.502 44.996 17.502 35.452 27.046 35.452 38.709 35.452 50.37 44.996 59.918 56.658 59.918 68.323 59.919 77.864 50.371 77.864 38.709M64.611 46.132C64.08 47.191 63.284 47.987 62.224 48.785 61.165 49.315 59.838 49.844 58.251 49.844V51.434C58.251 51.965 58.251 52.496 57.984 52.762 57.984 53.024 57.719 53.289 57.188 53.289 56.922 53.289 56.657 53.289 56.391 53.023 56.125 52.761 56.125 52.495 56.125 51.964V49.843C54.804 49.577 53.741 49.314 52.944 49.049 52.151 48.518 51.358 47.987 50.561 47.456 50.029 46.925 49.499 46.131 49.232 45.338 48.967 44.542 48.705 44.01 48.705 43.216 48.439 42.951 48.705 42.42 48.967 42.158 49.232 41.627 49.764 41.627 50.561 41.627 51.092 41.627 51.358 41.627 51.62 41.892 51.886 42.158 52.151 42.42 52.413 42.686 52.68 43.479 52.944 44.275 53.21 44.541 53.476 45.072 53.741 45.337 54.272 45.865 54.803 46.131 55.332 46.662 55.863 46.662V39.24C54.538 38.974 53.21 38.447 52.413 37.915 51.358 37.384 50.827 36.853 50.03 35.794 49.499 35.001 49.233 33.672 49.233 32.348 49.233 30.493 49.765 29.164 50.827 27.843 51.886 26.781 53.741 25.985 55.863 25.718V24.131C55.863 23.335 56.125 22.803 56.922 22.803S57.984 23.334 57.984 24.131V25.718C59.044 25.718 60.102 25.984 60.899 26.514 61.696 26.78 62.489 27.311 63.021 28.105 63.548 28.636 63.814 29.164 64.079 29.695 64.346 30.226 64.346 30.757 64.346 31.288 64.346 31.816 64.079 32.347 63.815 32.61 63.549 32.875 63.022 33.14 62.49 33.14 61.431 33.14 60.9 32.61 60.369 31.551 60.103 30.226 59.31 29.429 57.985 28.902V35.528C59.31 35.793 60.369 36.321 61.166 36.587S62.49 37.384 63.284 37.915C63.815 38.446 64.346 39.24 64.878 40.033 65.143 40.829 65.409 41.627 65.409 42.686 65.409 44.011 65.143 45.073 64.611 46.132" fill="#0098ea" data-fill-palette-color="accent"></path></g></g></svg></g></svg></g></svg></g></svg></g></svg></g></svg></g><defs></defs></svg><rect width="95.48099999999998" height="76.87185020252944" fill="none" stroke="none" visibility="hidden"></rect></g></svg></g></svg>