<svg viewBox="0 0 24 24" fill="none" xmlns="http://www.w3.org/2000/svg">
<rect width="24" height="24" rx="2" fill="#D6FF5B"/>
<rect x="2.58691" y="2.58691" width="18.8261" height="18.8261" fill="#13171C" stroke="#13171C"/>
<path d="M3.13049 4.17395L6.78267 7.82612L10.4348 11.4783H3.13049V4.17395Z" fill="#D6FF5B"/>
<path d="M12.5217 13.5652L16.1739 17.2174L19.8261 20.8695H12.5217V13.5652Z" fill="#D6FF5B"/>
<path d="M17.2174 7.82612L20.8695 4.17395V11.4783H13.5652L17.2174 7.82612Z" fill="#D6FF5B"/>
<path d="M17.2174 16.1739L13.5652 12.5217H20.8695V19.826L17.2174 16.1739Z" fill="#D6FF5B"/>
<path d="M7.82612 6.78264L4.17395 3.13047L11.4783 3.13047V10.4348L7.82612 6.78264Z" fill="#D6FF5B"/>
<path d="M7.82612 17.2174L11.4783 13.5652V20.8695H4.17395L7.82612 17.2174Z" fill="#D6FF5B"/>
<path d="M3.13049 12.5217H10.4348L6.78267 16.1739L3.13049 19.8261V12.5217Z" fill="#D6FF5B"/>
<path d="M12.5217 3.13049H19.8261L16.1739 6.78267L12.5217 10.4348V3.13049Z" fill="#D6FF5B"/>
</svg>
