<?xml version="1.0" encoding="utf-8"?>
<!-- Generator: Adobe Illustrator 24.1.2, SVG Export Plug-In . SVG Version: 6.00 Build 0)  -->
<svg version="1.1" id="Layer_1" xmlns="http://www.w3.org/2000/svg" xmlns:xlink="http://www.w3.org/1999/xlink" x="0px" y="0px"
	 viewBox="0 0 580 580" style="enable-background:new 0 0 580 580;" xml:space="preserve">
<style type="text/css">
	.st0{fill:#FAD856;}
	.st1{fill:#E78203;}
	.st2{fill:#010612;}
	.st3{fill:#E2133E;}
	.st4{fill:#E3143F;}
	.st5{fill:#E2143D;}
	.st6{fill:#E0143D;}
	.st7{fill:#670623;}
	.st8{fill:#F9D655;}
	.st9{fill:#680624;}
	.st10{fill:#E1850B;}
	.st11{fill:#FCFBF5;}
	.st12{fill:#E59214;}
	.st13{fill:#E59011;}
	.st14{fill:#FDFCF5;}
	.st15{fill:#FAF7F8;}
	.st16{fill:#F9F8F9;}
	.st17{fill:#EBC65E;}
	.st18{fill:#ECC85D;}
	.st19{fill:#D5840C;}
	.st20{fill:#F9F0F2;}
	.st21{fill:#D5850B;}
	.st22{fill:#670626;}
	.st23{fill:#660722;}
	.st24{fill:#E0BC56;}
	.st25{fill:#DD8912;}
	.st26{fill:#DB890C;}
	.st27{fill:#FBE48E;}
	.st28{fill:#F7E8EF;}
	.st29{fill:#FBF9F7;}
	.st30{fill:#F5DD75;}
	.st31{fill:#EDD875;}
	.st32{fill:#F3F3E7;}
	.st33{fill:#F3F0E6;}
	.st34{fill:#FEFAD7;}
	.st35{fill:#EFEDD6;}
	.st36{fill:#040610;}
	.st37{fill:#F6D557;}
	.st38{fill:#E48207;}
	.st39{fill:#231205;}
	.st40{fill:#1E1205;}
	.st41{fill:#191201;}
	.st42{fill:#37200D;}
	.st43{fill:#FDF9CD;}
	.st44{fill:#CE862A;}
	.st45{fill:#400603;}
	.st46{fill:#940F2A;}
	.st47{fill:#F85067;}
	.st48{fill:#D1D1D1;}
	.st49{fill:#FDFDFD;}
	.st50{fill:#F4903C;}
	.st51{fill:#FCC59D;}
	.st52{fill:#BF764F;}
	.st53{fill:#BE774F;}
	.st54{fill:#BF7650;}
	.st55{fill:#FDFDFC;}
	.st56{fill:#FBC69D;}
	.st57{fill:#C67657;}
	.st58{fill:#FBFBFB;}
	.st59{fill:#D2D2D2;}
	.st60{fill:#F7C5A4;}
	.st61{fill:#F7C4A0;}
	.st62{fill:#F5C39F;}
	.st63{fill:#F9FAF9;}
	.st64{fill:#FAFAF8;}
	.st65{fill:#F6C49F;}
	.st66{fill:#F1BFA3;}
	.st67{fill:#EEC1A5;}
	.st68{fill:#FBCA5B;}
	.st69{fill:#FACB5A;}
	.st70{fill:#FAC19A;}
	.st71{fill:#F9C099;}
	.st72{fill:#800507;}
	.st73{fill:#F9F90A;}
	.st74{fill:#EEECE3;}
	.st75{fill:#820407;}
	.st76{fill:#767778;}
	.st77{fill:#E1BCA2;}
	.st78{fill:#DFDFDF;}
	.st79{fill:#F2B713;}
	.st80{fill:#FAF9F4;}
	.st81{fill:#F1B714;}
	.st82{fill:#997E6C;}
	.st83{fill:#F5F5F4;}
	.st84{fill:#987E6B;}
	.st85{fill:#997E6D;}
	.st86{fill:#695C5C;}
	.st87{fill:#FDFBE8;}
	.st88{fill:#FEFEFE;}
	.st89{fill:#989899;}
	.st90{fill:#E7E7E7;}
	.st91{fill:#E8E8E8;}
	.st92{fill:#9A9A9B;}
	.st93{fill:#E1E1E2;}
	.st94{fill:#D5D5D5;}
	.st95{fill:#D6D6D7;}
	.st96{fill:#E1E1E1;}
	.st97{fill:#A6A6A6;}
	.st98{fill:#B4B4B5;}
	.st99{fill:#BABABA;}
	.st100{fill:#B6B6B6;}
	.st101{fill:#B8B8B9;}
	.st102{fill:#B9B9BA;}
	.st103{fill:#888889;}
	.st104{fill:#A9A9A9;}
	.st105{fill:#B2B2B2;}
	.st106{fill:#B0B0B0;}
	.st107{fill:#969697;}
	.st108{fill:#C7C7C8;}
	.st109{fill:#ADADAE;}
	.st110{fill:#ACACAD;}
</style>
<g>
	<path class="st0" d="M3.2,488.6c0.3-6.6,2.5-12.9,3.9-19.3c7.8-33.6,15.7-67.3,23.6-100.9c5-21.3,22.7-35.3,44.7-35.3
		c3,0,4.6-0.8,5.9-3.6c6.5-13.5,14.9-25.6,25.1-36.6c1.8-1.9,1.9-2.9-0.2-4.6c-7.3-5.7-14.3-11.6-21.6-17.3c-2-1.6-2.1-2.6-0.1-4
		c0.1-0.1,0.2-0.1,0.3-0.3c12.3-15,29.1-18.5,47.3-19c8.6-0.2,17.2,0.8,25.8-0.7c2.7-0.5,5.4-1,8-1.9c7.1-2.3,12.9-5.9,16.9-12.9
		c9.2-15.9,19.3-31.2,29.1-46.7c0.9-1.5,1.6-3,1.9-4.8c0.3-2.1,0.6-4.3,1.5-6.1c3.9-8.2,3.1-17.5,6.2-25.8c0.9-2.3,0.4-4.3-0.9-6.4
		c-2.8-4.6-3.9-9.8-2.6-15.1c1.2-5.1,0.8-10.2,0.6-15.2c-0.9-20.3-1.8-40.7-2.8-61c0-0.8,0-1.7,0-3.3c5,3.5,9.6,6.6,14.1,9.7
		c8.9,6.2,17.8,12.4,26.6,18.7c2,1.4,3,1.2,4.5-0.5c11.8-13.2,23.9-26.2,35.6-39.4c2.4-2.7,3.3-2.3,5.5,0.1
		c11.7,13.1,23.6,26.1,35.4,39.2c1.7,1.9,2.7,2.1,4.8,0.6c12.4-8.8,24.9-17.5,37.4-26.2c0.9-0.6,1.8-1.2,2.2-1.5
		c0,8.5,0.2,17.2,0,25.8c-0.5,14.8-1.2,29.7-2,44.5c-0.2,3.3,0.7,6.4,1.1,9.6c0.5,3.9,0.6,8.1-1.6,11.3c-3.6,5.2-1.9,10.4-1.3,15.8
		c0,0.4,0.3,0.7,0.3,1.1c-1.3,8.9,3.7,16.6,4.9,25c0.2,1.5,1,2.8,1.8,4.1c10.8,17.2,21.6,34.4,32.4,51.7c1,1.7,2.3,2.8,4,3.8
		c9.1,5,18.8,7.1,29.1,6.7c8.5-0.3,17,0.1,25.4,0.8c13,1.2,24.3,5.7,33.4,15.5c4.8,5.2,5.2,4.8-0.2,9.2c-6.2,5-12.4,10.1-18.6,15.1
		c-1.8,1.4-2.3,2.3-0.4,4.2c11.2,12,20.3,25.6,27.2,40.5c0.7,1.5,1.6,2.6,3.3,3.3c18.8,8,29.1,22.5,32.3,42.5
		c5.9,36.2,12.1,72.3,18.2,108.5c1.3,7.9,2.7,15.7,4.1,23.6c0.2,1.1,0.7,2.2-0.1,3.3c-4.2-0.5-7.7-2.6-11-5.1
		c-1.7-3.5-1.8-7.5-2.5-11.3c-6.9-40.1-13.5-80.3-20.5-120.3c-2.7-15.6-11.8-26.1-26.7-31.5c-3-1.1-4.7-2.6-6-5.5
		c-7.6-16.9-17.7-32.1-31-45.1c-0.7-0.7-1.4-1.4-2.1-2.1c-2.9-3.1-2.8-3.8,0.3-6.7c5.9-5.5,12.3-10.6,18.5-15.8
		c2.8-2.3,2.7-2.7,0.1-5.1c-3-2.7-6.7-4-10.5-4.7c-11.8-2.2-23.7-3-35.7-2.5c-8.8,0.4-17.4-1.4-25.5-4.8c-5.8-2.4-11.2-5.5-16-9.5
		c-1.5-1.3-4.1-2.4-1.7-5.3c0.7-0.8-0.5-1.8-1-2.6c-9.7-15.3-19.3-30.6-28.9-46c-0.6-0.9-1.4-1.9-1.6-2.9
		c-1.5-6.6-3.1-13.1-6.1-19.2c-0.5-1-0.4-2.2-0.2-3.3c1.1-5-0.1-9.9-1-14.8c-0.9-4.6-0.6-8.9,2.1-12.9c2.3-3.4,2.1-7.1,1.1-10.8
		c-0.8-2.7-0.7-5.4-0.4-8.1c0.7-5.6,0.7-11.2,0.8-16.8c0.3-10.3,1.3-20.7,1-31c-0.7-0.5-1.2,0-1.6,0.3c-8.8,6.1-17.6,12.3-26.4,18.4
		c-2.7,1.8-3.8,4-3.6,7.2c0.2,2.6,0.4,5.3-1.7,7.4c-2.6,2.6-4.9,2.3-6.4-1.1c-2.2-4.8-1.8-7.1,2.3-10.5c2-1.7,2.1-2.9,0.4-4.9
		c-6.3-7.2-13-14.2-19.3-21.4c-4.1-4.7-8.5-9.2-12.5-13.9c-1.6-1.9-2.8-2-4.5-0.1c-10.3,11.9-21.1,23.3-31.5,35
		c-2.1,2.4-1.9,3.8,0.5,5.7c3.5,2.8,3.8,8.1,1,11.6c-0.8,1-1.7,1.5-2.9,1.1c-2-0.7-3.6-1.7-4.1-3.9c-0.4-1.8-0.3-3.7-0.2-5.6
		c0.2-2.9-1-4.8-3.4-6.5c-8.6-6-17.3-11.8-25.8-18c-0.7-0.5-1.3-1.2-2.6-1c0.6,5.9,0,11.8,0.6,17.8c0.8,6.9,0.7,13.9,0.9,20.9
		c0.2,6.8,1.5,13.6-0.4,20.4c-0.7,2.2-0.3,4.8,1.1,6.9c4.6,6.7,2.9,13.6,0.9,20.5c-0.4,1.4-1.4,2.8-1.2,4.3c0.6,5.2-2.1,9.6-3,14.4
		c-2.5,14.4-11.9,25-18.9,37c-5.2,8.9-11.1,17.5-16.4,26.4c0.9,0.3,2.1-0.7,2.5,0.5c0.4,1.1-0.5,1.9-1.2,2.5
		c-11.2,9.6-23.9,15.9-38.9,16.2c-11.4,0.2-22.7,0.1-34,1.6c-5.9,0.8-11.9,1.6-16.9,5.4c-3.3,2.4-3.3,3.3-0.1,5.9
		c5.9,4.8,11.7,9.8,17.4,14.7c3.9,3.4,3.9,4.3,0.2,8c-11.8,12-21.8,25.3-29.3,40.4c-5.4,10.9-3.1,9.3-15,9.5
		c-4.3,0.1-8.5,0.7-12.5,2.1c-11.8,4.2-19.3,12.5-22.1,24.5c-7.4,31.2-14.8,62.4-21.9,93.7c-1.5,6.3-2.8,12.7-4.6,18.9
		C12.5,487.9,7.8,488,3.2,488.6z"/>
	<path class="st1" d="M3.2,488.6c2.8-1,5.5-2.2,8.4-3c1.4-0.4,1.9-1.2,2.5-2.3c6.2,5.2,12.2,10.6,18.4,15.8
		c6.3,5.3,12.7,10.5,18.9,15.9c1.7,1.5,3.5,1.6,5.6,1.2c16.3-3.2,32.6-6.2,49-8.9c20.8-3.3,41.7-6.1,62.7-8.4
		c16.2-1.7,32.5-3,48.8-4.2c9.9-0.7,19.9-1.2,29.9-1.6c20.8-0.8,41.6-1.5,62.5-0.8c18.2,0.6,36.4,1,54.5,2.1
		c29.3,1.8,58.3,5.5,87,12c22.7,5.2,43.8,14.5,64.2,25.4c3,1.6,5.4,1.7,8.3-0.1c12-7.2,24.1-14.2,36.1-21.2c1.5-0.9,2.9-2,4.8-1.6
		c3.5,1.8,7,3.5,10.5,5.2c-12.1,7.2-24.2,14.4-36.3,21.6c-5.4,3.2-10.9,6.1-16.1,9.5c-2.6,1.7-4.5,1.1-6.8-0.3
		c-19.5-11.2-39.9-20.7-61.8-26.2c-25.7-6.5-51.8-10.4-78.2-12.3c-39.1-2.8-78.3-3.8-117.4-2.6c-34.9,1-69.7,3.6-104.4,7.8
		c-33.8,4-67.3,9.8-100.7,16.5c-1.8,0.4-3.3,0.4-4.8-0.9c-14.7-12.5-29.5-25-44.3-37.5C3.9,489.6,3.6,489,3.2,488.6z"/>
	<path class="st2" d="M564.7,509.1c-14.2,8.3-28.4,16.6-42.6,25c-1.6,1-2.9,1.4-4.8,0.3c-31.5-18.3-65.8-28.2-101.7-33.5
		c-23.5-3.4-47.1-4.9-70.8-6.1c-22.6-1.1-45.1-1.5-67.7-1.2c-30.3,0.4-60.6,2-90.8,4.8c-43.8,3.9-87.1,10.5-130.2,19.2
		c-2,0.4-3.5,0.2-5.1-1.2c-11.3-9.6-22.7-19.1-34-28.8c-1.3-1.1-3.3-2-3-4.3c8.8-37.6,17.6-75.2,26.4-112.8
		c3.8-16.3,17.7-27.8,34.4-27.1c8.5,0.4,12.5-2.2,15.9-10c6.9-15.6,17.5-29,30-40.7c2.2-2.1,2-3-0.1-4.8c-7-5.8-13.9-11.8-20.9-17.5
		c-1.8-1.5-1.5-2.1-0.1-3.6c4.3-4.3,9.7-5.9,15.4-7c10.1-1.8,20.3-2.3,30.6-1.9c17.8,0.7,33.3-4.9,46.8-16.5c0.4-0.3,0.7-0.7,1.1-1
		c0.1-0.1,0.2-0.4,0.4-0.9c-1.7,0.7-3.1,1.3-5.3,2.2c7.2-11.5,14-22.3,20.8-33.1c2.3-3.7,4.6-7.4,7-11.1c3.7-5.8,7.8-11.3,8.1-18.6
		c0-0.8,0.4-1.7,0.7-2.5c2.1-4.9,3.9-9.6,3.6-15.3c-0.2-3.7,2.4-7.4,2.9-11.4c0.6-4.3,0.5-8-2.1-11.6c-2-2.6-2.6-5.9-1.7-8.9
		c2.2-8.1,0.5-16.1,0.4-24.2c-0.3-12.2-1.1-24.4-1.6-36.6c1.3-0.5,1.9,0.6,2.6,1.1c9.7,6.8,19.4,13.6,29.2,20.3
		c1.6,1.1,2.4,2.3,2.3,4.3c-0.1,2.4,0.1,4.7,0.1,7.1c0,2.7,2.1,3.3,4,3.8c2.1,0.5,2-1.8,2.5-3c1.6-3.8,1.1-6.9-2.9-9
		c-2.7-1.3-3-2.7-0.7-5.2c11.8-12.7,23.4-25.6,35.1-38.4c0.2-0.2,0.4-0.3,0.8-0.6c10.4,11.4,20.8,22.9,31.1,34.3
		c0.5,0.6,1,1.1,1.5,1.7c1.6,1.9,4.4,3.6,4.6,5.6c0.2,2-3.2,3-4.9,4.6c-1.6,1.6-0.8,9.7,1.3,10c2,0.3,3.8-0.9,4.6-3
		c0.2-0.5,0.2-1.3,0.1-1.8c-1.1-6.6,1.9-10.6,7.5-14c9-5.5,17.4-12,26-18c0,5.4,0.2,10.7,0,16c-0.5,12.7-1.2,25.4-1.8,38.1
		c-0.1,1.4,0.2,2.7,0.6,4c1.5,4.8,1.2,9.3-2.1,13.4c-1.7,2.1-1.6,4.8-1.5,7.1c0.2,3.8,1.1,7.6,1.7,11.3c0.1,0.7,0.4,1.5,0.3,2.2
		c-1.4,5.6,1.6,10.2,2.5,15.3c2.3,12.6,9.8,22.2,16.1,32.5c6.7,10.9,13.6,21.7,20.4,32.6c-1.5,0.8-2.4-1.1-3.9-0.3
		c2.1,2.7,4.9,4.4,7.6,6.3c11.4,7.7,23.9,11.5,37.7,11.2c12-0.3,24-0.1,35.7,2.6c4.7,1.1,8.9,3,12.4,6.4c1.7,1.7,1.3,2.3-0.3,3.6
		c-7,5.8-13.9,11.8-20.9,17.5c-1.9,1.6-2.3,2.5-0.2,4.5c14.9,14.1,26.4,30.5,34.4,49.4c0.6,1.5,1.5,2.3,3.1,2.8
		c16.6,5.4,26.4,16.8,29.3,34c7.1,41.8,14.2,83.6,21.3,125.4C564.2,505.7,564.4,507.4,564.7,509.1z"/>
	<path class="st3" d="M489.1,348.7c-8.5,1.3-17.1,1.3-25.7,1.6c-2.2,0.1-2-1.3-1.9-2.7c0.6-6,1-11.9,0.2-17.9
		c-0.2-1.2-0.3-2.4-0.6-4.7c-4.5,7.6-9.1,13.7-14.6,19.2c-1.3,1.2-2.4,1.4-3-0.6c-0.6-1.9-1.3-3.8-1.7-5.7
		c-1.1-4.9-4.2-8.7-6.9-12.8c-0.6-0.9-1.5-1.5-2.4-0.3c-2.2,10.7-8.9,17.9-18.1,22.8c-8.4,4.5-17.4,7-26.9,7.9
		c-1.7,0.2-3.6,1.4-5-0.6c1-0.5,1.9-1.1,2.9-1.6c13.3-7.5,26-15.8,33.5-29.8c3.8-7.1,5.7-14.7,6-22.9c0.3-9.9-1.4-19.3-5-28.5
		c-0.7-1.9-1.7-3.8-0.6-6c2.6-0.3,3.9,1.9,5.8,2.9c11.1,6.1,22.9,6,34.9,4.2c3.6-0.5,7.1-2.3,10.8-1.5c-5.4,6.7-12.2,12-18.2,18.1
		c-2.3,2.3-4.7,4.5-7,6.7c1,1.6,2.9,0.8,4,1.7c1,1.8,3.2,1.5,4.7,2.4c12.5,6.6,21.5,16.7,28.4,28.8c2.8,4.9,5,10,6.6,15.4
		C489.4,346.2,490.5,347.5,489.1,348.7z"/>
	<path class="st4" d="M152.3,301.4c1.6-0.5,3.2-1.1,5.4-1.8c-9.1-8.7-17.9-17.1-27.4-26.2c2.9,0,4.9-0.4,6.9,0.5
		c9.9,1.8,19.8,2.5,29.8,1.8c5.5-0.4,10.1-3.3,14.5-6.3c0.9-0.6,1.7-1.5,2.9-1.6c1,2.9-0.7,5.3-1.4,7.8c-2.8,10-5.4,19.9-5.1,30.4
		c0.6,20,10,34.5,27.2,44.1c3.5,2,7.1,3.6,10.7,5.4c1,0.5,2.1,0.8,2.4,2.4c-1.8,0.5-3.6,0.6-5.3,0c-17-2.1-39-10.6-43.2-32.1
		c-5.3,9.5-5.7,19-2.9,29.7c-10.6-7.3-17.9-16.3-24.3-26c-1.9-0.1-1.8,1.5-2,2.6c-1.1,5.9-3.5,11.4-3.7,17.5c-0.1,3.1-1.3,3.7-4.5,3
		c-3.1-0.7-6.2-0.1-9.3-0.3c-1.5-0.1-3,0.3-4.4-0.3c-1.3-0.1-2.5-0.2-3.8-0.4c-0.9-0.9-0.7-2.1-0.4-3.1
		c4.9-16.2,12.8-30.5,26.6-40.9C144.4,305,148.6,303.5,152.3,301.4z"/>
	<path class="st5" d="M247.2,357.2c0.9,2-0.5,1.4-1.4,1.1c-6.3-2.3-12.3-5.1-18.1-8.4c-13.9-7.9-25.7-17.9-31.8-33.3
		c-5.4-13.6-4.7-27.2-0.5-40.9c0.5-1.6,1.1-3.3,1.6-4.9c2.6,0.9,1.7,3,1.5,4.6c-1.1,7.3-1.6,14.6-0.3,22
		c1.9,11.3,7.4,20.3,16.8,26.8c2.9,2,3.1,1.9,3.7-1.6c0.1-0.7,0.3-1.5,0.6-2.2c0.8-1.7,1.7-2,3-0.4c0.4,0.5,0.7,1,1,1.6
		c5.8,13,14.7,24,23.7,34.9C247.1,356.7,247.1,356.9,247.2,357.2z"/>
	<path class="st6" d="M404.5,265.8c3.4,8.2,5.8,16.7,6.1,25.7c0.6,20.3-8.1,36-23.9,48.3c-8.4,6.5-17.9,11.2-27.8,15.1
		c-1.1,0.7-1.7,0.3-1.4-0.9c0.2-1,1.1-1.6,1.8-2.3c10.6-8.8,17.6-19.9,21.4-33.1c0.2-0.7,0.4-1.5,0.7-2.1c0.3-0.7,0.7-1.4,1.6-1.4
		c0.9,0,1.2,0.8,1.5,1.5c0.1,0.2,0.1,0.5,0.2,0.7c1.4,5.5,1.4,5.4,5.7,1.5c9.6-8.9,13.3-20.3,14-32.9c0.3-5.6,0.1-11.2-0.9-16.8
		C403.2,267.8,402.5,266.3,404.5,265.8z"/>
	<path class="st7" d="M404.5,265.8c-1.5,1.8-0.1,3.6,0.2,5.3c1.8,12.5,0.9,24.5-4.6,36.1c-3.1,6.7-8,11.9-13.9,16.2
		c-1.2,0.9-1.7,0.4-1.9-1c-0.3-2.3-0.7-4.6-1.3-6.9c-1.9,4.8-3.4,9.7-5.5,14.3c-4.1,9-10.2,16.4-17.8,22.7c-1.3,1.1-1.3,1-0.8,2.3
		c-1,1.1-2.3,1.3-4.8,1.6c13.4-20.4,24.1-41.2,26.8-66.2c3.5,7,5.4,13.3,6.5,19.9c0.1,0.8-0.1,2,0.9,2.3c1.2,0.4,1.8-0.7,2.3-1.4
		c4.8-5.9,7.7-12.6,9.7-19.9c2.5-9.3,2.1-18.7,2.2-28.5C403.7,263.5,404.6,264.3,404.5,265.8z"/>
	<path class="st7" d="M247.2,357.2c-11.3-10.8-19.7-23.6-26.3-38c-1.5,2.2-1.2,4.3-1.2,6.3c0,2.2-0.6,2.6-2.6,1.4
		c-11.4-6.6-17.8-16.6-20-29.5c-1.3-7.6-0.9-15.1,0.6-22.6c0.3-1.3,0.6-2.7-0.6-3.9c0.5-1.9,0.9-3.8,3-5.3
		c0.2,5.4,0.3,10.5,0.6,15.7c0.7,9.3,2.8,18.1,7.2,26.3c1.2,2.2,2.9,4,4.4,6c0.5,0.6,1.1,1.6,2.1,1.3c1.2-0.3,1.3-1.5,1.4-2.4
		c0.4-6.3,2.7-12.1,5.4-17.7c0.1-0.3,0.4-0.5,0.9-1.2c1,5.3,1.1,10.4,2.5,15.2c3.6,13,8.7,25.3,15.7,36.8
		C242.7,349.3,244.9,353.3,247.2,357.2z"/>
	<path class="st8" d="M310.4,76.4c3.5,3.7,6.9,7.5,10.4,11.2c0.7,0.8,1.5,1.8-0.1,2.2c-6.5,1.9-4.9,6.4-3.7,10.9
		c0.4,1.6,0.7,3.2,1.1,5.4c0.4-1.8,0.7-3,1.2-5.2c0.7,2.8,1.1,4.6,1.6,6.4c2.5,8.4,8.5,11.6,17,8.8c6-1.9,10.4-7.2,10.4-13.6
		c0-3.3,1.3-5.3,3.8-7c2.6-1.8,5-3.9,7.9-5.5c-1.2,1.8-2.4,3.6-3.5,5.4c-2,2-3.4,4.2-3.9,7.2c-1.4,8.5-5.9,14.5-14.5,16.9
		c-3.4,1.3-7,0.7-11.4,1c2,1.1,3.7,1.8,2.9,3.8c-0.7,1.7-2.4,1-3.6,1.1c-5.2,0.3-10.4,0.5-15.6,0.8c-1.5-1-0.4-2.5-0.9-3.7
		c-0.3,0-0.4-0.1-0.4-0.4c-0.3-6.9-0.1-13.9,0-20.8c0.1-6.2,0.2-12.4,0-18.6C309,80.6,308.5,78.2,310.4,76.4z"/>
	<path class="st0" d="M241.5,94.9c-1.1-1.6-2.1-3.2-3.2-4.8c0.1-0.1,0.3-0.3,0.5-0.4c3.3,2.6,6.5,5.3,9.8,7.8c1.4,1,1.1,2.4,1.1,3.7
		c0,10,7.2,17.8,20.6,15.1c2.8-0.6,4.4-2.6,5.6-5.1c1.4-3.1,2.1-6.3,3-9.8c1.3,1.3,0.2,2.9,1.3,4.3c0.8-3.9,1.5-7.5,2.4-11.1
		c0.6-2.5-1.6-3-3-3.6c-3.4-1.4-3.1-2.9-0.7-5.2c3.1-2.9,5.4-6.5,8.7-9.2c2.5,3.3,2.3,7.3,1.9,11c-1.1,10.4-0.1,20.8-0.4,31.2
		c0,1,0.3,2-0.1,2.9c0,0.4,0,0.8,0,1.2c-0.7,0.9-0.1,2.3-1.1,3.1c-5.2-0.3-10.4-0.4-15.6-0.8c-1.3-0.1-3.1,0.8-3.7-1.4
		c-0.5-2.1,1.5-2.2,2.7-3.3c-3.7-0.4-7.3,0.3-10.6-0.9c-9.3-2.7-14.3-8.9-15.1-18.5C245.3,98.6,243.6,96.5,241.5,94.9z"/>
	<path class="st9" d="M212.9,357.9c1.5,0,3,0,5.5,0c-4.7-2.3-8.4-4-12.1-5.9c-11-5.5-19.6-13.5-24.8-24.8c-5.4-11.7-5.7-24-3.5-36.5
		c1.1-6.4,3-12.5,5.4-18.6c0.5-1.3,1.1-2.5,0.9-4c-0.3-0.4-0.3-0.8,0.2-1c3.1-0.5,1.1,1.5,0.9,2.1c-2.1,8.6-3.6,17.3-3.2,26.2
		c0.6,14.5,4.7,27.7,13.3,39.6c7,9.7,15.9,16.9,26.1,22.8c0.3,0.2,0.7,0.2,0.8,0.9C219.1,358.2,215.9,359.3,212.9,357.9z"/>
	<path class="st7" d="M419,266.4c1.5,6.7,4.8,12.8,5.8,19.6c2.7,17.8,0.1,34.1-12.3,48.1c-7.3,8.2-16.2,13.8-25.6,19
		c-0.5,0.3-1.2,0.2-1.8,0.3c6.8-4.9,13.2-10,18.6-16.5c7.5-8.8,12.6-18.7,15-29.8c2.9-13.3,2-26.6-1.3-39.8
		c-0.3-1.1-0.5-2.2-0.7-3.3C418,264.3,418.9,264.9,419,266.4z"/>
	<path class="st10" d="M355.7,137.7c-1,1.4-2.5,0.8-3.8,0.9c-7.4,0.1-14.7,0.3-22.1,0.2c-2.6,0-3.8,0.8-3.4,3.4
		c0.5,3.4-1.1,4.2-4.3,4.2c-15.3-0.1-30.7-0.1-46,0c-3.2,0-4.7-0.8-4.2-4.2c0.4-2.7-0.9-3.5-3.4-3.4c-7.7,0-15.5-0.1-23.2-0.2
		c-1.3,0-3.6,0.6-2.6-2.2c13,0.4,26.1,0.1,39.1,0.2c1.9,0,3.7-0.1,5.6,0.1c0.6,0.3,0.9,0.9,0.9,1.5c-0.3,1.6-1.8,3.4,0.5,4.9
		c2.5,2.9,5.8,2.7,8.8-0.6c0.7-0.3,1.4-0.2,2.1,0.1c2.9,3.1,6.9,3.3,9.4,0.5c1.7-1.4,0.9-3.1,0.5-4.7c0-0.7,0.3-1.2,0.8-1.6
		c14.3-0.4,28.6-0.1,42.9-0.2C354.3,136.5,355.4,136.4,355.7,137.7z"/>
	<path class="st11" d="M289,122c-1.1-1.1-1.1-2.4-1.1-3.8c0.2-10.2-0.3-20.4,0.4-30.6c0.2-3.6-0.5-7.2-0.8-10.8
		c2.7-3.8,6-7.1,9.2-10.5c2.3,3.3,1,7,1,10.5c-0.5,3-2.9,4.6-4.9,6.4c-1.8,1.8-2.5,3.7-2.7,6.2c-0.5,5.8,0.7,10.5,5.7,14
		c1.3,0.9,2.3,2.3,2.3,4.1c-0.3,4.5,0,9.1-0.2,13.6c-0.1,3.7-0.7,4.1-4.5,3.8C292,124,290.5,123,289,122z"/>
	<path class="st12" d="M241.5,94.9c3.4,0.1,4.8,3,4.9,5.3c0.5,9.6,5.2,15.6,13.9,19.1c0.2,0.1,0.3,0.4,0.4,0.6
		c-4-0.1-7.3-2.1-10.5-4.4c0.2,3.9,1.6,5.7,7.6,9.7c-5.7,0-11.1,0-16.6,0c-1.4,0-1.4-1.2-1.4-2.2c-0.3-8.2-0.5-16.4-0.8-24.6
		c-0.1-1.5-0.2-2.8,2.1-2.1C242.2,96.5,241.3,95.3,241.5,94.9z"/>
	<path class="st13" d="M338,119.6c1-1.6,2.8-1.4,4.2-2.3c6.3-3.8,8.9-9.8,9.8-16.7c0.4-3,1.8-4.4,4.4-5.1c2.5,0.3,3,1.7,2.8,4.2
		c-0.5,7.5-0.6,14.9-0.8,22.4c0,2.1-0.6,3.2-3,3.1c-4.8-0.1-9.6,0-15.2,0c4.1-2.5,7.2-5.1,8.4-10.2C345,117.4,342,119.8,338,119.6z"
		/>
	<path class="st14" d="M310.4,76.4c-0.1,13.6-0.2,27.3-0.3,40.9c0,1.7,0.3,3.5-1.1,4.9c-1.5,1-3,1.9-4.4,2.9
		c-5.7,0.4-6.1,0.1-6.1-5.4c0-3.7-0.2-7.5,0.2-11.2c0.6-3.2,3.3-4.9,5.4-7c4.4-4.6,5.2-12.6,1.6-17.9c-0.3-0.4-0.5-0.9-0.7-1.3
		c-0.2-0.7-0.3-1.5-0.4-2.2c-0.9-4.4,0.2-5.5,4.8-4.7C309.7,75.7,310.1,76.1,310.4,76.4z"/>
	<path class="st15" d="M489.1,348.7c-6-21.6-18.1-38.6-38.5-48.9c-0.5-0.3-1.7-0.2-1.2-1.4c24.6,6.9,36.3,25.7,44,48
		C495.1,351.2,490.7,348.1,489.1,348.7z"/>
	<path class="st16" d="M152.3,301.4c-0.4,1.1-1.4,1.3-2.3,1.8c-19.6,10.4-30.2,27.5-35.3,48.4c-6.7,0.4-6.8,0.4-4.4-5.8
		c4.9-12.5,11-24.3,21.5-33.2C137.9,307.5,144.8,303.8,152.3,301.4z"/>
	<path class="st17" d="M296.8,149.8c1.2,0,2.3,0,3.5,0c1.1,1.8,2.9,1.7,4.6,1.7c2.1,0,4.2,0.1,6.3-0.1c13.9-0.2,27.9-0.1,41.8-0.1
		c1.6,0,3.6-0.4,4.5,1.8c-1,1.5-2.5,0.9-3.8,0.9c-35.9,0-71.8,0-107.7,0c-1.4,0-3.4,0.8-4-1.6c1.7-1.4,3.8-1.1,5.7-1.1
		c10.9,0,21.8,0,32.7,0c2.1,0,4.2,0,6.3-0.4c1.2-0.5,2.4,0.2,3.6,0.4C292.7,151.7,295,151.7,296.8,149.8z"/>
	<path class="st18" d="M241.6,130.9c0.3-2.4,2.1-2,3.6-2c17.6,0,35.1,0,52.7-0.1c1.2,0,2.5,0,3.7-0.1c2.4,2.3,5.5,0.7,8.2,1.4
		c0.3,0.2,0.6,0.4,0.8,0.7c0.3,0.8,0.2,1.5-0.3,2.1c-7.5,0-15,0-22.5,0c-1.3-1.4-2.9-1.1-4.5-1.1c-12.3,0-24.5,0-36.8,0
		C244.8,132,243,132.3,241.6,130.9z"/>
	<path class="st19" d="M357.5,153.1c-1.2-0.9-2.6-0.5-4-0.5c-14.5-0.1-28.9-0.1-43.4-0.1c-0.7-0.8-1.1-1.6-0.6-2.7
		c15.2-0.1,30.4-0.2,45.5-0.2C357.3,149.7,359,150.4,357.5,153.1z"/>
	<path class="st20" d="M419,266.4c-0.7-0.8-1.5-1.6-2.2-2.3c1.1-0.9,1.7,0.3,2.4,0.7c9.3,5.5,19.1,8.6,30.1,7.6
		c6.9-0.6,13.9-1,20.8-1.5c0.4,0,0.9,0.2,1.3,0.4c0,0.1-0.1,0.2-0.1,0.3c-0.2,0.1-0.4,0.3-0.6,0.4c-6.9,1.8-13.8,3.3-20.9,3.6
		C438.4,276,428,273.5,419,266.4z"/>
	<path class="st21" d="M287.9,151.1c-0.4,1.7-1.7,1.5-2.9,1.5c-14.3,0-28.6-0.1-42.9-0.1c-0.5-2.6,1.2-2.9,3.1-2.9
		c14.2,0,28.4,0.1,42.6,0.1C288.2,150.2,288.2,150.6,287.9,151.1z"/>
	<path class="st22" d="M432.4,324.9c-0.1-0.7-0.3-1.7,0.5-1.9c1-0.3,1.5,0.7,2,1.3c4.7,5.2,7.5,11.3,9,18.1c0.3,1.5,0.6,2.7,2.5,1.8
		c-3.1,2.9-6.1,5.9-10.7,8.8c1.3-5.2,2-9.5,1.8-14c-0.1-3.6-1.2-7.1-2.1-10.5C435.2,327.1,434.8,325,432.4,324.9z"/>
	<path class="st23" d="M118.5,351.9c4.7-0.3,9.5-0.3,14.2,0.3c2.2,0.3,3-0.4,3-2.5c0-7,2.4-13.4,4.8-19.8c0.7-2,0.8-2,2-0.5
		c-1.3,1-1.5,2.5-1.4,4.1c0.1,5.8-0.7,11.7,0.5,17.5c0.3,1.3,0,2.3-1.6,2.3C132.8,353,125.6,353,118.5,351.9z"/>
	<path class="st24" d="M309.7,128.9c14.6,0,29.2,0,43.8,0c4,0,4.4,0.5,3.3,3.6c-1.5-0.7-3.2-0.5-4.8-0.5c-12.3,0-24.7,0-37,0
		c-1.6,0-3.3,0.3-4.6-1c-0.1-0.1-0.2-0.2-0.3-0.3C309.6,130.2,309.3,129.6,309.7,128.9z"/>
	<path class="st25" d="M310.4,131c14.5,0,29-0.1,43.6-0.1c1.3,0,2.6-0.1,2.8,1.7c-0.5,0.8-1.3,0.7-2,0.7c-14.8,0-29.7-0.1-44.5-0.1
		C310.3,132.4,310.4,131.7,310.4,131z"/>
	<path class="st26" d="M241.6,130.9c14.5,0,28.9,0,43.4-0.1c1.6,0,3.1,0,2.9,2.3c-14.6,0.1-29.1,0.1-43.7,0.2
		C242.6,133.2,241.4,132.8,241.6,130.9z"/>
	<path class="st27" d="M355.7,137.7c-0.8-0.6-1.8-0.7-2.8-0.7c-13.3,0-26.6-0.1-39.9-0.1c-1,0-2-0.2-2.8,0.7
		c-1.6,1.5-3.7,1.3-5.6,1.2c-4-0.3-8.1-0.6-12.1,0c-1.6,0.2-3.3,0.1-4.5-1.2c-1.3-1.1-2.9-0.7-4.3-0.7c-12.3-0.1-24.6,0-36.9-0.1
		c-1.3,0-2.7,0.4-4-0.5c1-0.6,2.2-0.4,3.3-0.4c35.4,0,70.8,0,106.2,0C353.5,136,355.8,134.9,355.7,137.7z"/>
	<path class="st28" d="M184.5,267.2c-0.1,0.4-0.1,0.7-0.2,1c-10.4,10.3-23.2,9.5-36.1,7.6c-3.7-0.5-7.6-0.2-11-2
		c5.7,0.3,11.4,0.5,17.1,1c10.1,0.9,19.2-1.8,27.8-6.8C182.8,267.7,183.5,266.9,184.5,267.2z"/>
	<path class="st29" d="M309.4,75.4c-0.5,0.1-0.9,0.3-1.4,0.4c-2.3,0.4-4.1,0.8-2.3,3.8c0.4,0.6,0.1,1.7,0.1,2.6
		c-3.9-0.7-5.6-3.5-7-6.8c-0.3-2.4-0.3-4.7-0.1-7.1c0.1-1.3-0.1-2.9,1.7-3.3C303.5,68.3,306.9,71.5,309.4,75.4z"/>
	<path class="st30" d="M299.8,107.6c0.1,4.1,0.5,8.2,0.1,12.2c-0.4,4.1,0.9,5.6,4.8,5.2c-3.7,0.5-7.5,0.5-11.2,0
		c2.5,0.1,3.5-0.8,3.5-3.6c0-4.9-0.8-9.8,0.6-14.7C298.6,106.4,299.2,106.9,299.8,107.6z"/>
	<path class="st31" d="M300.3,64.9c-1.1,3.7,0,7.5-0.6,11.2c-0.7,0.8-1.4,1.8-2.7,1.6c-0.1-3.8-0.2-7.6-0.3-11.4
		C297.8,65.6,297.9,62.2,300.3,64.9z"/>
	<path class="st32" d="M309.6,149.8c0.2,0.9,0.4,1.8,0.6,2.7c-2.6,0.1-5.2,0-7.8,0.2c-2.4,0.1-2.8-1-2.1-2.9
		C303.4,149.8,306.5,149.8,309.6,149.8z"/>
	<path class="st33" d="M287.9,151.1c0-0.4,0-0.9,0-1.3c3,0,6,0,9,0c-0.2,1,0.4,2.7-1.1,2.7C293.1,152.4,290,154.1,287.9,151.1z"/>
	<path class="st34" d="M309.7,128.9c0.1,0.6,0.7,1.1,0.3,1.8c-2.8,0.1-5.6,0.2-8.4,0.2c-0.7,0-1.6-0.1-1.5-1.1
		c0.1-0.4,0.9-0.7,1.4-1C304.3,128.6,307,129.8,309.7,128.9z"/>
	<path class="st35" d="M309.5,122.6c1.3,1,0.5,2.5,0.9,3.7c-0.9,0.2-1.9,0.3-3,0.5C307.5,124.8,309,123.9,309.5,122.6z"/>
	<path class="st11" d="M287.9,126.3c0.5-1-1-2.7,1.1-3.1c0.7,0.9,1.6,1.8,1.8,3.1C289.7,126.7,288.8,126.5,287.9,126.3z"/>
	<path class="st7" d="M382.3,355c1.6,1.2,3.4,0.1,5,0.6c-1.7,1.4-3.7,0.7-5.6,0.8c-0.5,0-1.4,0.2-1-0.9
		C381,354.9,381.7,354.9,382.3,355z"/>
	<path class="st36" d="M286.2,167.5c1.1,1.8-0.1,3.2-1,4.6c-2.6,4.1-5.4,8.1-8,12.1c-1.5,2.3-3.8,3.1-6.3,3.5
		c-3.7,0.6-7.3,1.2-11,1.9c-1.6,0.3-0.7-0.7-0.7-1.2l0,0c0.4-0.2-0.1,0.1,0.3-0.2c4.3-2.5,4.3-2.5,0.3-5.2c-3.5-2.3-6.4-4.8-5.1-9.6
		c2.1-5.2,6.8-6.1,11.6-6.5c3.9-0.3,7.7,0.4,11.5,1.1C280.7,168.6,283.5,169.1,286.2,167.5z"/>
	<path class="st37" d="M288,137.6c7.4,0,14.8,0,22.3,0.1c0,0.4,0.1,0.9,0.1,1.4c-0.8,1.3-1,2.7-0.6,4.1c0.7,1.7,0.7,2.9-1.7,2.8
		c-1.9-0.1-3.7-0.2-5.6,0c-2.2,0.2-2.8-0.9-2.8-2.8c-0.2-0.8,0.5-2.1-0.4-2.3c-1.3-0.4-1.1,1.3-1.7,2c-1,0.7,0.1,2.8-1.4,3
		c-2.5,0.2-5.1,0.2-7.6-0.2c-1.2-0.2-0.4-1.6-0.2-2.5c0.4-1.5,0.1-2.8-0.6-4.1C287.8,138.5,287.9,138,288,137.6z"/>
	<path class="st38" d="M310.8,137.6c4.3,0,7.5,0,10.7,0c2.2,0,3.5,1,3.7,3.3c0.3,2.5-1.1,3.8-3.3,4.1c-2.3,0.3-4.7,0.2-7.1,0.1
		c-1.6-0.1-2.7-0.9-2-2.7C313.5,140.6,313.4,139,310.8,137.6z"/>
	<path class="st39" d="M297.6,142.8c-0.7-1.3-0.9-2.7,0.5-3.6c0.9-0.6,2-0.2,2.6,0.6c1.1,1.5,0.3,2.5-1,3.3
		C299,143,298.3,142.9,297.6,142.8z"/>
	<path class="st40" d="M287.7,138.9c2.8,1,3.4,2.3,0.6,4.1C285,142.1,285,140.8,287.7,138.9z"/>
	<path class="st41" d="M309.7,143.1c-3-1.8-2.2-3.1,0.6-4.1C312.6,140.7,313.1,142.1,309.7,143.1z"/>
	<path class="st42" d="M297,77.8c1-0.4,1.4-1.8,2.7-1.6c2,2,4,4,6,6c5.3,4.6,2.9,10.8,2.8,16.2c0,1.8-3.2,3.5-4.9,5.3
		c-1.3,1.3-2.6,2.6-3.9,4c-1,0.2-1.4-0.6-2.2-0.9c-0.7-0.8-1.4-1.8-2.3-2.4c-5.2-3.5-6.5-8.2-6.2-14.3c0.2-4.1,2-6.3,4.6-8.7
		C294.9,80.2,295.9,78.9,297,77.8z"/>
	<path class="st43" d="M296.9,130c-2.8,1.3-5.6,1.1-8.4-0.1C291.3,129.3,294.1,129.1,296.9,130z"/>
	<path class="st44" d="M290.8,92c-2.1-7,3.7-9.7,7.3-13.5c1.1-1.2,1.8-0.2,2.5,0.5c2,1.9,3.9,3.9,5.9,5.7c1.8,1.6,0.9,3.7,1.3,5.6
		c1.7,7.1-3,10.9-7.5,14.9c-1,0.9-1.6,0.7-2.5-0.1c-2-2-4.1-4-6.1-6C289.6,96.9,291.2,94.3,290.8,92z"/>
	<path class="st45" d="M305.5,92c1.9,5.4-2.4,7.5-5.3,10.5c-0.4,0.4-0.9,0.8-1.6,0.5c-2.1-0.7-6-6.4-6.3-8.7
		c-0.6-5.1,0.7-9.2,4.9-12.4c1.5-1.2,2.3-1.3,3.6,0.1C303.7,84.8,307.3,87.2,305.5,92z"/>
	<path class="st46" d="M304.2,92.3c-0.2,1.5,0.7,3.4-0.5,4.8c-1.4,1.7-3,4.7-4.9,3.9c-2.5-1-5.4-3-5.1-6.6c0.3-3.4-1.5-7.4,2.8-9.6
		c1.2-0.6,1.7-3.2,3.4-1.9c1.8,1.3,4.1,2.6,4.2,5.3C304.3,89.6,304.2,90.8,304.2,92.3z"/>
	<path class="st47" d="M302.6,92.6c0.5,2.7-0.5,5.8-3.6,5.7c-2.6-0.1-4.2-3.1-3.7-6.3c0.1-0.8,0-1.8,0.2-2.6c0.6-2,1.9-4.1,3.8-3.9
		c1.7,0.2,3.3,2.1,3.2,4.4C302.6,90.7,302.6,91.4,302.6,92.6z"/>
</g>
<path class="st48" d="M225.2,182.6c0.2-1.2,0.6-0.7,1.1-0.2c5.3,4.9,15.9,5.6,21.8,1.4c0.7-0.5,1.3-1,2.1-1.8
	c0.1,9.4-2.2,17.9-5.9,26.2c3.9-0.9,7.3-2.6,10.8-4.8c0.2,9-2.5,17-6.4,25c9.3-5,19.1-8,29.3-10.3c-1.2,1.2-2.3,1.7-3.5,2.4
	c-1.1,0.6-2.3,1.2-3.5,1.7c-1.2,0.5-2.5,1-3.7,1.5c-1.2,0.5-2.4,0.9-3.7,1.4c1.9,3.4,4.7,5.6,8.1,7.1c1.7,0.8,3.5,1.3,5.3,1.6
	c0.8,0.1,0.9,0.4,1,1.2c1.1,7.6,4.9,13.3,11.4,16.9c0.3,0.1,0.5,0.3,0.9,0.4c0.1-1.3-0.4-2.4-0.1-3.8c5.6,4.7,11.3,4.7,17,0
	c0.2,1.4-0.2,2.5-0.2,3.9c2.4-1,4.3-2.4,6.1-4.2c3.4-3.4,5.5-7.6,6.2-12.5c0.2-1.2,0.5-1.7,1.7-1.9c4.6-0.9,8.7-2.8,11.7-6.7
	c0.1-0.1,0.2-0.3,0.3-0.4c0.9-1.3,0.9-1.3-0.6-1.8c-3.5-1.3-7-2.6-10.3-4.5c-0.8-0.5-1.7-0.9-2.3-1.7c9.9,2.1,19.6,5.1,28.8,10
	c0-0.6-0.3-1-0.5-1.4c-3.3-6.9-5.6-14.2-5.7-22c0-0.4-0.2-1,0.1-1.3c0.4-0.3,0.8,0.3,1.1,0.5c3,1.8,6.1,3.2,9.6,4.1
	c-3.7-8.3-6-16.8-6-25.9c0.2,0,0.3-0.1,0.3-0.1c5.4,5,11.6,5,18,3.1c2.1-0.6,4.1-1.6,5.7-3.2c1-1,0.7,0.4,1,0.7
	c0.1,2.7-1.1,4.7-3.1,6.3c0.3,0.3,0.6,0.1,0.9,0.2c0.4,0,0.9-0.1,1.1,0.5c0.1,0.5-0.3,0.8-0.7,1c-1.9,1-4,1.5-6.1,1.6
	c-2.6,0.1-5.1,0-7.7-0.7c-1.3-0.4-1.5-0.2-1.5,1.3c0.3,6.3,2.4,11.8,6.3,16.6c1.5,1.8,3.2,3.3,5,4.6c0.3,0.2,0.7,0.4,0.9,0.8
	c0.4,0.5,0.2,0.9-0.4,1.1c-0.5,0.2-1.1,0.1-1.7,0c-3.2-0.6-6.2-1.9-8.8-3.8c0.3,0.6,1.3,1.1,0.7,1.8c-0.5,0.7-1.3,0.1-1.9-0.2
	c-1.1-0.4-2.1-1.1-3.1-1.7c-1.2-0.7-1.1-0.7-1.4,0.6c-0.4,2.8,0,5.5,0.5,8.1c0.7,4.4,2.3,8.4,5,11.9c2.4,3.1,5.3,5.4,8.8,7
	c0.5,0.3,1.5,0.3,1.3,1.2c-0.2,0.9-1.1,0.5-1.8,0.4c-5-1.1-9.3-3.5-13.4-6.4c0.3,0.4,0.7,0.9,1,1.5c0.2,0.4,0.5,0.8,0.2,1.2
	c-0.4,0.5-0.9,0.2-1.3,0c-0.7-0.3-1.4-0.8-2-1.2c-3.7-2.4-7.1-5.3-10.3-8.4c-0.5-0.5-1-1.1-1.4-1.8c1.2,4,2.3,7.9,3,12
	c0.1,0.3,0.1,0.6,0.2,0.9c0,0.3,0,0.6-0.3,0.7c-0.3,0.2-0.6-0.1-0.8-0.3c-0.7-1.1-1.4-2.2-1.9-3.4c2.7,6.4,4.3,12.9,3.3,20
	c-0.4,2.4-1,4.6-2.2,6.7c-0.2,0.4-0.4,0.9-0.9,0.8c-0.5-0.1-0.5-0.7-0.5-1.1c-0.3-3.2-0.6-6.4-1.9-9.4c-1.8-4.3-4.4-7.9-8.2-10.5
	c-0.4-0.2-0.6-0.6-1.2-0.6c-0.3,0.5,0,0.9,0.1,1.4c0.6,4.1,0.8,8.2-0.1,12.3c-0.4,1.9-1.1,3.6-2.2,5.1c-0.3,0.5-0.7,1-1.3,0.9
	c-0.6-0.1-0.6-0.8-0.8-1.3c-0.7-2.3-1.3-4.6-2.4-6.6c-1-1.9-2.2-3.5-3.8-4.8c-0.4,0.4-0.4,0.8-0.4,1.1c-0.5,5.8-2,11.4-4.8,16.5
	c-0.4,0.6-0.6,1.7-1.5,1.4c-0.9-0.3-0.4-1.3-0.3-2c0.4-2.2,0.7-4.4,0.9-6.3c-0.2,3.3-1.7,6.6-3.4,9.7c-1.5,2.8-3.5,5.1-6.1,6.8
	c-1.3,0.9-1.7,0.9-2.9,0c-3.9-2.7-6.5-6.4-8.2-11c-0.7-2-1.4-4.1-1.5-6c0.4,2,0.5,4.4,1.1,6.7c0.2,0.7,0.6,1.6-0.1,2
	c-0.8,0.4-1.2-0.7-1.5-1.3c-2.1-3.7-3.5-7.7-4.3-11.9c-0.4-1.9-0.8-3.8-0.8-5.9c-1.2,0.9-2,1.9-2.8,2.9c-1.9,2.5-2.8,5.4-3.5,8.4
	c-0.1,0.6-0.1,1.4-0.9,1.5c-0.7,0.1-1.1-0.5-1.5-1.1c-1.5-2.2-2.2-4.7-2.6-7.4c-0.5-3.8,0-7.5,0.5-11.4c-3,2-5.5,4.3-7.4,7.3
	c-2.4,3.9-3.8,8.2-3.9,12.9c0,0.2,0,0.4,0,0.5c-0.1,0.4-0.1,0.9-0.6,1c-0.4,0.1-0.7-0.3-0.9-0.6c-0.6-1.2-1.2-2.4-1.5-3.7
	c-1.7-6-1.1-11.9,0.7-17.7c0.6-2,1.3-3.9,2.1-5.6c-0.4,1-1.1,2.1-1.7,3.2c-0.2,0.4-0.5,0.9-1,0.7c-0.6-0.2-0.5-0.8-0.4-1.3
	c0.3-1.7,0.7-3.4,1.2-5.1c0.6-2.2,1.1-4.4,1.8-6.6c-2.9,3.3-6.3,6-9.8,8.5c-1.2,0.9-2.4,1.6-3.6,2.3c-0.5,0.3-1.1,0.7-1.5,0.3
	c-0.5-0.5,0.1-1,0.4-1.5c0.3-0.5,0.6-0.9,0.8-1.3c-4.1,3-8.6,5.4-13.6,6.5c-0.1,0-0.3,0.1-0.4,0.1c-0.5,0.1-1.1,0.2-1.3-0.4
	c-0.2-0.6,0.5-0.8,0.9-1c3.7-1.9,7-4.3,9.6-7.7c2.3-3,3.6-6.5,4.5-10.2c0.8-3.2,0.8-6.5,0.7-9.8c0-1.2-0.1-1.2-1.1-0.6
	c-1.1,0.8-2.3,1.4-3.5,1.9c-0.5,0.2-1.2,0.7-1.6,0.1c-0.4-0.6,0.1-1.2,0.5-1.7c0.1-0.1,0.2-0.1,0.2-0.2c-2.7,2-5.8,3.3-9.1,3.9
	c-0.8,0.1-1.8,0.4-2.1-0.4c-0.4-0.8,0.7-1.2,1.3-1.6c6.4-4.6,10-11,11-18.9c0.1-0.8,0.3-1.5,0.3-2.3c0.1-1.3-0.1-1.5-1.3-1.2
	c-2.4,0.7-4.8,0.8-7.3,0.8c-2.2,0-4.3-0.6-6.4-1.4c-0.5-0.2-1.3-0.4-1.1-1.2c0.2-0.9,1-0.5,1.5-0.5c0.2,0,0.3,0.1,0.5-0.1
	C226,187.6,224.7,185.5,225.2,182.6z"/>
<path class="st49" d="M225.2,182.6c0.4,0.8,0.3,1.7,0.5,2.6c0.5,1.8,1.6,3,3.2,3.9c0.2,0.1,0.5,0.1,0.4,0.4c0,0.4-0.3,0.4-0.6,0.4
	c-0.8,0-1.6-0.1-2.6-0.1c0.9,0.9,1.8,1.2,2.7,1.5c4.1,1.4,8.2,1.1,12.3,0c1.5-0.4,1.7-0.4,1.5,1.3c-0.4,6.3-2.2,12.1-6.2,17
	c-1.9,2.4-4.3,4.2-7,6.1c2.6,0.3,4.6-0.6,6.7-1.4c2.1-0.8,3.9-2.1,5.8-3.5c-0.3,1.4-1.5,1.9-1.8,3.3c2-0.7,3.7-1.6,5.3-2.7
	c0.3-0.2,0.5-0.8,1.1-0.6c0.4,0.3,0.3,0.8,0.3,1.2c0.2,4.6-0.1,9.2-1.6,13.6c-2.2,6.3-6,10.9-11.6,14.1c-0.9,0.5-1.7,0.9-2.6,1.4
	c6-0.8,11.1-3.8,16-7.3c-0.5,1.4-1.5,2.5-2.1,3.8c5.9-3.1,10.8-7.3,15.5-12.2c-1.1,4.7-2.6,9.2-3.3,14c1-1.7,2-3.4,3.3-4.9
	c-1.5,4.7-3.4,9.2-3.8,14.2c-0.4,5.1,0.1,9.9,2.8,14.4c0.1-4.6,1.1-8.9,3.2-12.9c2.1-4.1,5.3-7,9.4-9.7c-0.5,2.3-0.8,4.3-0.9,6.4
	c-0.3,4.6-0.1,9.1,2.4,13.2c0.1,0.1,0.1,0.2,0.2,0.3c0.3,0.3,0.6,1,1.1,0.9c0.5-0.1,0.3-0.8,0.4-1.2c1-4.3,2.6-8.3,6-11.3
	c0.4-0.3,0.7-0.9,1.1-0.8c0.5,0.2,0.2,0.9,0.3,1.3c0.6,6.4,2.2,12.6,5.6,18.1c0.1,0.1,0.2,0.2,0.6,0.6c-0.7-3.5-1.4-6.7-1-9.9
	c0.8,4.2,2.1,8.3,4.4,11.9c1.6,2.5,3.6,4.5,6,6.1c0.7,0.4,1.1,0.2,1.6-0.1c3.8-2.4,6.2-6.1,8-10.3c1-2.3,1.5-4.6,1.9-7.1
	c0-0.2,0.2-0.5,0.4-1c0.4,3.6-0.4,6.8-0.8,10c1.9-2.9,3.3-6,4.3-9.4c1-3.4,1.4-6.8,1.8-10.4c2.2,1.5,3.7,3.4,4.9,5.7
	c1.2,2.2,1.9,4.6,2.5,7c0.1,0.3,0,0.7,0.4,0.8c0.3,0,0.5-0.3,0.7-0.5c2-2.5,2.7-5.6,2.9-8.7c0.1-3.3,0.2-6.6-0.7-9.8
	c-0.1-0.4-0.3-0.9,0.1-1.1c0.4-0.2,0.8,0.1,1.1,0.3c5.8,4,9.5,9.6,10.6,16.8c0.3,1.7,0.5,3.3,0.6,5c5.1-9.7,2.6-19.1-0.9-28.6
	c1,1.7,2.1,3.3,3.3,5.2c-1-5.2-2.3-10-3.7-14.9c4.5,5.1,9.7,9.3,15.8,12.5c-0.9-1.3-1.7-2.5-2.5-3.8c0.1-0.1,0.1-0.2,0.2-0.3
	c4.8,3.8,10,6.8,16,7.7c0.1-0.6-0.3-0.6-0.6-0.6c-3-1.1-5.6-3-7.8-5.3c-4.1-4.1-6.2-9.3-7.1-15c-0.4-2.9-0.6-5.8-0.3-8.7
	c0.1-0.7,0.1-1.2,0.9-0.5c1.5,1.2,3.3,2,5,2.8c0.2,0.1,0.5,0.3,0.8,0c-0.5-1-1.5-1.6-2-3.1c3.8,2.8,7.6,4.8,12.2,4.7
	c-0.8-0.6-1.7-1.2-2.5-1.8c-5.6-4.5-8.8-10.4-10-17.7c-0.2-1.3-0.2-2.6-0.3-3.9c0-0.9,0.2-1.3,1.1-1c2.8,0.9,5.6,1.1,8.5,0.9
	c2.3-0.1,4.5-0.8,6.5-2.2c-0.7,0-1.4,0-2.1,0c-0.3,0-0.7,0.1-0.7-0.3c0-0.3,0.3-0.4,0.5-0.5c1.5-0.9,2.4-2.2,3-3.9
	c0.3-0.7-0.1-1.7,0.6-2.3c0.7,1.6,1.1,3.3,1.1,5.1c0,2.5-1.1,4.3-3.2,5.4c-3.2,1.7-6.5,1.6-10,1.3c-0.4,0-0.8-0.1-1.1-0.2
	c-1.8-0.3-1.8-0.3-1.3,1.6c2,7.4,5.8,13.5,12.4,17.4c2,1.2,4.2,2,6.7,2.6c-4,2.5-8.1,3.4-12.5,3.1c-4.4-0.4-8.2-2.2-11.6-5
	c-0.6,4.3,1.7,13.5,6.8,18.5c3.4,3.3,8.4,6.4,17.9,6.8c-0.3,0.7-0.9,1.1-1.5,1.5c-6.5,4.9-13.4,5.2-20.7,2.4c-5.1-2-9.4-5.2-13.4-9
	c-0.4-0.3-0.7-0.6-1.3-1.2c1.4,3.6,2.4,6.9,3.2,10.4c1.4,6,2,12,0.7,18.1c-1.1,5.4-3.8,9.6-8.3,12.6c-0.4,0.3-0.8,0.6-1.5,0.7
	c1.2-7.5,1.2-14.9-2-22c-1-2.2-2.3-4.1-4.2-6.1c1.3,6.4,0.7,12.4-2,17.9c-1.6,3.2-3.7,5.9-6.6,8.3c1.6-7.3,1.3-14-3.1-20.5
	c-0.1,2.4-0.2,4.4-0.5,6.4c-1.8,10.8-7,18.9-16.8,23.3c-0.7,0.3-1.3,0.3-2,0c-11.7-5.6-16.6-15.7-17.1-28.6c0-0.2,0-0.4,0-0.7
	c0,0,0-0.1-0.1-0.3c-2.2,2.9-3.3,6.2-3.8,9.7c-0.5,3.5-0.2,7,0.5,10.4c-7.6-6.8-10.5-15.4-8.6-25.7c-7.2,8-7.5,17.7-6.1,28
	c-3.1-1.6-5.5-3.8-7.2-6.8c-3.1-5.3-3.6-11.1-3.1-17.1c0.5-5.9,2-11.4,4.1-16.9c0.1-0.2,0.1-0.4,0.3-1c-2.1,1.9-3.9,3.6-5.9,5.1
	c-4.5,3.3-9.2,5.9-14.8,6.6c-5.8,0.7-11-0.8-15.5-4.8c-0.2-0.2-0.4-0.3-0.4-0.7c7.5-0.3,14.4-2.3,19.4-8.7
	c3.7-4.8,5.2-10.4,5.5-16.8c-3.6,2.9-7.5,4.8-11.8,5.2c-4.4,0.4-8.5-0.6-12.5-3c2.4-0.8,4.6-1.4,6.6-2.6c7-4.1,10.8-10.7,12.7-18.6
	c0.3-1-0.3-0.7-0.9-0.6c-3.2,0.6-6.4,0.8-9.6-0.1c-4.5-1.2-6.3-4.4-5.1-9C224.5,184.3,224.7,183.4,225.2,182.6z"/>
<path class="st50" d="M352.8,171.6c-0.5,1.8-0.9,3.6-1.5,5.4c-0.2,0.6-0.8,0.8-1.4,0.5c-3.3-1.7-6.7-3.1-10-4.6
	c-1.6-0.8-3.1-2.2-4.9-2.5c-13-2-25.8-4.8-39.1-4.3c-9.4,0.4-18.7,1.3-27.8,3.6c-0.7,0.2-1.3,0.3-2,0.3c-2.3-0.1-4.6,0.2-6.6,1.5
	c-3.4,2.3-7.3,3.4-10.8,5.3c-2.6,1.4-2.6,1.3-3.4-1.6c-0.2-0.9-0.4-1.8-0.7-2.7c-0.5-1.3,0-2,1.2-2.5c5.7-2.5,11.6-4.5,17.6-6
	c9.9-2.5,19.9-3.8,30-4.1c11.2-0.4,22.3,0.4,33.3,2.5c8.5,1.6,16.8,4.1,24.7,7.6C352.2,170.4,352.9,170.7,352.8,171.6z"/>
<path class="st51" d="M290.3,170.8c9.7-0.6,19.4-0.2,29,1.5c-3.2,1.7-6.3,3.8-9.8,4.7c-1,0.3-2,0.4-3.1,0.1c-2.1-0.5-2.7-1.7-2-3.8
	c0.1-0.4,0.3-0.8,0.4-1.1c-1.5,0.4-2.8,1.9-3.3,4.1c-0.6,2.5-0.2,4.7,1.9,6.4c0.3,0.2,0.5,0.4,0.5,0.7c1.1,4.4,3.4,8,7.4,10.5
	c-1.2,0.2-2.2,0-3.1-0.1c-0.4,0-0.9-0.2-0.7,0.5c1.3,4.2,1.1,8.5-0.1,13c1.3-1.4,2.1-2.8,2.8-4.2c0.4-0.8,0.6-0.7,1.1-0.1
	c1,1.1,2.1,2.1,3.1,3.3c1,1.2,1.7,2.5,1.7,4.1c0,2.6-1.7,4.3-4.2,4.2c-0.7,0-1.4-0.2-1.6-1c-0.2-0.9,0.5-1.3,1.1-1.6
	c0.4-0.2,0.8-0.3,1.3-0.5c-2.3-1.4-4.2-0.6-5.9,0.9c-1.3,1.1-2.5,2.5-3.7,3.7c-3.4,3.6-5.4,3.7-8.9,0c-1-1.1-2-2.1-3-3.1
	c-1.2-1.2-2.6-2-4.3-2.2c0.5-1,1.3-0.7,2-0.5c1.4,0.3,2.5,1,3.7,1.8c1.2,0.8,2.4,1.7,3.7,2.4c0.4,0.2,0.9,0.5,1.3,0.2
	c0.4-0.3,0.1-0.9,0.1-1.3c-0.6-4.1-1-8.2-0.5-12.3c0.1-1-0.1-1.8-0.8-2.6c-0.5-0.7-1.1-1.3-1.5-2.2c-0.1-0.2-0.2-0.5,0-0.8
	c0.2-0.3,0.5-0.1,0.8,0c0.1,0.1,0.2,0.1,0.3,0.2c1.4,1.2,3,2.3,4.3,3.6c-0.9-0.8-1.5-1.9-2.2-2.8c-0.4-0.6-0.6-1.2-0.5-1.9
	c0.4-4.1,0.8-8.3,1-12.4c0.2-2.9,0-5.7-0.3-8.6c-0.1-0.9-0.5-1.4-1.4-1.4c-1.8-0.1-3.5-0.4-5.3-0.4
	C291.3,171.5,290.6,171.7,290.3,170.8z"/>
<path class="st52" d="M290.3,170.8c1.7,0.6,3.5,0.2,5.2,0.4c3.9,0.5,3.3-0.2,3.6,3.8c0.5,5.8-0.1,11.5-0.7,17.3
	c-0.2,1.9-0.3,3.8,1.3,5.3c0.8,0.8,1.4,1.9,2,3c-2.1-1.7-4.2-3.5-6.5-5.3c0.4,1.1,1,1.8,1.6,2.5c0.9,1,1.1,2.2,1,3.5
	c-0.5,4.3-0.1,8.6,0.7,12.8c0.2,1.2-0.3,1.3-1.1,1.1c-1.8-0.4-3.1-1.7-4.6-2.7c-0.9-0.6-1.9-1.2-2.9-1.7c-0.9-0.4-1.9-0.6-2.9-0.2
	c-0.7,0.2-1.5,0.1-2.1,0.8c0.5,0.3,1.1,0.5,1.6,0.9c0.9,0.7,0.8,1.7-0.3,2.1c-1.1,0.4-2.1,0.2-3-0.4c-2.1-2.2-0.5-7.1,2.2-8.3
	c1.5-0.6,2.7-0.2,3.7,0.9c0.6,0.3,0.5-0.1,0.4-0.5c-0.3-1.6-0.6-3.1-0.7-4.8c-0.1-2.3,0.1-4.5,0.8-6.6c0.2-0.8,0-1-0.7-0.9
	c-0.9,0.1-1.8,0.3-2.8,0.1c0.3-0.7,0.9-0.8,1.4-1.1c2.8-2.3,4.7-5.2,5.6-8.8c0.2-0.6,0.4-1,0.9-1.4c3.2-2.7,2.4-8.3-1.4-10.2
	c-0.2,0.4,0.1,0.6,0.2,0.9c0.7,2.5-0.3,4-2.8,4.1c-2,0.1-3.7-0.6-5.4-1.4c-2.2-1-4.4-2.2-6.5-3.5
	C282.2,171.4,286.2,170.9,290.3,170.8z"/>
<path class="st53" d="M270.3,192.6c1.5,2.8,3.7,4.7,6.7,5.7c-2.5,1.4-6.3-0.6-8.7-4.2c-0.8,1.4-0.5,4.3,0.7,6c1.7,2.6,4.2,3.8,7,4.4
	c0.6,1.3,0.5,2.5-0.5,3.7c-1.1,1.3-2.5,2-4,2.5c-2.5,0.9-4.9,2-7.2,3.1c-1,0.5-2,1.1-2.7,1.9c-0.3,0.5-0.8,0.6-1.4,0.9
	c0.6-2.1,1.4-3.9,1.8-5.9c1.1-5.1,0.8-10.1-0.7-15.1c-0.5-1.6-0.5-1.6-1.8-0.7c-1,0.7-2.1,1.4-3.5,1.7c0.8-2.6,0.5-5.2,0.6-7.8
	c0.4-0.2,0.6,0.2,0.8,0.4c1.6,1.7,5.9,2.6,8,1.6c0.1-0.1,0.2-0.3,0.2-0.4c0.1-0.7-0.2-1.4,0.1-2.1c0.4-0.9,0.9-1.7,1.9-1.7
	c1,0,1.3,0.9,1.5,1.7c0.2,0.8,0.2,1.7,0.4,2.5C269.5,191.5,269.7,192.2,270.3,192.6z"/>
<path class="st54" d="M331.6,190.4c0,0.6,0.5,0.5,0.8,0.6c3,0.4,5.7,0.2,8.1-2.5c0.1,2.8-0.2,5.4,0.7,8.2c-1.5-0.5-2.7-1.1-3.8-1.9
	c-0.8-0.6-1.2-0.6-1.5,0.5c-1,3.5-1.5,7-1.4,10.7c0.2,3.6,1,7.1,2.4,10.5c-0.6-0.1-1-0.2-1.3-0.7c-1.6-1.5-3.5-2.3-5.4-3.2
	c-1.7-0.8-3.5-1.4-5.3-2.1c-1.3-0.6-2.6-1.1-3.5-2.4c-1-1.3-1.1-2.6-0.3-3.6c2.5-0.7,4.9-1.6,6.5-3.9c1.4-2,1.7-4.2,1.1-7
	c-0.9,2-1.9,3.5-3.6,4.3c-1.6,0.8-3.3,1.2-5.1,0.7c2.5-1.1,4.6-2.7,6.2-5c1-1.1,1.3-2.6,1.5-4.1c0.1-0.6,0.2-1.2,0.5-1.7
	c0.4-0.7,0.9-1.1,1.7-1c0.7,0.1,1.2,0.6,1.5,1.4C331.6,188.8,331.6,189.6,331.6,190.4z"/>
<path class="st55" d="M324.7,226.5c0.6,0.8-0.3,0.6-0.5,0.7c-5.3,1.8-10.6,1.8-15.9-0.2c-2.4-0.9-4.7-1.9-7.2-2.4
	c-3.2-0.6-6.2,0.1-9.2,1.3c-2.5,1-5.1,2-7.8,2.4c-4,0.6-8,0-11.8-1.4c-0.1,0-0.2-0.2-0.3-0.3c0.5-0.4,1.1,0.1,1.5-0.4
	c1.9-0.3,3.6-0.9,5.4-1.4c2.2-0.6,4.4-1.4,6.5-2.6c0.3-0.1,0.5-0.3,0.8-0.4c0.3-0.1,0.5-0.1,0.7,0.1c0.2,0.3,0.1,0.6,0,0.9
	c-0.3,0.6-0.9,1.1-1.4,1.6c3-0.7,5.9-1.8,9-2c0.3,0,0.5-0.1,0.8-0.1c5.1,0.5,10.3-0.3,15.3,1.8c0.3,0.1,0.6,0.3,1,0.2
	c-0.3-0.5-0.9-0.9-1.2-1.4c-0.2-0.3-0.3-0.7-0.1-1c0.2-0.3,0.6-0.2,0.8-0.1c0.7,0.3,1.4,0.6,2.1,0.9
	C317,224.6,320.9,225.4,324.7,226.5z"/>
<path class="st48" d="M324.7,226.5c-1.6,0.2-3-0.4-4.5-0.7c-3.3-0.8-6.4-2.1-9.7-3.8c0.6,1.4,1.7,2,2.6,3.2c-5-0.8-9.5-3.2-14.4-2
	c-5-1.2-9.5,1.2-14.5,2.1c1-1.2,2.1-1.9,2.9-3.4c-2.6,1.5-5.1,2.5-7.6,3.3c-1.6,0.5-3.3,0.9-5,1.3c-0.4,0.1-0.7,0-1-0.2
	c4.9-2.1,9.3-5.4,14.1-7.7c0.4-0.2,0.8-0.3,1.2-0.5c1.2-0.5,2.1-0.4,3.1,0.8c4.2,4.9,9.5,4.8,13.6-0.2c0.8-0.9,1.5-1.1,2.4-0.7
	c2.5,0.8,4.8,2.3,7,3.6C318.2,223.3,321.3,225.2,324.7,226.5z"/>
<path class="st56" d="M287,235.8c1.9,1.5,3.9,2.1,6.3,1.1c3.6-1.4,7.1-1.4,10.7,0c2.3,0.9,4.4,0.5,6.3-1.1c0.9-0.7,1.8-1.3,3-1.6
	c0.3-0.1,0.8-0.4,0.8,0.4c0.1,3.2-0.6,6.2-2.7,8.9c-0.4-2-0.3-3.9-1.3-5.6c-2.5,4.3-5.1,8.2-10.2,9c-1.4,0.1-1.6,0-1.7-1.4
	c-0.1-2,0.2-2.5,1.7-3.2c-0.7,0.3-1.5,0.4-2.4,0.4c-0.3,0-0.7-0.1-0.8-0.5c-0.1-0.4,0.3-0.5,0.5-0.6c0.5-0.3,0.9-0.6,1-1.3
	c0.3-2.3,0-2.6-2.2-2.4c-1.4,0.1-2.8,0.5-4.2,0.8c-1.8,0.4-3.3-0.4-4.5-1.7C286.9,236.8,286.3,236.4,287,235.8z"/>
<path class="st57" d="M287,235.8c0.4,1.5,2.8,2.8,4.6,2.4c1.6-0.3,3.1-0.6,4.7-0.8c2.2-0.3,2.2-0.2,2.4,2.1c0.1,1.4-0.2,2.4-1.8,2.7
	c1.5,0.2,2.9-0.2,4.5-0.7c-0.7,0.9-1.5,1.2-2.1,1.6c-1.3,0.8-0.5,2.1-0.6,3.2c-0.1,0.9,0.7,0.5,1.1,0.6c-3,0.6-5.5-0.8-7.8-2.6
	c-1.8-1.5-3.1-3.4-4.1-5.4c-0.1-0.3-0.3-0.8-0.7-0.6c-0.2,0.1-0.3,0.5-0.4,0.8c-0.4,1.4-0.6,2.8-0.7,4.3c-0.7-0.4-1-1-1.3-1.5
	c-1.1-2.1-1.5-4.3-1.6-6.7c0-1.1,0.4-1.3,1.2-0.9C285.4,234.7,286.3,235.1,287,235.8z"/>
<path class="st58" d="M261,186.3c-1.9,0-3.5-1.9-3.7-4.2c-0.1-2.7,1.6-5.5,4.3-6.8c2.5-1.2,5-1.2,7.5-0.4c3.5,1.1,6.6,3.2,9.7,5.2
	c1.5,0.9,2.9,1.9,4.5,2.7c1.3,0.6,2.6,1.1,4.1,0.9c0.5-0.1,0.7,0,0.3,0.5c-0.9,1-2,1.3-3.3,1.1c-1.8-0.2-3.4-0.9-5-1.8
	c-1.7-1-3.4-1.9-5-3.1c-0.9-0.7-2-1.1-3-1.5c-0.6-0.3-1.2-0.6-1.9,0.1c-0.4,0.5-1,0-1.4-0.2c-1.9-0.7-3.9-0.8-5.6,0.5
	c-1.9,1.4-2.4,3.2-1.7,5.6C260.8,185.4,261,185.8,261,186.3z"/>
<path class="st58" d="M311.7,183.7c3.2-0.9,5.8-2.9,8.5-4.6c2.8-1.8,5.6-3.6,8.9-4.4c3.7-0.9,7-0.1,9.5,3c2,2.5,1.9,5.9-0.2,7.7
	c-0.5,0.4-1.1,0.7-1.7,0.9c-0.7-0.3-0.3-0.8-0.2-1.1c1-2.2,0.3-4-1.4-5.5c-1.8-1.6-3.8-1.7-5.9-0.9c-0.6,0.2-1.1,0.5-1.8-0.1
	c-0.5-0.5-1.1-0.1-1.7,0.2c-2.1,1-4,2.2-6,3.5c-2.2,1.4-4.5,2.7-7.1,2.9c-1.3,0.1-2.3-0.2-3-1.4C310.5,183.6,311.2,184,311.7,183.7z
	"/>
<path class="st59" d="M311.7,183.7c-0.4,0.4-1,0.2-1.7,0.4c0.9,0.8,1.7,1,2.7,0.9c2.5-0.3,4.6-1.5,6.7-2.8c2.2-1.4,4.4-2.9,6.9-3.9
	c0.5-0.2,1.5-1.2,1.8,0.5c0.1,0.4,0.5-0.1,0.8-0.3c1.9-0.9,3.8-0.9,5.5,0.1c1.8,1.1,3.1,2.6,3.1,5c0,1-0.8,1.7-0.7,2.7
	c-0.3,0.3-0.4,0.2-0.5-0.1c-2.2-4.9-5.9-6.4-10.8-4.5c-2.3,0.9-4.4,2.4-6.6,3.6c-1.2,0.6-2.4,1.2-3.7,1.5c-2.4,0.5-4.5-0.6-5.6-3
	C310.3,183.7,311,183.7,311.7,183.7z"/>
<path class="st59" d="M261,186.3c-1.3-1.5-1.4-3.3-0.7-5c0.7-1.8,2.2-3,4.1-3.2c1.5-0.2,3.1-0.4,4.4,0.8c0.2,0.2,0.6,0.3,0.5-0.2
	c-0.4-1.4,0.7-0.6,0.9-0.6c1.6,0.5,3.1,1.2,4.5,2.1c2.2,1.5,4.5,2.9,6.9,4c2,0.9,3.9,0.9,5.8,0c-1.1,2-2.9,2.9-5,2.6
	c-1.9-0.3-3.6-1.3-5.3-2.3c-2.3-1.3-4.6-2.8-7.3-3.3c-2.8-0.5-5.4,0.1-7.5,2.2C261.7,184.2,261.5,185.3,261,186.3z"/>
<path class="st60" d="M305,233.4c-0.5-0.1-1.2-0.3-1.8-0.5c-3-1.2-6-1.1-9,0c-1.2,0.5-2.5,0.8-3.7-0.1c-0.6-0.4-0.6-0.7,0.1-1.1
	c5.4-2.8,10.8-2.8,16.2,0c0.8,0.4,0.7,0.7,0.1,1.2C306.3,233.2,305.8,233.4,305,233.4z"/>
<path class="st61" d="M321.2,204.4c-0.4,2.2,0.3,3.7,2.2,4.7c2.3,1.3,4.9,1.9,7.2,3.1c1.6,0.8,3.2,1.7,4.6,2.9
	c0.2,0.2,0.6,0.3,0.4,0.7c-1.7-1-3.4-1.9-5.3-2.7c-2.8-1.1-5.7-1.9-8.7-2.1c-0.8-0.1-1.1-0.2-1.1-1.1c0-1.8-0.4-3.6-1.3-5.5
	C320.1,204.4,320.7,204.4,321.2,204.4z"/>
<path class="st62" d="M261.5,215.7c0.4-1.2,1.5-1.6,2.4-2.1c2.2-1.3,4.6-2.4,7-3.3c0.9-0.3,1.8-0.8,2.7-1.2c1.9-0.9,2.6-2.6,2.4-4.7
	c1.6,0.2,1.6,0.2,1.1,1.7c-0.4,1.3-0.6,2.6-0.6,4c0,0.7-0.2,0.9-0.9,1C270.5,211.4,265.8,213.1,261.5,215.7z"/>
<path class="st63" d="M282,191.6c-1.5,2.1-3.4,2.7-5.3,2c-2-0.8-3.2-3.1-3-6.2C276.2,189.5,279,190.7,282,191.6z"/>
<path class="st64" d="M315.4,191.6c1.4-0.5,2.9-0.9,4.2-1.6c1.4-0.7,2.6-1.5,3.8-2.5c0.6,2.2-0.6,5-2.5,5.9
	C318.9,194.4,316.7,193.6,315.4,191.6z"/>
<path class="st65" d="M289.1,206.5c-0.1,0-0.2,0.1-0.2,0.1c-3.2-1.6-5.8,0-6.2,3.9c-0.1,1.2,0.3,2.3,0.5,3.4
	c-1.6-0.9-2.3-2.8-1.9-4.8c0.5-1.9,1.7-3.3,3-4.6c0.7-0.8,1.5-1.9,2.3-2c0.7,0,1,1.6,1.6,2.4C288.4,205.4,288.7,206,289.1,206.5z"/>
<path class="st66" d="M331.6,190.4c-0.4-0.7-0.2-1.5-0.5-2.2c-0.3-0.7-0.7-1.3-1.5-1.2c-0.7,0-1,0.6-1.1,1.3c-0.4,1.4-0.6,2.8-1.3,4
	c-0.2,0.4-0.4,0.9-0.9,1.1c1.1-2.1,1.4-4.3,1.1-6.6c-0.1-1,0.2-1.3,1.1-1.3C331,185.4,332.5,187.7,331.6,190.4z"/>
<path class="st67" d="M270.3,192.6c0,0,0,0.1,0,0.1s0,0.1,0,0.1c-0.5-0.5-0.7-1.2-0.9-1.8c-0.3-1-0.5-2.1-0.9-3.1
	c-0.4-1.1-1.1-1.3-1.9-0.4c-0.5,0.5-0.7,1.1-0.8,1.8c-0.1,0.4,0.1,0.8-0.3,1.1c-0.8-2.8,0.5-4.9,3-4.9c0.9,0,1.4,0.2,1.2,1.4
	C269.3,188.8,269.2,190.8,270.3,192.6z"/>
<path class="st68" d="M299.3,162.4c5,0.2,10.4,0.4,15.8,1c5.7,0.6,11.4,1.5,17,2.9c5.8,1.4,11.5,3.2,17,5.6c0.8,0.4,1,0.9,0.7,1.7
	c-0.2,0.6-0.4,0.8-1,0.4c-2-1-4-2-6.1-2.8c-1.2-0.4-2.2-1.2-3.3-1.9c-2.4-1.5-5-1.9-7.6-2.1c-3.2-0.2-6.3-1.3-9.5-1.8
	c-4.3-0.7-8.5-1.2-12.9-1.6c-5.1-0.4-10.3-0.6-15.4-0.5c-0.3,0-0.8,0.2-0.8-0.3c0-0.5,0.4-0.4,0.8-0.5
	C295.5,162.2,297.2,162.5,299.3,162.4z"/>
<path class="st69" d="M247.6,173.3c-0.2-1,0.3-1.3,0.9-1.5c3.4-1.4,6.9-2.7,10.4-3.7c0.3-0.1,0.7-0.4,0.9,0.1
	c0.1,0.4-0.4,0.4-0.6,0.5c-3.4,2.2-7.2,3.5-10.8,5.3C247.4,174.5,247.7,173.5,247.6,173.3z"/>
<path class="st70" d="M271.5,206.3c0,0.4-0.3,0.6-0.5,0.8c-0.8,0.7-1.9,0.9-2.7,1.4c-0.1,0.1-0.4,0.2-0.4,0c-0.1-0.1,0-0.4,0-0.5
	c0.6-0.9,1.2-2,2.3-2.4C270.9,205.3,271.5,205.6,271.5,206.3z"/>
<path class="st71" d="M329.6,208.9c-1-0.5-2.1-1-3.1-1.6c-0.4-0.2-1-0.6-0.6-1.3c0.4-0.6,1-0.7,1.6-0.3
	C328.6,206.4,329.2,207.4,329.6,208.9z"/>
<path class="st6" d="M224.5,269c3.4,0.5,3.4,2.9,3.9,5c2,8.5,4.8,16.8,9,24.7c4.4,8.2,10.3,15.5,16.5,22.7
	c6.2,7.1,13.1,13.8,21.1,19.4c5.3,3.8,11.1,7.1,17.7,9.3c5.4,1.8,10,0.3,14.6-1.8c12.1-5.7,22.2-13.6,31.1-22.5
	c7-7,12.9-14.8,17.9-23c3.9-6.5,6.7-13.3,8.9-20.3c1.1-3.6,2.2-7.3,2.9-11c0.1-0.8,0.4-1.7,1.6-1.8c1.9-0.1,1.4,1.2,1.2,1.8
	c-2.4,8.3-4.6,16.6-8.6,24.5c-3.9,7.8-8.5,15.2-14,22.2c-6.5,8.3-13.9,15.8-22.3,22.5c-5.1,4.1-10.4,8.1-16.3,11.4
	c-2.3,1.3-4.5,2.8-6.9,4c-0.2,0.1-0.4,0.1-0.6,0.2c-3,2.4-6.1,2.4-9.3,0.3c-1.7-1.4-3.8-2.2-5.6-3.3c-14.1-8.2-26.2-18.3-36.3-30
	c-9.5-11-16.9-23-21.8-36.1c-1.9-5.3-3.8-10.6-4.9-16C224.2,270.5,224,269.7,224.5,269z"/>
<path class="st0" d="M297.9,326.7c-1.9,0.2-3.8,0.1-5.5-0.7c0-0.2,0.6-0.3,0.4-0.4c-5.2-2.4-7.9-6.3-10.1-10.9
	c-1.9-4-0.9-7.7-0.3-11.6c0-0.2,0.2-0.4,0.4-0.6c1.3,0.7,2.5,1.4,3.8,2.1c5.6,2.8,11.7,3.1,17.9,1.8c1.5-0.3,3-0.8,4.5-1.3
	c2.3-0.7,3.2-0.3,3.5,1.8c0.4,2.6,0.1,5.3-0.9,7.8c-2,4.9-5.4,8.7-11,10.9C299.7,326.2,298.7,326.2,297.9,326.7z"/>
<path class="st72" d="M302.9,356.2c0.6-1.2,2.1-1.5,3.1-2.1c5.2-3.3,10.3-6.6,15.3-10.3c6.9-5,13.2-10.6,18.9-16.6
	c4.8-5.1,9.1-10.7,13.1-16.4c3-4.3,5.4-8.8,7.8-13.2c1.9-3.6,3.4-7.4,4.7-11.2c1.3-3.9,2.5-7.9,3.9-11.8c0.4-1.1,0.2-2.2,0.9-3.3
	c0.3-0.4,0.3-1.3-0.8-1.6c2.5-1.4,4.3-3.5,7-5.2c-0.1,3.2-1.3,5.7-2.1,8.3c-1.4,4-3,7.8-4.6,11.7c-2,4.6-4,9.2-6.4,13.7
	c-2.1,3.9-4.5,7.6-6.8,11.4c-3.3,5.5-7.5,10.5-11.5,15.5c-1.9,2.3-4.3,4.5-6.5,6.7c-3.5,3.7-7.5,6.9-11.5,10.2
	c-5.2,4.2-11,7.7-17.1,10.9c-1.9,1-3.7,2.2-5.6,3.2C303.9,356.2,303.4,356.3,302.9,356.2z"/>
<path class="st16" d="M224.5,269c3.4,16.9,10.4,32.5,21.2,46.9c12.1,16.2,27.8,29.2,46.3,39.8c0.4,0.2,1.3,0.3,1,1.1
	c-25.2-11.5-43-29.1-56.2-50.6c-7.9-13-13.6-26.7-17.9-40.8c-0.1-0.4-0.4-0.8,0-1.4C220.5,265.9,223,267,224.5,269z"/>
<path class="st6" d="M330.4,315.8c0.8-4,1.1-8,0.1-12.1c-0.5-2.1-1.2-4-2.4-5.9c-1.1-1.8-0.9-2,1.5-2.2c0.3,0,0.5,0,0.8,0
	c5.5-1.3,10.9-2.8,15.3-6.1c1.1-0.8,1.7-0.5,2,0.7c0.1,0.6,0.1,1.2-0.2,1.8c-2.7,5.1-4.9,10.4-8.1,15.3c-1.7,2.6-2.9,5.4-4.9,7.9
	c-1.3,1.7-2.7,3.3-4,5l0,0c-1.7,0.1-1.2-0.7-0.9-1.5c0-0.2,0.1-0.4,0.1-0.6C330.2,317.4,330,316.6,330.4,315.8z"/>
<path class="st6" d="M264.4,319.5c-1.2-0.7-1.8-1.7-2.5-2.7c-4.3-5.9-8.3-12-11.8-18.4c-2.6-4.6-5.1-9.3-7.4-14
	c-0.4-0.7-1-1.5-0.5-2.3c2.4,2.1,4.8,4.3,7.2,6.4c2.2,1.9,4.8,3.4,7.1,5.1c2,1.5,4.3,2.4,6.7,3.1c2,0.5,2.4,1,1.8,2.7
	c-1,3-1.8,6.1-1.8,9.3c-0.1,3.1,0.6,6,2,8.9C265.9,319,265.8,319.2,264.4,319.5z"/>
<path class="st38" d="M297.9,326.7c1.3-1.4,3.4-1.6,5.1-2.6c5.8-3.4,8.5-8.1,9.1-14c0.1-1.2,0.1-2.4-0.1-3.6c-0.3-1.2-0.8-1.5-2.3-1
	c-5.3,2-10.9,2.7-16.7,1.6c-2.2-0.4-4.6-0.8-6.3-2.5c3.2,1,6.4,2,9.8,2.1c6.8,0.3,12.7-1.6,17.9-5.3c1.4-1,1.7-0.8,2.1,0.7
	c1.2,4.9,2.1,9.7-0.3,14.5C313.1,322.7,304.8,327.2,297.9,326.7z"/>
<path class="st7" d="M330.5,320.2c-0.3-1.5,1.3-2.4,2-3.3c3.4-4.2,5.5-8.9,8.4-13.4c2.4-3.7,3.8-7.8,6-11.6c0.5-0.8,0.3-1.6,0.2-2.7
	c-2.7,1.9-5.3,3.7-8.4,4.6c-2.7,0.8-5.3,2-8.3,1.8c1.4-1,3.3-1.3,4.9-1.8c4.9-1.4,8.8-4.1,12.7-6.7c1.8-1.2,3-2.9,4.3-4.4
	c0.6-0.7,1.2-1.4,2.2-2.5c0.4,2.7-1,4.5-1.6,6.5c-0.7,2.1-2,3.9-2.6,6.1c-0.4,1.5-1.8,2.9-2.6,4.4c-2.9,5.3-6,10.4-10.1,15.2
	c-1.7,2-3.6,3.9-4.9,6.1C332.3,319.2,331.4,319.8,330.5,320.2z"/>
<path class="st73" d="M282.8,302.6c0.2,1.8-0.5,3.5-0.8,5.3c-0.3,1.9,0,3.7,0.7,5.6c1.3,3.2,2.8,6.2,5.5,8.8
	c1.5,1.4,3.5,2.5,5.4,3.6c-0.4,0-0.8,0.1-1.3,0.2c-6.6-1.5-11-5.2-13.2-10.6c-2-4.9-0.9-9.8,0.7-14.9
	C281,301.3,281.9,302,282.8,302.6z"/>
<path class="st7" d="M264.4,319.5c1.1-0.3,0.8-0.8,0.4-1.5c-2.2-4.3-2.5-8.7-1.7-13.3c0.4-2,0.8-4.1,1.7-6c0.4-0.9-0.3-1.5-0.9-1.5
	c-2,0.1-3.5-0.9-4.9-1.7c-3.5-2-7.1-4-9.5-7.1c1.7-0.2,2.2,1.2,3.3,1.9c3.8,2.2,7.7,4,12.3,4.7c1,0.2,2,0.5,2.8,1
	c0.9,0.5,1,1.1,0.3,1.9c-1.8,1.9-2.5,4.2-2.8,6.5c-0.4,3-0.6,6-0.1,9.1c0.3,2,0.8,3.9,1.5,5.8c0.3,0.6,0.3,1.3,0,2
	C265.6,321.1,264.8,320.5,264.4,319.5z"/>
<path class="st6" d="M287.6,336.8c7,0,13.6,0,20.6,0c-3.1,2.3-6.4,3.6-9.6,5c-0.5,0.3-1.3,0.2-1.8-0.1
	C293.9,340.2,290.7,339,287.6,336.8z"/>
<path class="st74" d="M242.2,282.1c2,5,4.9,9.6,7.4,14.4c3.5,6.5,7.4,12.7,11.7,18.8c0.3,0.5,0.7,0.9,0.6,1.5
	c-10.5-10.7-19.5-29.5-20.9-36.4C241.8,280.7,241.6,281.6,242.2,282.1z"/>
<path class="st75" d="M329.6,318.7c0.3,0.5-0.3,1.4,0.9,1.5c-0.5,1-0.9,2-2.3,2.9C328,321.3,328.5,319.9,329.6,318.7z"/>
<path class="st75" d="M330.4,315.8c-0.1,0.8,0.6,1.8-0.7,2.2C329.5,317.2,329.6,316.5,330.4,315.8z"/>
<g>
	<path class="st76" d="M372.3,429.7c-1.1-2.4-0.7-5-0.9-7.5c-0.6-8.4-0.8-16.8-1.3-25.2c-0.7-12.6-1.4-25.2-2-37.8
		c-0.1-1.5-1.1-2.2-2.4-2.8c-0.5-0.2-0.9-0.4-1.4-0.6c-5.3-2.1-6.2-1.6-6.2,3.2c0.2,13.7,0.2,27.5,0.7,41.2c0.3,8.4,0,16.7,0.5,25
		c0.5,8.8,0,17.6,0.5,26.4c0.5,8.7,0,17.4,0.5,26.1c0.5,8.4,0,16.9,0.5,25.3c0.5,8.7,0,17.4,0.5,26.1c0.4,5.9,0.1,11.7,0.5,18.3
		c3.1-3.8,6.5-6.9,8.5-10.6c1.3-2.3,0.7-5.4,0.8-8.2c0.3-7.4,0.5-14.9,1.2-22.3c0,3.7,0,7.4,0,11.1c0,0.8-0.2,1.6,0.4,2.3
		c1.2-0.9,0.9-2.1,1-3.3c0.2-6.2-0.4-12.5-0.5-18.7c-0.1-21.3,0-42.7-0.1-64C373.2,432.3,373.6,430.8,372.3,429.7z"/>
	<path class="st77" d="M356,280.6c-2.5-1.2-4.8-1.2-6.9,0.6c-2.9,4.2-2,8.5-0.5,12.8c0.5,1.5,2.6,1.9,4.3,2.4c3.1,0.8,6.3,1,9.5,1.5
		c4.1,0.7,8.3,0.4,12.5,0.7c-2.8,1-5.7,1.3-8.7,1.5c-3.4,0.3-6.8,0.3-10.1,0c-1.4,0-2.9,0-4.3,0c-1.7,3.2,0.2,7,4.1,8.3
		c5.4,1.8,10.9,2.7,16.6,3.1c1.2,0,2.4,0.1,3.6,0.1c0.8,0.5,1.7,0.4,2.9,0.2c-1.2,0.3-2.2,0.1-2.9,0.7c-1,0.1-2,0.1-3,0.2
		c-5.7,0.3-11.4,0.3-17.1,0c-0.6,0-1.2,0-1.8,0c-3.6,2.7-2.9,6.5,1.5,7.9c4.2,1.3,8.5,2,13,2.4c1,0.1,2,0.1,3.3,0.2
		c-1.3,1-2.7,0.7-4,1c-3.6,0.6-7.2-0.2-10.8,0.4l0,0c-2.7,4.7-1,7.9,4.7,9.1c10.1,2,20.3,3,30.6,2.5c0.8-0.4,1.6-0.7,1.9-1.6
		c0.5-2.5-0.3-4.8-1.4-7.1c-0.9-1.8-1.2-3.5-0.6-5.3c0.4-1.4,0.6-2.8,0.2-4.1c-0.9-3.5-0.2-6.9,1.3-10.2c1-2.2,1.2-4.5,0.4-6.7
		c-1-2.7-0.6-5.1,0.4-7.6c1.3-3.2,2.5-6.5,1.1-9.9c-2.8-1.5-4.3-3.8-5.9-6.1c-1-1.3-1.8-0.3-2.4,0.2c-7.6,6.9-16.7,6.8-26.4,3.9
		C359.4,281.2,357.7,280.8,356,280.6z"/>
	<path class="st49" d="M377.6,541.3c1.4,1.6,2.8,3.3,4.3,5c0.7-0.6,0.5-1.2,0.5-1.8c1.3-62.7,2.6-125.5,3.9-188.2
		c0-1.7-0.5-2.2-2.4-1.7c-1.4,0.4-2.9,0.5-4.1,1.3c-0.6,0.6-0.8,1.3-0.9,2c0,0.4,0,0.9,0,1.3c0.3,22.9-0.5,45.8-0.7,68.7
		c-0.1,14.2,0.1,28.5-0.5,42.7c-0.6,12.5,0.1,25-0.5,37.5c-0.5,9.7-0.3,19.3-0.5,29C376.6,538.6,376.8,540,377.6,541.3z"/>
	<path class="st78" d="M377.6,541.3c0-8.9-0.4-17.9,0.1-26.8c0.7-13-0.2-26,0.5-39c0.7-13.4-0.2-26.7,0.5-40.1
		c0.7-13.4-0.2-26.7,0.5-40.1c0.7-13.1,0.2-26.3,0.4-39.4c-2.7,0.6-3.4,2.1-3.6,4.4c-1.2,23.1-2.5,46.2-3.8,69.4
		c0,12.3,0,24.5,0,36.8c0.1,16.9,0.4,33.8,0.5,50.7c0,0.8-0.1,1.6-0.1,2.4c0.2,4.5,0.7,9.1,0.4,13.6
		C373,536.7,375.1,539,377.6,541.3z"/>
	<path class="st79" d="M320.1,345.1c-2,1.8-4,3.7-6,5.5c0.9,0.8,1.9,0.4,2.8,0.4c12.7,0,25.3,0.1,38,0.1c2.8,0,5.6,0.2,8.3,0.9
		c3.6,0.9,6.7,2.4,8.8,5.3c4-4.9,10-6.2,16.4-6.2c10.6-0.1,21.1,0,31.7-0.1c1.3,0,2.6-0.1,3.9-0.1c-0.5-2.7-4.2-6.1-7.2-6.1
		c-12,0-24.1-0.7-36.1,0.4c-2.7,0.2-5.2,1.4-7.8,1.8c-2.7,0.4-4.8-1.8-7.6-2.1c-1.2-0.1-2.4-0.2-3.7-0.2c-12.7,0-25.3,0-38,0
		C322.5,344.8,321.3,344.9,320.1,345.1z"/>
	<path class="st80" d="M320.1,345.1c1,0.5,2.2,0.3,3.3,0.3c12.4,0,24.8,0,37.2,0c3.9,0,7.7,0.3,10.8,2.7c0.5,0.4,1,0.4,1.6,0.1
		c3.7-2.2,8-2.5,12.3-2.6c10.5-0.2,21-0.1,31.5-0.2c1.8,0,2.6,0.9,3.6,1.8c1.3,1.2,2.4,2.5,3.6,3.7c1.9,0,3.8,0,6.3,0
		c-3.1-2.9-5.9-5.5-8.9-8.1c-0.4-0.3-1.3-0.2-2-0.2c-31.6,0-63.3,0-94.9-0.1C322.2,342.6,321.4,344,320.1,345.1z"/>
	<path class="st78" d="M372.1,575.2c2.2-6.1,4.4-11.9,6.4-17.6c0.9-2.7,3.3-5.5,2.5-8.1c-0.8-2.4-3.8-4.4-5.9-6.5
		c-0.9-1-1.9-1.9-3-3c-2.9,3.5-5.6,6.9-8.3,10.2c-0.4,0.5-0.5,0.9-0.3,1.4C366.3,559.3,369.1,567.1,372.1,575.2z"/>
	<path class="st81" d="M383,258.2c0-5-4.7-9-10.8-9.1c-6-0.1-11,4.1-10.9,9.2c0.1,5,4.9,10,10.9,9.9
		C378.3,268.2,383,263.2,383,258.2z"/>
	<path class="st82" d="M356,280.6c8.4,3.7,17,5.1,26.1,1.8c2.6-0.9,4.5-2.6,6.2-4.3c0.5-0.5,0.8-1,1.7-0.5c-0.2-1.4-1.1-2.4-2.3-3.3
		c-0.8-0.6-1.8-1.6-3-1.2c-1.1,0.4-0.5,1.6-0.5,2.4c0.1,1.4-0.7,2.3-1.9,3.1c-6.3,4.1-16.6,4-22.9-0.2c-0.5-0.3-1.3-0.7-1.3-1.1
		c-0.3-3.7-2.7-1.9-4.6-1.3c-0.8,0.3-1.9,1.4-1.7-0.6c0-0.5-0.8-0.1-1.3,0c-3.1,0.9-6.3,1.3-9.5,1.7c-5.2,0.7-8.5,4.5-8,8.9
		c0.1,1.2,0.1,2.4,0.2,3.7c0,2.9,4.3,5.1,7.6,3.8c0.6-0.2,1.2-0.6,1.1-1.2c-0.5-4.1,3.7-7.5,1.8-12.4c2.6,1.9,3.7,0.5,5.1-0.3
		C351.8,277.9,353.5,278.1,356,280.6z"/>
	<path class="st83" d="M395.8,283.7c-1.4,1,0.1,2.1-0.2,3.2c-0.5,1.9-0.5,4-1.5,5.9c-1.4,3-2.2,5.8-0.6,9.1c1.3,2.5-0.1,5.3-1.3,7.9
		c-1.2,2.7-1.4,5.4-0.6,8.2c0.3,1,0.5,2.2,0.1,3.1c-2.1,5,2,9.1,2.7,13.7c1.4-1.3,1.5-2.8,0.8-4.4c-0.9-1.9-0.7-3.6,0.8-5.3
		c2.4-2.8,4.2-5.8,1.1-9.3c-0.9-1-0.6-2.2,0.5-3.3c3.2-3.3,4.4-6.9,1.7-10.8c-1.1-1.6-0.8-3,0.3-4.6
		C403.5,290.8,402.5,287.5,395.8,283.7z"/>
	<path class="st82" d="M392.5,336.2c-10.7-0.4-21.2-1.6-31.6-3.6c-3-0.6-4-1.7-3.8-4.1c0.1-1.3,0-2.6,0.1-3.9
		c-4.3-0.7-5.5-0.3-6.1,2.1c-0.8,3.3,1.4,7.3,4.5,7.8c11.8,1.8,23.6,2.7,35.6,2.2C391.6,336.6,392.1,336.4,392.5,336.2z"/>
	<path class="st82" d="M372.4,311.5c-4.5-1-9.1-1.8-13.5-3c-6.2-1.8-7.2-2.8-7.3-8.4c-1.4-0.1-2.7-0.2-4.1-0.2c-2.4,0-3.6,1.2-2.5,3
		c2,3.3,3.9,6.8,9.6,7.3C360.5,310.6,366.4,311.5,372.4,311.5z"/>
	<path class="st84" d="M368.6,323c-4.1-1-8.2-2-12.2-3c-3.8-1-4.4-1.9-3.3-5.1c0.3-0.7,0.7-1.4,1-2.2c-0.2,0-0.4-0.1-0.6-0.1
		c-4.8-0.5-6.4,0.1-7,2.4c-0.7,2.7,2,5.9,5.6,6.6C357.6,322.4,363,323,368.6,323z"/>
	<path class="st85" d="M362.3,297.9c-3.5-0.9-6.9-1.7-10.4-2.6c-1.7-0.4-2.8-1.1-3.1-2.8c-0.6-3.8-0.6-7.6,0.3-11.3
		c-4,2-3.6,5.6-4.4,8.8c-0.2,0.7-0.1,1.4,0,2.1c1.4,5.8-0.8,5.1,6.9,5.4C355.2,297.6,358.7,297.8,362.3,297.9z"/>
	<path class="st86" d="M377.4,272.6c0.3-2-0.4-2.7-3-2.1c-2.3,0.5-4.8,0.3-7.2,0.1c-1-0.1-2.5-1-2.9,0.4c-0.3,1.3-1,3,0.7,4.1
		c2.3,1.5,9.1,1.6,11.4,0.1C377.7,274.5,377.3,273.5,377.4,272.6z"/>
	<path class="st84" d="M355.9,312.7c5.7,0.8,11.4,0.8,17.1,0C367.3,312.7,361.6,312.7,355.9,312.7z"/>
	<path class="st82" d="M357.2,324.6c3.6,0,7.2,0.5,10.8-0.4C364.4,324.2,360.8,323.9,357.2,324.6z"/>
	<path class="st82" d="M355.9,300.1c3.4,0.6,6.8,0.7,10.1,0C362.7,300.1,359.3,300.1,355.9,300.1z"/>
	<path class="st82" d="M376,312.5c1.2,0.2,2.4,0.2,3.4-0.8c-1.2-0.4-2.3-0.3-3.4-0.1C376,311.9,376,312.2,376,312.5z"/>
	<path class="st87" d="M376.9,265.2c4.3-2.7,5.1-8.2,2.2-11.4c-2.3-2.6-8-4.5-11.6-1.6C377.4,254,379.7,257.9,376.9,265.2z"/>
</g>
<g>
	<path class="st76" d="M311,403.9c3-1.4,6-2.7,9-4.2c2.5-1.2,5-2.8,7.5-3.8c5.5-2.2,10.8-5.1,16.5-7.1c1.7-0.6,3.5-0.2,5.1,0.7
		c3.9,2.2,6.2,6.8,5.6,11.2c-0.2,1.5-0.1,3-0.1,4.5c-0.1,2.7-1.1,4.1-3.7,4.5c-1.9,0.3-3.1,1.5-4.4,2.6c-1.6,1.5-3.2,2.9-5.6,3.1
		c-0.7,0-1.2,0.6-1.6,1.1c-2.3,2.6-5.6,3.8-8.5,5.6c-0.6,0.4-1.5,0.8-2.1,0.6c-4.8-1-8.5,1.8-12.5,3.5c-4.6,1.9-4.4,1.8-0.8,5.3
		c2.9,2.7,6.5,4.6,8.8,8c0.8,1.1,2.5,1.9,4.3,1.2c1.4-0.5,2.8-0.4,4.1,0.4c2.8,1.7,6.4,2.1,7.9,5.6c0.4,0.8,1.6,0.8,2.4,1.1
		c1.3,0.4,2.8,1,3,2.3c0.4,2.3,2,3.2,3.7,4.2c1.7,1,2.7,2.5,2.2,4.6c-0.5,2.1-2,2.9-4,3.2c-8.2,1.3-15.5-0.5-23.1-4.2
		c-11-5.4-20.7-12.5-30.9-19.1c-1.8-1.2-2.7-1.1-3.8,0.9c-3.3,6.3-5.6,13-7.5,19.8c-1,3.6-2.6,4.6-6.2,4
		c-7.5-1.2-12.2-7.7-11.3-15.5c0.1-0.7,0.9-1.9-0.3-2.1c-1.1-0.1-1.5,1-1.3,2.2c0.4,3.1-1.2,5.4-3.7,6.5
		c-10.2,4.5-20.7,8.8-32.2,7.4c-15.9-2-24.3-14.4-20.9-30.5c1.4-6.5,4.7-12.3,7.5-18.2c0.9-1.8,3.1-4,2.2-5.2
		c-1.1-1.5-3.8-0.1-5.8,0.1c-6.6,0.4-13.1,1.1-19.3,3.5c-0.6,0.2-1.3,0.2-2,0.2c-4.7,0.2-4.8,0.2-6.4,4.7c-1,2.9-2,5.8-3.1,8.7
		c-0.7,2-1.6,3.8-3.3,5.2c-0.3,0.2-0.7,0.6-0.7,1c-1.7,8.6-5.7,16.5-7.7,25c-0.7,3-1.9,3.9-4.9,4c-1.5,0-3,0-4.5-0.1
		c-4.7-0.5-6.8-2.9-8.2-8.3c-1.7-6.9-1.6-13.5,1.5-20.1c2.2-4.8,3.9-9.9,5.9-14.9c1-2.5,0.9-2.7-1.8-2.6c-1.6,0.1-3.1,0.4-4.7,0.6
		c-5.2,0.8-6.9-0.1-9.1-4.8c-0.4-0.9-0.8-1.8-1.3-2.7c-1.2,0.7-1.5,1.8-1.9,2.8c-2.2,4.7-5.5,8.6-8.5,12.8c-2.1,2.9-3.4,6.5-4.7,9.8
		c-2.5,6.1-4.8,12.3-7.1,18.4c-0.9,2.5-1.4,5.1-1.3,7.8c0.1,3.2-2.2,5-5.3,4.1c-4.8-1.4-8.9-4-12.1-7.9c-3.3-4-4.4-8.5-3.2-13.6
		c0.1-0.6,0.5-1.4-0.1-1.9c-0.6-0.4-1.3,0.2-1.8,0.5c-3.8,1.9-7.8,3.1-12,4.1c-7.9,1.8-15.3,5.2-22.8,8.1c-3.5,1.3-6.9,2.8-10.2,4.7
		c-5.8,3.5-14.4,1.8-18.7-3.4c-0.6-0.7-1.2-1.3-2.2-1.5c-2.4-0.6-3.3-2.3-3.1-4.7c0.3-3.3,1-6.6,2-9.8c4.2-13.7,11.3-25.9,18.8-37.9
		c3.3-5.2,6.8-10.3,10.6-15.2c0.6-0.7,1-1.5,1.2-2.4c0.5-2.4,2-3.5,4.4-3.5c8.5-0.1,15.4,9.1,12.4,17.1c-3.3,8.9-6.6,17.9-13.6,24.8
		c-0.3,0.3-0.6,0.6-0.8,1c-0.9,1.4-2.2,3.2-1.6,4.5c0.6,1.2,2.5-0.2,3.8-0.2c0.2,0,0.5-0.1,0.7,0c4.7,1.1,9.5-0.2,14.2,0.1
		c0.8,0,1.7-0.1,2.5-0.3c3.4-1,6.9-2,10.3-3.1c1.9-0.6,3.7-1,5.6-0.5c1.9,0.5,3.5-1,5.3-0.9c2.6,0.2,2.7-2.1,3.5-3.6
		c6.3-12.1,13.9-23.5,20.8-35.3c2.4-4.1,10.7-5.1,13.1-1.3c1.9,3,4.5,5.8,5.1,9.5c0.2,1.4,0.9,1.8,2.2,1.9c6,0.4,12,0.5,18-0.2
		c3.5-0.4,6-2.1,7.5-5.4c2-4.5,5.1-7.7,10.5-8.1c2.6-0.2,4.3,0.7,5.4,3c3.1,6,3.1,6,9.7,4.7c2.7-0.5,5.4-0.9,8.1-1.6
		c5.9-1.4,10.6,0.9,14.9,4.5c1.3,1.1,2,1.6,2.9-0.3c0.5-1,1.4-1.9,2.5-1.9c2.7-0.1,4.5-1.8,6-3.6c3.7-4.4,8.1-5.6,13.4-3.8
		c1,0.3,2.1,0.5,3.1,0.8c4.5,1.3,5.3,2.2,4.8,6.9c-0.2,2,0.4,2.5,2.3,2.8c4.5,0.6,8.8,2.1,13.2,3.4c0.7,0.2,1.4,0.5,2.1,0.7
		c3.7,0.9,5,4.6,2.5,7.5c-1.4,1.7-3.3,2.8-5.3,3.6c-3.6,1.5-7.4,2.5-11.2,3.4c-1.5,0.4-2.4,0.7-0.7,2.2c2.5,2.2,3.7,5.3,4.9,8.3
		c1.2,3.2-1.4,7.3-4.8,7.9c-7.6,1.3-15.1,2.7-22.6,4.3c-3.6,0.8-5.5,2.5-6.5,6.1c-1.6,6.2-1.7,6,4.6,5.2c7.1-0.9,13.8-3.1,20.4-5.5
		c1.8-0.7,3.6-0.9,5.2,0.4c1,0.8,1.9,0.3,2.8,0c1.8-0.6,3.6-0.6,5.1,0.8c1.6,1.4,1.6-0.4,1.8-1.1c3.3-8.3,7.2-16.3,11.4-24.2
		c5.7-10.8,12.1-21.3,18.2-31.9c1.2-2.1,3-2.9,5.4-2.8c2.9,0.2,5,1.5,6.8,3.7c4.8,5.7,5.6,12.9,2.2,19.5c-0.2,0.4-0.4,0.9-0.6,1.3
		C310.7,403.5,310.9,403.7,311,403.9z"/>
	<path class="st88" d="M347.1,457.6c-0.2,0.6-0.8,0.7-1.2,0.7c-5.9,0.4-11.7,0.6-16.9-2.8c-2-1.3-4.1-2.7-6.3-3.6
		c-11.1-4.4-19.8-12.5-29.9-18.3c-2.8-1.6-2.8-1.6-4.4,1.1c-0.7,1.1-1.3,2.4-2,3.5c-0.5,0.8-0.7,3.5-2.3,0.6c-0.3-0.5-0.8,0-1,0.3
		c-0.7,1.1-1.2,2.5-0.4,3.5c1.1,1.4,0.5,2.4,0.1,3.7c-1.2,3.5-2.3,6.9-3.5,10.4c-0.4,1.1,0.1,3-1.8,3.2c-1.8,0.2-3.8-0.6-4.6-2.1
		c-0.8-1.6-1.9-3-2.9-4.1c-2.7-3-1-5.8-0.4-8.6c3.5-15,11.5-27.9,18.8-41.2c3.6-6.5,7.6-12.7,11.2-19.2c1.2-2.2,2.6-2.2,4.5-1.2
		c1.5,0.8,2.4,2,3.2,3.4c2.5,4.8,3.5,9.6-0.1,14.5c-1.9,2.6-3.4,5.5-5,8.3c-0.4,0.7-1.1,1.6-0.6,2.3c0.7,0.8,1.5-0.1,2.2-0.4
		c6.7-3.1,13.3-6.5,20.1-9.4c6.2-2.7,12.1-5.8,18.1-8.7c3.8-1.8,7.5-0.6,8.3,3.5c0.5,2.4,0.3,5.3-0.1,7.9c-0.1,0.5-0.5,0.7-0.9,0.8
		c-2.6,0.6-4.5,2.3-6.4,4.1c-0.7,0.7-1.3,1.5-2.5,0.6c-0.8-0.6-1.5,0.4-2.1,0.9c-1.1,0.9-1.7,2.4-3.9,1.6c-0.8-0.3-2.4,1.3-3.6,2
		c-0.9,0.5-1.9,1-2.9,1.6c0,0.9,1.7,0.3,1.2,1.4c-0.4,0.7-1.2,0.9-1.7,0.6c-2.7-1.3-4.8,0.3-7,1.3c-4.5,1.9-9,4-13.5,5.8
		c-2.1,0.8-1.9,1.6-0.5,2.9c1.9,1.7,3.5,3.6,5.5,5.1c2.4,1.8,4.5,4.1,6.6,6.2c2,1.9,3.9,3.7,6.5,4.8c0.1,0.1,0.4,0.2,0.4,0.3
		c-0.1,3.6,2.6,3.1,4.8,3.3c1.1,0.1,1.7,1,2.4,1.7c3.4,3.8,7.1,6.8,12.5,6.8C345.9,456.4,346.7,456.7,347.1,457.6z"/>
	<path class="st88" d="M264.9,400.4c1.8-0.7,3.6-1.4,5.9-2.3c-0.9,2.3-2.4,3-3.9,3.7c-5.4,2.4-11.3,3.6-17.1,4.7
		c-2.5,0.5-5,1.3-7.6,1.4c-5.5,0.2-7.1,4.4-9.2,8.2c1.2,0.7,2.2,0.1,3.1-0.1c3.9-1.1,7.7-2.3,11.5-3.2c4.3-1,7.6,1.2,8.5,5.5
		c0.2,0.7,0.4,1.4,0.7,2.1c0.7,1.7,0.4,2.8-1.7,3.2c-6.8,1.3-13.5,2.9-20.4,3.8c-7.4,0.9-11,5-12.1,12c-0.2,1.4-0.4,2.8-0.9,4.1
		c-0.8,2.4,0.5,3.4,2.6,3.8c1.4,0.3,2.9,0.5,4.2,0.1c2.6-0.7,5.3,0.4,7.8-0.8c0.2-0.1,0.7,0.1,0.9,0.3c1.7,2.2,3.7,1.2,5.7,0.6
		c5.7-1.8,11.4-3.6,17.2-5.4c0.6-0.2,1.2-0.6,2-0.2c0,1.2-1,1.4-1.8,1.8c-1.6,0.7-3.3,1.2-4.9,1.9c-1.1,0.4-3.1,0.4-0.9,2.4
		c1,0.9-0.6,1.2-1.2,1.4c-4.6,1.4-9.3,2.7-13.9,4c-0.5,0.1-1,0.1-1.4,0.8c1.7,0.9,3.3,0.4,4.9-0.1c4.7-1.5,9.3-3.1,14-4.5
		c0.6-0.2,1.5-1,1.9,0c0.3,0.8-0.5,1.3-1.1,1.8c-0.3,0.3-0.7,0.5-1.1,0.7c-8.2,3.1-16.4,6.5-25.5,6.6c-16.2,0-22.7-10.1-21.3-24.6
		c0.5-5,2.8-9.4,4.9-13.8c2.9-6,5.9-11.9,8.9-17.9c0.8-1.5,1.2-3,1-4.8c-0.2-1.7,0.1-3.3,0.9-4.9c0.4-0.8,0.8-1.5,1.7-1.6
		c2.8-0.3,4.8-2,6.4-4c3-3.9,6.7-4.6,11.3-3.2c4.8,1.5,5.4,2,3.5,6.9c-0.8,2.1-0.7,3.1,1.8,3.1c1.6,0,3.1,0.3,4.7,0.5
		c0.3,0,0.8-0.1,1,0.1c2.5,2.4,5.8,0.8,8.6,2.1c0.7,0.3,1.8,0.2,1.9,1c0.1,0.9-0.7,1.4-1.5,1.7c-0.3,0.1-0.6,0.4-0.8,0.5
		c-0.3,0.3-1.2,0.1-1,0.7C263.6,400.9,264.3,400.6,264.9,400.4z"/>
	<path class="st88" d="M172.4,425.5c-1.1,2-1.4,3.6-1,5.3c0.3,1.3,0.2,2.6-0.3,3.9c-0.6,1.7-1.3,2.8-2.9,0.6
		c-0.6,1.5-1.2,2.8-1.7,4.1c2.8-0.1,2.8-0.1,2,2.3c-1.4,4.3-2.8,8.5-4,12.9c-0.4,1.3-1,1.6-2.2,1.8c-5.5,0.6-7.1-3.2-8.4-8.1
		c-2.2-8.4,1.9-15.2,4.5-22.4c1.7-4.6,3.7-9.1,5.6-13.6c0.7-1.7,0.6-2.4-1.4-2.4c-4,0.1-8-0.1-11.9,0.9c-2.4,0.6-4-0.1-4.9-2.5
		c-1-2.7-2.3-5.4-2.3-8.4c0-3.3,0.9-4.2,4.2-4c6.2,0.4,12.5,0.5,18.7-0.5c4.2-0.6,7.2-2.8,9.1-6.6c1.2-2.5,2.5-4.9,5.4-5.9
		c2-0.6,3.5-0.5,4.4,1.7c0.7,1.8,1.9,3.5,2.7,5.3c0.7,1.7,1.8,1.9,3.4,1.6c5.3-1.1,10.6-2.1,15.9-3.1c5-0.9,8.9,1.2,12.2,4.8
		c0.5,0.5,1.1,1.3,0.8,2c-0.8,1.9-0.6,3.6-0.1,5.6c0.4,1.4-0.8,1.6-1.9,1c-1-0.5-1.6-0.5-2.2,0.6c-0.6,1.2-2,1-3.1,1.1
		c-6.3,0.6-12.6,0.9-18.8,2.5c-2,0.5-4.1,2.8-6.4,0.5c-2,1.5-5,1.2-6.3,3.7c-1.8,3.6-3.8,7.1-4.6,11.1c-0.3,1.5-1,3-1.7,4.4
		C174.3,427.3,173.4,428,172.4,425.5z"/>
	<path class="st88" d="M81.3,431.7c2.2,0,4.1-1.1,6.1-1.8c2.3-0.9,4.7-1.7,7-2.5c0.4-0.1,0.9-0.4,1.2-0.2c2.3,1.2,4.5,1.4,6.8,0.1
		c0.3-0.1,0.7-0.1,0.8,0.3c0.1,0.3-0.1,0.7-0.3,0.9c-0.8,0.6-1.6,1.2-2.4,1.7c-4,2.3-8.6,3.1-12.7,5.1c-0.9,0.4-1.9,0.5-2.9,0.3
		c-0.5-0.1-1.3-0.4-1.4,0.5c-0.1,0.9,0.7,1,1.4,1.1c2,0.3,3.8-0.3,5.6-0.9c0.8-0.2,1.5-0.7,3.1-0.1c-2.8,1.4-5,2.8-7.6,3.3
		c-12.2,2.2-23.2,7.7-34.5,12.3c-3.1,1.3-5.8,3.5-9.5,3c-3.1-0.4-6.1-0.9-8.1-3.8c-0.8-1.1-1.6-2.4-3.2-2.6
		c-1.5-0.2-0.9-1.3-0.8-2.2c0.9-6.5,3.2-12.6,5.9-18.5c6.7-14.7,15.3-28.2,24.9-41.2c0.4-0.5,1-1,1.2-1.6c0.7-3.1,2.7-2.2,4.6-1.5
		c4.2,1.8,6.7,7.5,5,11.7c-3.3,8.3-6.4,16.9-13.1,23.3c-0.8,0.8-1.4,1.9-1.8,3c-1,2.8-2.2,5.4-4.4,7.4c-0.5,0.4-0.8,1.1-1.1,1.7
		c-0.3,0.6-0.5,1.3,0.1,1.9c0.5,0.5,1.1,0.1,1.6,0c3-0.8,5.9-1.6,8.9-2.3c2.5-0.6,5.1-1,7.4,0.8c0.5,0.4,1.1,0.4,1.6,0.1
		c2.5-1.4,5.1-1.6,7.9-1.4c2.8,0.2,5.5-1.2,8.2-2c0.6-0.2,1.3-0.4,1.9-0.6c0.6-0.2,1.3-0.2,1.4,0.5c0.1,0.7-0.6,0.6-1.1,0.7
		C86.5,429.3,83.7,430,81.3,431.7z"/>
	<path class="st88" d="M123.4,424.9c0.6-0.4,0.9-1.3,1.7-1.4c0.7,0.6,0,1.1-0.2,1.5c-4.6,8.6-7.5,17.9-10.7,27.1
		c-0.7,2.1-0.9,4.2-1,6.4c0,1.1-0.5,1.3-1.4,0.9c-2-0.9-4.4-1.4-4.3-5c-1.3,2.4-2.1,1.3-3,0.4c-5.1-4.9-4.7-10.8-3.1-16.9
		c2.6-9.9,7.2-19,12.4-27.7c4.9-8.3,10-16.5,15-24.8c1.5-2.4,3.5-3.2,6.2-2.4c0.6,0.2,1.4,0.3,1.4,0.9c-0.2,2,1.5,2.8,2.5,4
		c1.1,1.2,1.6,2.6,1.6,4.3c0,2.8-0.1,5.7-0.6,8.5c-0.2,1-0.3,1.8-1.4,2.4c-1.5,0.9-1.9,2.7-2.6,4.1c-1.9,3.6-3.7,7.1-6.6,10.2
		c-1.5,1.5-2.9,2.9-4.6,4.1c-0.9,0.6-1.4,1.6-1.8,2.7c-2.2,5.3-4.5,10.6-5.9,15c1.4-3.5,2.7-8.2,4.9-12.6
		C122.3,426,122.5,425.1,123.4,424.9z"/>
	<path class="st89" d="M123.4,424.9c-3.5,6.4-5.2,13.5-8.4,20.3c-0.4-0.5-0.6-0.7-0.6-0.7c2.4-6.3,4.3-12.9,7.4-19
		c0.2-0.4,0.6-0.8,0.9-1.2C123,424.4,123.2,424.7,123.4,424.9z"/>
	<path class="st90" d="M254.9,441.1c-0.9,1.6-2.3,2.2-3.6,2.4c-2.4,0.3-4.4,1.3-6.4,2.4c-1.1,0.6-2.2,0.7-3.4,0.6
		c-0.5,0-1.1-0.1-1.2-0.7c-0.1-0.6,0.5-0.7,1-0.9c2.7-0.8,5.4-1.6,8.1-2.3C251.1,442.2,252.7,441.1,254.9,441.1z"/>
	<path class="st78" d="M101.9,432.1c-2,1.7-4.3,2.7-6.7,3.5c-0.2,0.1-0.7-0.1-0.8-0.3c-0.3-0.3,0.1-0.7,0.3-0.8
		C97,433.5,99.2,432.1,101.9,432.1z"/>
	<path class="st91" d="M335.4,447.4c-2.2,0.3-3.8-0.7-5.4-1.6c-0.4-0.2-0.7-0.6-0.4-1c0.1-0.2,0.6-0.4,0.8-0.3
		C332.3,445.1,334.1,445.9,335.4,447.4z"/>
	<path class="st92" d="M264.9,400.4c-1,0.4-1.9,0.8-2.9,1.2c-0.5,0.2-1.2,0.5-1.5-0.2c-0.3-0.8,0.5-1.1,1.1-1.3
		c0.9-0.3,1.9-0.5,2.8-0.7C263.8,400.1,264.4,400.2,264.9,400.4z"/>
	<path class="st93" d="M102.5,425.2c-0.9,1.4-1.6,2.4-3.2,2c-0.4-0.1-0.9-0.5-0.6-0.9C99.5,425.2,100.8,425,102.5,425.2z"/>
	<path class="st94" d="M331,416.8c0.3-1.4,1-1.9,2.1-1.9c0.1,0,0.4,0.3,0.4,0.5C333.2,416.6,332.2,416.6,331,416.8z"/>
	<path class="st95" d="M341.9,451.7c-1.2,0.9-2.1,0.6-3,0c-0.2-0.2-0.4-0.7,0-0.8C340,450.5,341,450.9,341.9,451.7z"/>
	<path class="st96" d="M334.8,449.6c1.2-0.4,1.9-0.3,2.5,0.4c0.2,0.3,0.1,0.7-0.2,0.8C336.1,451,335.5,450.4,334.8,449.6z"/>
	<path class="st97" d="M287.6,432.1c-0.2,1.9-1.1,3.4-2.8,4.5C285,434.6,285.9,433.1,287.6,432.1z"/>
	<path class="st98" d="M314.7,419.9c0.8-1,1.6-1.4,2.6-1.4c0.3,0,0.4,0.5,0.2,0.8C316.8,420,316,420.4,314.7,419.9z"/>
	<path class="st99" d="M305.5,424c0.9-1.2,1.8-1.5,3.1-1.6C307.9,423.8,307.1,424.2,305.5,424z"/>
	<path class="st100" d="M220.9,438.7c-0.5-1.6,0.1-2.7,1-3.9C222.5,436.7,222.4,436.9,220.9,438.7z"/>
	<path class="st101" d="M232.5,412.3c-0.1-1.5,0.6-2.1,1.7-2.7C234.3,411.1,233.7,411.7,232.5,412.3z"/>
	<path class="st102" d="M220,442c0.5,0,0.7,0.4,0.7,0.8c0,0.5-0.1,1.1-0.7,1.2c-0.5,0.1-0.7-0.3-0.7-0.8
		C219.4,442.7,219.5,442.2,220,442z"/>
	<path class="st103" d="M56.1,446.6c7.5-3.7,15.2-7,23.6-8.2C72.1,441.8,64.2,444.4,56.1,446.6z"/>
	<path class="st104" d="M48.8,430c-0.1-0.3-0.3-0.4-0.3-0.6c0.2-1.1,0.3-2.3,1.5-2.9c0.1-0.1,0.6,0.2,0.6,0.3
		C50.4,428.1,50.1,429.3,48.8,430z"/>
	<path class="st105" d="M113.4,447.2c0.4,1.6-0.3,2.8-1.3,4.4C111.8,449.5,112.8,448.4,113.4,447.2z"/>
</g>
<g>
	<path class="st76" d="M504,453.4c-8.7,2.6-18.7-1.3-24.2-7.9c-5-6-4.8-11.7-3.5-18.3c0.1-0.3,0.3-0.7,0.2-1c-1-4.5,2.1-7.5,4-10.9
		c4.1-7.2,8.9-14,15.9-18.7c3.7-2.5,6.5-6.1,10.6-8.1c5.9-2.9,12-4.1,18.4-3.9c4.2,0.1,7.4,2.4,9.7,5.8c1.2,1.8,2.4,3.6,4.1,5
		c0.3,0.3,0.7,0.6,0.8,1c0.3,3.5,1.3,7.2-0.3,10.6c-1.2,2.6-4.6,3.1-6.8,1.1c-1.9-1.6-3.8-2-6-1.2c-12.7,4.3-22.6,12.1-29.3,23.9
		c-0.3,0.5-0.5,1.1-0.7,1.6c-0.9,2.6-0.7,3,2,2.9c4.2-0.2,8.3-0.7,12.4-1.6c2-0.4,3.4-1.5,4.5-3.2c3.1-4.9,6.6-9.4,10.6-13.5
		c2.4-2.5,3.9-2.6,6.8-0.7c1.1,0.7,2.3,1.3,3.5,2c4.3,2.5,6.3,8.2,6,13c-0.3,4.9-3.6,7.3-6.5,10.1c-2.6,2.4-4.6,4.8-5.7,8.4
		c-2.3,7.1-5.1,14.1-8.4,20.8c-1.1,2.1-0.5,4.7-1.7,7c-3,5.9-6,6.6-12.3,5c-5.1-1.4-7.3-5.4-10.6-8.5c-1.3-1.3-0.9-3.1-0.2-4.7
		c2.1-4.5,4.1-9.1,6.2-13.7C503.7,454.8,504.3,454.2,504,453.4z"/>
	<path class="st76" d="M423.6,421.5c-1.2,0.5-1.7,1.4-2,2.3c-3,9.6-8,18.4-12.1,27.6c-1,2.3-2.3,4.4-3.6,6.6c-2.5,4.1-8.7,5-12,1.5
		c-5.5-5.8-8.9-15.3-5.4-23.4c3.9-9,8.8-17.4,15-25c4.8-5.9,10.1-11.3,15.5-16.7c1.7-1.7,3.5-2.1,5.7-1.1c5.2,2.4,9.8,5.6,13.7,9.8
		c1.7,1.9,2.4,4.2,3,6.5c0.2,0.7,0,1.7,1,1.8c0.7,0.1,0.9-0.8,1.3-1.4c3.4-5.3,7.3-10.4,10.7-15.7c3.4-5.3,8.7-6.6,14.1-7.8
		c5.6-1.2,11.1-0.9,16.1,2.2c2.1,1.3,3.7,3.1,5.2,5c1.5,2,0.9,4.6-1.3,5.8c-8.6,4.5-16,10.7-21.7,18.4c-3.1,4.2-6.9,8.4-6.7,14.4
		c0.1,2.9-0.2,6.1-4,7.2c-0.8,0.2-0.9,1.3-1.2,2.1c-2.2,5.7-4.4,11.3-6.7,17c-1.6,4-2.9,4.6-6.8,3.3c-0.6-0.2-1.3-0.3-2-0.3
		c-5.8,0.3-11-3.2-12.8-8.8c-0.4-1.3-1-2.7-1-4.1c-0.1-8.6-2.1-17-1.7-25.6C424,422.8,424.1,422.2,423.6,421.5z"/>
	<path class="st88" d="M525.8,447.9c0.2-0.5,0.4-1.3,1.1-1c0.7,0.2,0.2,0.8,0,1.2c-2.8,7-5,14.3-8.7,21c-0.5,1-0.7,2-0.6,3.1
		c0.1,2.5-1.2,4.4-2.6,6.3c-0.7,0.9-2.2,1.4-2.9,0.8c-1.4-1.3-3-1-4.6-1.4c-4.1-1.2-5.1-4-2.9-8.9c-1.2,0.3-1.2,1.4-1.7,2
		c-0.4,0.5-1,0.6-1.6,0.4c-0.6-0.3-0.4-0.9-0.1-1.3c3-5.7,4.6-12.2,8.6-17.4c0.7-0.9,0.9-1.9,0.9-3c0-1.9-1.5-0.5-2.3-1
		c-1.8-1.2-3.5-0.5-5.2,0.2c-6.3,2.9-14.3,1.1-18.7-4.2c-1.3-1.6-2.1-3.7-4-4.9c-0.9-0.5-0.9-2.1-1-3.2c-0.2-3,0.5-5.9,0.7-8.9
		c0.6-6.9,4.6-12,8.2-17.4c3.7-5.4,8.7-9.4,14.1-13.3c2.9-2.1,5.5-4.6,8.9-6.1c4.5-1.9,9.3-2.6,14.2-2.3c3.1,0.2,5.3,2.2,6.9,4.8
		c0.6,1,1.1,2.1,1.9,2.9c1.6,1.5,3,2.9,0.9,5.1c-0.8,0.8,0.4,1.2,0.8,1.8c0.4,0.5,0.6,1.1,0.2,1.6c-0.5,0.6-1,0.2-1.5-0.1
		c-3.1-2.6-6.6-2.5-10.1-1.2c-13.2,4.8-23.7,13-30.5,25.5c-1.3,2.4-1.9,5-2.1,7.7c-0.1,1.6,0.5,2.3,2.1,2.4c6.8,0.3,13.5-0.3,20-2.3
		c2.3-0.7,3.7-2.5,5-4.4c2.9-4.3,6-8.4,9.6-12.1c0.5-0.6,0.9-1.5,2-1c1.1,0.6,0.8,1.5-0.1,2.6c2.6-1.5,4.9-0.7,6.3,1.7
		c1.8,3,2.5,6.2,1.4,9.6c-0.3,0.8-0.9,1.4-1.5,2c-3,3.1-6.2,6-9.5,8.8c-0.8,0.7-1.7,1.4-1.9,2.5c-0.3,2.2-1,4.3-1.8,6
		C524.4,451.2,524.2,449.1,525.8,447.9z"/>
	<path class="st106" d="M525.8,447.9c-0.7,2.8-1.9,5.4-3.5,7.8c0.6-3.2,1.8-6.2,3.1-9.2C525.5,446.9,525.6,447.4,525.8,447.9z"/>
	<path class="st88" d="M464.3,393c4.5-4.8,10-3.9,15.5-2.9c1.5,0.3,2.3,1.1,0.7,2.4c1.3,0.7,2.3-0.9,3.5-0.1c2.6,1.6,2.6,3,0,4.6
		c-6.9,4.2-12.7,9.8-18.4,15.6c-3.5,3.5-4.6,8.3-7.9,11.8c-1.4,1.5-0.6,3.9-2,5.5c-0.2,1.7-1.7,2.6-2.4,4.1
		c-2.6,7.8-5.8,15.4-8.8,23.1c-0.4,1-0.8,1.6-2,1.2c-1.6-0.7-3.2-0.8-5.1-0.7c-3,0.2-5.6-1.8-6.9-4.9c-1.2-3.1-1.7-6.4-1.6-9.8
		c0.1-3.8,0.1-7.4-1-11.1c-1-3.4-0.3-7,0-10.4c0.2-2-0.2-4-0.3-6c-0.1-1.5-0.8-1.8-2-1c-4,2.7-7.4,5.5-8.5,10.7
		c-0.7,3.3-2.7,6.4-4.2,9.6c-3.1,6.7-5.8,13.6-9.6,20.1c-2.2,3.8-5.9,3.9-8.2,0.2c-2.1-3.5-4.2-7-4.1-11.3c0-1.8,0.1-3.4,0.8-5.1
		c4.9-12.8,12.7-23.7,22-33.6c2.3-2.5,4.8-4.9,7.1-7.4c1-1.1,1.9-1.4,3.3-0.6c3.7,2.1,7.2,4.4,10.3,7.4c2.1,2.1,2.9,4.8,3.6,7.6
		c0.7,2.7,1.2,5.4,1.9,8c0.1,0.5,0.1,1.3,0.7,1.5c0.9,0.2,1-0.7,1.3-1.2c4-6.7,8.1-13.4,12.6-19.8c1.9-2.7,3.7-5.3,5.9-7.7
		c0.7-0.8,1.5-1.4,2.6-1.2c1,0.2,0.1,0.7,0.1,1.1c-0.2,2.3-2.3,3.3-3.4,4.9c-3,4-6,7.8-8.7,12c2.6-4.1,5.6-7.8,8.4-11.7
		C461,395.8,463,394.8,464.3,393z"/>
	<path class="st107" d="M464.3,393c1.2,2.1,1.2,2.1-1.2,2.2c-0.8,0-1.1,0.9-1.6,1.5c-3.7,4.6-7.3,9.3-10.5,14.2
		c-0.4,0.7-1,1.3-1.6,2.1c0.1-2.8,8-14.3,14-20.4C463.6,392.9,463.9,393.1,464.3,393z"/>
	<path class="st108" d="M453.4,434c0.3-1.7,0.6-3.3,2.4-4.1c0.2,0.7,0.8,1.6,0.5,2c-0.4,0.7,1,4.5-2.1,1.6
		C454.1,433.4,453.7,433.8,453.4,434z"/>
	<path class="st107" d="M531,425.1c0.5-1.3,1-2.2,2-2.5c0.1,0,0.6,0.5,0.5,0.6C533.3,424.3,532.4,424.7,531,425.1z"/>
	<path class="st109" d="M490.2,437.1c-0.5-0.2-0.5-0.6-0.4-1c0.1-0.4,0.2-0.9,0.7-0.7c0.2,0.1,0.3,0.5,0.3,0.8
		C490.9,436.6,490.8,437.1,490.2,437.1z"/>
	<path class="st101" d="M463,412.5c0.1-1.7,0.6-2.6,2.3-3.7C465,410.6,464.3,411.5,463,412.5z"/>
	<path class="st109" d="M422.3,400c-0.3,0.6-0.8,1.2-1.6,1.4c-0.4,0.1-0.7-0.3-0.5-0.6c0.3-0.7,0.8-1.3,1.6-1.4
		C422.2,399.2,422.3,399.6,422.3,400z"/>
	<path class="st110" d="M468.2,404.6c-0.5,1.6-0.8,2.4-2.1,2.8C466.1,406.1,466.8,405.5,468.2,404.6z"/>
</g>
</svg>
