<svg width="213" height="47" viewBox="0 0 213 47" fill="none" xmlns="http://www.w3.org/2000/svg">
<path d="M123.516 29.8182C122.624 21.7692 130.02 14.2573 140.165 13.1332L190.586 7.54657C200.731 6.42247 209.592 12.1331 210.484 20.1821C211.376 28.2311 203.98 35.743 193.835 36.8671L143.414 42.4538C133.269 43.5779 124.408 37.8673 123.516 29.8182Z" stroke="white" stroke-width="0.5"/>
<path d="M123 25C123 16.7157 131.343 10 141.635 10H192.365C202.657 10 211 16.7157 211 25C211 33.2843 202.657 40 192.365 40H141.635C131.343 40 123 33.2843 123 25Z" fill="#FC1203"/>
<path d="M74.5571 32.653V17.6543H80.4746C81.6073 17.6543 82.574 17.8569 83.3747 18.2622C84.1803 18.6625 84.7931 19.2313 85.213 19.9686C85.6377 20.7009 85.8501 21.5627 85.8501 22.5538C85.8501 23.5498 85.6353 24.4066 85.2056 25.1244C84.776 25.8372 84.1535 26.384 83.3381 26.7648C82.5276 27.1457 81.5463 27.3361 80.394 27.3361H76.432V24.7875H79.8814C80.4868 24.7875 80.9897 24.7045 81.39 24.5385C81.7904 24.3725 82.0882 24.1235 82.2835 23.7915C82.4837 23.4595 82.5838 23.0469 82.5838 22.5538C82.5838 22.0558 82.4837 21.6359 82.2835 21.2941C82.0882 20.9524 81.788 20.6936 81.3827 20.5178C80.9824 20.3372 80.477 20.2468 79.8667 20.2468H77.7282V32.653H74.5571ZM82.657 25.8274L86.3847 32.653H82.884L79.2369 25.8274H82.657Z" fill="white"/>
<path d="M89.1223 32.653V17.6543H99.2288V20.2688H92.2934V23.8427H98.7089V26.4572H92.2934V30.0385H99.2581V32.653H89.1223Z" fill="white"/>
<path d="M108.098 32.653H102.781V17.6543H108.142C109.651 17.6543 110.949 17.9546 112.038 18.5551C113.127 19.1507 113.964 20.0076 114.55 21.1257C115.141 22.2437 115.436 23.5815 115.436 25.139C115.436 26.7014 115.141 28.044 114.55 29.167C113.964 30.2899 113.122 31.1517 112.024 31.7522C110.93 32.3527 109.621 32.653 108.098 32.653ZM105.952 29.936H107.966C108.904 29.936 109.692 29.77 110.332 29.438C110.976 29.1011 111.46 28.5811 111.782 27.878C112.109 27.1701 112.273 26.2571 112.273 25.139C112.273 24.0307 112.109 23.125 111.782 22.422C111.46 21.7189 110.979 21.2014 110.339 20.8694C109.699 20.5373 108.911 20.3713 107.974 20.3713H105.952V29.936Z" fill="white"/>
<path d="M132.799 17H135.833L139.897 26.9194H140.058L144.122 17H147.157V30.6893H144.777V21.2846H144.65L140.867 30.6492H139.089L135.305 21.2645H135.178V30.6893H132.799V17Z" fill="white"/>
<path d="M154.228 30.8898C153.226 30.8898 152.357 30.6692 151.622 30.2281C150.886 29.7869 150.316 29.1698 149.91 28.3766C149.509 27.5834 149.309 26.6565 149.309 25.5959C149.309 24.5354 149.509 23.6062 149.91 22.8086C150.316 22.0109 150.886 21.3915 151.622 20.9504C152.357 20.5092 153.226 20.2886 154.228 20.2886C155.231 20.2886 156.1 20.5092 156.835 20.9504C157.571 21.3915 158.139 22.0109 158.54 22.8086C158.945 23.6062 159.148 24.5354 159.148 25.5959C159.148 26.6565 158.945 27.5834 158.54 28.3766C158.139 29.1698 157.571 29.7869 156.835 30.2281C156.1 30.6692 155.231 30.8898 154.228 30.8898ZM154.242 28.9514C154.785 28.9514 155.24 28.8021 155.605 28.5036C155.971 28.2005 156.243 27.795 156.421 27.287C156.604 26.779 156.695 26.2131 156.695 25.5892C156.695 24.9609 156.604 24.3928 156.421 23.8848C156.243 23.3723 155.971 22.9646 155.605 22.6615C155.24 22.3585 154.785 22.207 154.242 22.207C153.685 22.207 153.221 22.3585 152.852 22.6615C152.486 22.9646 152.212 23.3723 152.029 23.8848C151.851 24.3928 151.762 24.9609 151.762 25.5892C151.762 26.2131 151.851 26.779 152.029 27.287C152.212 27.795 152.486 28.2005 152.852 28.5036C153.221 28.8021 153.685 28.9514 154.242 28.9514Z" fill="white"/>
<path d="M163.621 24.6735V30.6893H161.202V20.4223H163.515V22.1669H163.635C163.871 21.5921 164.248 21.1353 164.764 20.7966C165.286 20.458 165.93 20.2886 166.696 20.2886C167.405 20.2886 168.022 20.4401 168.548 20.7432C169.078 21.0462 169.488 21.4851 169.778 22.06C170.072 22.6348 170.217 23.3322 170.212 24.1521V30.6893H167.792V24.5264C167.792 23.8402 167.614 23.3032 167.258 22.9155C166.906 22.5279 166.418 22.334 165.794 22.334C165.371 22.334 164.994 22.4276 164.664 22.6148C164.339 22.7975 164.083 23.0626 163.896 23.4102C163.713 23.7578 163.621 24.1789 163.621 24.6735Z" fill="white"/>
<path d="M174.878 27.4675L174.871 24.5465H175.259L178.948 20.4223H181.776L177.237 25.4756H176.736L174.878 27.4675ZM172.672 30.6893V17H175.092V30.6893H172.672ZM179.116 30.6893L175.773 26.017L177.404 24.3125L182.01 30.6893H179.116Z" fill="white"/>
<path d="M187.511 30.8898C186.482 30.8898 185.593 30.6759 184.844 30.2481C184.1 29.8159 183.527 29.2054 183.126 28.4167C182.725 27.6235 182.524 26.6899 182.524 25.616C182.524 24.5599 182.725 23.633 183.126 22.8353C183.532 22.0332 184.097 21.4094 184.824 20.9637C185.55 20.5137 186.404 20.2886 187.384 20.2886C188.017 20.2886 188.614 20.3911 189.175 20.5961C189.741 20.7966 190.24 21.1086 190.673 21.5319C191.109 21.9552 191.452 22.4944 191.702 23.1495C191.951 23.8001 192.076 24.5755 192.076 25.4756V26.2176H183.661V24.5866H189.757C189.752 24.1232 189.652 23.711 189.456 23.35C189.26 22.9846 188.986 22.6972 188.634 22.4878C188.286 22.2783 187.881 22.1736 187.417 22.1736C186.923 22.1736 186.488 22.2939 186.114 22.5345C185.74 22.7707 185.448 23.0826 185.238 23.4703C185.033 23.8536 184.929 24.2747 184.924 24.7337V26.1574C184.924 26.7545 185.033 27.267 185.252 27.6948C185.47 28.1181 185.775 28.4434 186.167 28.6707C186.56 28.8935 187.018 29.0049 187.544 29.0049C187.896 29.0049 188.215 28.9559 188.5 28.8578C188.785 28.7553 189.033 28.606 189.242 28.41C189.452 28.2139 189.61 27.971 189.717 27.6814L191.976 27.9354C191.833 28.5325 191.562 29.0539 191.16 29.4995C190.764 29.9407 190.256 30.2838 189.636 30.5289C189.017 30.7695 188.309 30.8898 187.511 30.8898Z" fill="white"/>
<path d="M195.333 34.5394C195.003 34.5394 194.698 34.5127 194.417 34.4592C194.141 34.4102 193.921 34.3523 193.756 34.2854L194.317 32.4005C194.669 32.503 194.983 32.552 195.26 32.5475C195.536 32.5431 195.779 32.4562 195.988 32.2868C196.202 32.122 196.383 31.8457 196.53 31.458L196.737 30.9032L193.014 20.4223H195.58L197.947 28.176H198.054L200.426 20.4223H203L198.889 31.9326C198.698 32.4762 198.444 32.9419 198.127 33.3296C197.811 33.7217 197.423 34.0203 196.964 34.2253C196.51 34.4347 195.966 34.5394 195.333 34.5394Z" fill="white"/>
<path d="M12.6519 37.9648C8.45107 39.5854 2.59823 36.8477 0.788884 32.993C-1.30366 28.5405 0.930486 23.49 5.55612 22.373C6.15399 22.2314 6.78333 22.1999 7.3812 22.1055C7.53853 20.9727 7.64867 19.8399 7.88467 18.7228C9.03321 13.4678 12.2743 9.91207 17.073 7.69365C18.9767 6.81258 20.9906 6.21471 23.0674 5.86857C23.5237 5.78991 23.8069 5.56964 24.1216 5.25497C25.0341 4.35816 25.9624 3.44562 27.0008 2.70615C28.7315 1.47894 30.6667 0.629338 32.712 0C31.2331 1.43174 29.8486 2.92642 28.6371 4.78297C31.3275 3.55576 33.9707 2.83202 36.8185 2.78482C35.4811 3.60296 34.1595 4.4211 32.8379 5.2235C32.8536 5.28644 32.8851 5.33364 32.9008 5.39657C33.8291 5.52244 34.7574 5.63257 35.6857 5.77417C38.7379 6.27765 41.6486 7.17445 44.2919 8.81073C48.9647 11.6899 51.3876 15.938 51.7967 21.3818C51.8125 21.6335 51.8282 21.8695 51.8439 22.1212C52.5047 22.2156 53.1341 22.2471 53.7319 22.3887C58.5936 23.553 60.8434 29.0597 58.2317 33.5122C56.5639 36.36 53.905 37.7917 50.7268 38.3581C49.4524 38.5941 48.1938 38.5155 46.9665 38.0592C46.6204 37.9333 46.526 38.1379 46.3687 38.3267C44.0087 41.2846 41.1924 43.6918 37.6995 45.2022C30.3206 48.3803 23.4765 47.2633 17.1359 42.496C15.421 41.2216 13.9735 39.6797 12.6519 37.9648ZM29.644 20.7209C29.5024 20.5636 29.3766 20.4377 29.2507 20.3119C26.7648 17.8103 23.7597 16.6775 20.2826 17.118C14.2567 17.8732 10.2447 23.2226 10.9999 29.2642C11.3775 32.285 12.526 34.9754 14.3039 37.3827C18.6935 43.3614 24.6408 46.1777 32.0198 45.2494C39.5246 44.2896 44.5121 39.8843 47.3913 32.993C48.2095 31.0264 48.477 28.9495 48.3511 26.8413C48.0364 21.7436 43.6625 17.3855 38.5806 17.0865C35.0249 16.8505 32.067 18.0777 29.644 20.7209ZM4.87958 27.4549C3.22757 27.4077 2.22063 28.4933 2.37796 30.1295C2.47236 31.0421 2.80277 31.876 3.3377 32.5997C4.75371 34.4877 6.64173 35.6205 8.95454 36.0296C9.41081 36.1083 9.91428 36.0296 10.3706 35.9037C10.8268 35.7779 10.937 35.4317 10.7167 35.0384C9.66255 33.1661 8.84441 31.1837 8.26227 29.1069C8.21507 28.9495 8.12067 28.7607 7.9948 28.6663C7.098 27.9583 6.07532 27.5021 4.87958 27.4549ZM54.3927 27.4706C53.4015 27.4863 52.3474 27.8639 51.4348 28.5719C51.2303 28.7293 51.0415 28.9967 50.9786 29.2485C50.4122 31.2466 49.6098 33.1661 48.6028 34.9754C48.3354 35.4632 48.4298 35.8093 48.9647 35.9509C49.4367 36.0611 49.9716 36.1083 50.4436 36.0296C52.4733 35.6835 54.1567 34.6922 55.5255 33.1661C56.265 32.348 56.7528 31.3725 56.8944 30.2554C57.0989 28.5405 56.1077 27.4391 54.3927 27.4706Z" fill="#FC1203"/>
<path d="M29.6441 20.7207C32.0828 18.0775 35.0249 16.8502 38.5649 17.0548C43.6468 17.3537 48.0365 21.7276 48.3354 26.8095C48.4613 28.9335 48.1938 31.0103 47.3757 32.9613C44.4965 39.8525 39.5089 44.2736 32.0041 45.2176C24.6251 46.1616 18.6779 43.3454 14.2882 37.3509C12.5104 34.9437 11.3618 32.2533 10.9842 29.2325C10.229 23.1908 14.241 17.8572 20.2669 17.0862C23.744 16.6457 26.7649 17.7785 29.235 20.2801C29.3766 20.4375 29.4867 20.5633 29.6441 20.7207ZM29.6441 23.7887C29.3923 23.4111 29.1878 23.0964 28.9675 22.7975C25.8523 18.2663 19.7163 17.4324 15.6885 21.0353C12.9194 23.5055 12.1642 26.6679 12.9352 30.1765C14.7288 38.4051 23.1147 45.548 33.4358 43.2195C40.5159 41.6147 45.9911 35.3842 46.5733 28.4458C46.9037 24.4495 44.5279 20.7049 40.7676 19.3361C37.0231 17.9673 32.838 19.2575 30.5094 22.5143C30.2262 22.9076 29.9587 23.3167 29.6441 23.7887Z" fill="#14161B"/>
<path d="M4.87951 27.4704C6.07525 27.5018 7.09792 27.9738 8.0262 28.6976C8.15206 28.792 8.24646 28.9808 8.29366 29.1381C8.8758 31.2149 9.69394 33.1973 10.7481 35.0696C10.9684 35.4472 10.8582 35.8091 10.4019 35.935C9.94568 36.0608 9.44221 36.1395 8.98594 36.0608C6.67312 35.6675 4.76937 34.519 3.3691 32.6309C2.81842 31.9072 2.48802 31.0733 2.40936 30.1608C2.22055 28.493 3.22749 27.4074 4.87951 27.4704Z" fill="#14161B"/>
<path d="M54.3925 27.4704C56.1075 27.4389 57.0987 28.5403 56.8784 30.2552C56.7368 31.3723 56.2491 32.3478 55.5096 33.1659C54.1408 34.692 52.4573 35.6832 50.4277 36.0294C49.9557 36.108 49.4208 36.0608 48.9488 35.9507C48.4138 35.8248 48.3194 35.463 48.5869 34.9752C49.6096 33.1659 50.3963 31.2464 50.9627 29.2483C51.0413 28.9965 51.2144 28.7291 51.4189 28.5717C52.3472 27.848 53.4171 27.4861 54.3925 27.4704Z" fill="#14161B"/>
<path d="M29.6439 23.789C29.9743 23.317 30.2417 22.9079 30.5249 22.5146C32.8692 19.2577 37.0386 17.9676 40.7831 19.3364C44.5277 20.7052 46.9192 24.4498 46.5888 28.4461C46.0066 35.3845 40.5157 41.6307 33.4514 43.2198C23.146 45.5483 14.76 38.4053 12.9507 30.1767C12.1797 26.6682 12.9349 23.5058 15.704 21.0356C19.7318 17.4327 25.8678 18.2665 28.9831 22.7978C29.1719 23.0967 29.3764 23.4114 29.6439 23.789ZM39.4458 24.5442C38.2973 23.6788 36.9599 23.8047 36.0002 24.8431C34.7415 26.1962 34.7258 28.5877 35.9687 29.9722C36.7711 30.8533 37.9354 31.1208 38.9423 30.6487C40.0437 30.1295 40.8461 28.6821 40.6573 27.5965C39.8077 27.8954 39.2885 27.7538 38.8951 27.1087C38.3917 26.2906 38.5805 25.3938 39.4458 24.5442ZM24.2158 27.565C23.3033 27.8954 22.7998 27.7695 22.3907 27.1245C21.8715 26.3063 22.0603 25.4252 22.9257 24.5599C21.8086 23.6474 20.3454 23.8047 19.3699 24.969C18.3158 26.2276 18.2529 28.3045 19.2126 29.6733C20.3297 31.2624 22.3593 31.2781 23.5078 29.7047C23.9641 29.0911 24.2001 28.3831 24.2158 27.565ZM29.0775 34.8338C29.0617 33.9842 27.6772 32.5997 26.9849 32.5997C26.6702 32.5997 26.5916 32.7885 26.623 33.056C26.7017 33.7482 27.9132 34.9754 28.6212 35.0384C28.7943 35.0541 28.9673 34.8968 29.0775 34.8338ZM30.4148 35.0541C31.2801 35.0541 32.649 33.6853 32.6647 32.9616C32.6647 32.6469 32.5073 32.5525 32.2241 32.5997C31.5319 32.6784 30.2889 33.8898 30.226 34.5978C30.2103 34.7709 30.3676 34.944 30.4148 35.0541Z" fill="white"/>
<path d="M39.446 24.5439C38.5807 25.3935 38.3919 26.2903 38.8796 27.0928C39.273 27.7378 39.8079 27.8794 40.6418 27.5805C40.8306 28.6661 40.0282 30.0978 38.9268 30.6328C37.9199 31.1048 36.7556 30.853 35.9532 29.9562C34.7103 28.5874 34.726 26.1802 35.9847 24.8271C36.9602 23.8045 38.2975 23.6786 39.446 24.5439Z" fill="#14161B"/>
<path d="M24.2156 27.5652C24.1999 28.3834 23.9639 29.0914 23.5233 29.705C22.3748 31.2783 20.3452 31.2626 19.2281 29.6735C18.2684 28.3047 18.3313 26.2279 19.3854 24.9692C20.3452 23.805 21.8084 23.6319 22.9412 24.5602C22.0601 25.4255 21.8871 26.3066 22.4063 27.1247C22.7996 27.754 23.3031 27.8957 24.2156 27.5652Z" fill="#14161B"/>
<path d="M29.0773 34.8338C28.9672 34.881 28.7941 35.0383 28.6211 35.0383C27.9131 34.9911 26.7016 33.7481 26.6229 33.0559C26.5915 32.7727 26.6544 32.5996 26.9848 32.5996C27.6928 32.5996 29.0773 33.9841 29.0773 34.8338Z" fill="#14161B"/>
<path d="M30.415 35.0541C30.3678 34.944 30.2104 34.7552 30.2104 34.5978C30.2734 33.8898 31.5163 32.6783 32.2086 32.5997C32.4918 32.5682 32.6649 32.6469 32.6491 32.9615C32.6491 33.6853 31.2803 35.0698 30.415 35.0541Z" fill="#14161B"/>
</svg>
