<svg viewBox="0 81.05023474178402 442.4 433.1995305164319" version="1.1" xmlns="http://www.w3.org/2000/svg" style="max-height: 500px" width="442.4" height="433.1995305164319">
  <defs>
    <style>
      .cls-1 {
        fill: #56328a;
        stroke: #56328a;
        stroke-miterlimit: 10;
        stroke-width: 8px;
      }

      .cls-2 {
        display: none;
      }

      .cls-3 {
        fill: #1d1d1b;
      }

      .cls-4 {
        fill: #f7f7f7;
      }
    </style>
  </defs>
  
  <g>
    <g id="Layer_1">
      <g>
        <g id="Ebene_1">
          <g class="cls-2">
            <rect height="24.7" width="15.1" y="385.8" x="287.5" class="cls-3"/>
            <rect height="24.7" width="15.1" y="541.3" x="287.5" class="cls-3"/>
          </g>
          <g>
            <path d="M54.4,298.1c0-39.4,13.7-75.5,36.7-103.9l-25.1-25.1c-29.3,34.9-46.9,79.9-46.9,129,0,93.2,63.4,171.5,149.5,194.3v-36.8c-66.3-21.7-114.2-84-114.2-157.5h0Z" class="cls-1"/>
            <path d="M395.8,324.5h0s-88.9,0-88.9,0h0s-17,0-17,0c-10.7,28.3-38,48.4-70.1,48.4s-74.9-33.5-74.9-74.9,25.1-65.6,58.6-73.1c.8-.2,1.7-.4,2.5-.5.5,0,1-.2,1.5-.3.9-.1,1.8-.3,2.7-.4.5,0,.9-.1,1.4-.2,1-.1,2-.2,3-.3.4,0,.8,0,1.1,0,1.2,0,2.5-.1,3.7-.1h.4c1.8,0,3.6,0,5.4.2.4,0,.9,0,1.3.1,1.3.1,2.6.3,4,.5.5,0,1,.1,1.5.2,26.5,4.4,48.3,22.6,57.7,47h129.4c-5.2-38.7-21.4-73.9-45.3-102.4l-25.1,25.1c10.5,12.9,19,27.5,25.3,43.2h-62.6c-16.7-25.1-43.5-42.8-74.5-47.6v-56.1c33,3.4,63.2,16.5,87.6,36.4l25.1-25c-35-29.7-80.3-47.6-129.8-47.6s-94.8,17.9-129.8,47.6l25.1,25.1c24.4-20,54.6-33.1,87.7-36.4v56.1c-52.6,8.3-92.8,53.8-92.8,108.7s49.2,110,110,110,72.1-19.7,91.8-49.5h62.5c-18,45.9-56,81.8-103.2,97.1v36.7c78-20.4,137.5-86.5,148.2-167.9h-23.5,0Z" class="cls-1"/>
            <path d="M202.8,441.9v56.4c5.7.5,11.5.8,17.3.8s11.3-.3,16.9-.7v-56.4c-5.5,1-11.2,1.3-16.9,1.3s-11.7-.4-17.3-1.3Z" class="cls-1"/>
          </g>
          <g>
            <path d="M587.8,186.2h-80.2v-55.3h226.4v55.3h-80.2v236.2h-65.9v-236.2h0Z" class="cls-4"/>
            <path d="M735.1,360.8c0-46.8,37.2-72.1,125-81.3-1.3-19.4-11-32.1-35.1-32.1s-37.2,7.8-58.7,20l-23.4-43.2c28.2-17.2,59.9-29.2,94.8-29.2,56.7,0,88.1,32.4,88.1,100.4v126.8h-53.6l-4.7-22.7h-1.6c-18.7,16.4-39.6,28.1-64.5,28.1-40.5,0-66.1-29.5-66.1-66.9h0ZM860,357.9v-38.8c-46.8,6.3-62,19.7-62,36.4s9.8,21.3,25.5,21.3,24.9-7.4,36.5-19h0Z" class="cls-4"/>
            <path d="M981,200.5h53.6l4.7,21.8h1.6c17.4-15.5,40-27.2,63.2-27.2,53.7,0,86.6,44.4,86.6,112.8s-45.3,119.8-93.3,119.8-37-8.4-52.9-23.1l2.2,35.1v65h-65.7V200.5h0ZM1123.4,308.7c0-39.8-12.3-59.8-38.6-59.8s-25.1,6.1-38.1,19.9v91.1c11.9,10.4,24.3,14,35.4,14,22.9,0,41.3-19.4,41.3-65.3h0Z" class="cls-4"/>
            <path d="M1228.5,285.9h109.9v46.6h-109.9v-46.6Z" class="cls-4"/>
            <path d="M1373.7,311.5c0-73.8,54.3-116.4,115.6-116.4s48.3,9.7,64.8,23.9l-31.1,42.3c-10.6-9-19.5-13.1-30.1-13.1-31.6,0-51.9,24.9-51.9,63.3s21.1,63.2,49.7,63.2,28.5-7.2,40-16.4l25.7,43c-21.6,19-49.1,26.4-73.1,26.4-61.9,0-109.7-42.6-109.7-116.2h0Z" class="cls-4"/>
            <path d="M1570,311.5c0-73.8,51.9-116.4,108.1-116.4s108.1,42.6,108.1,116.4-51.9,116.2-108.1,116.2-108.1-42.6-108.1-116.2ZM1718.8,311.5c0-38.4-13.5-63.3-40.7-63.3s-40.7,24.9-40.7,63.3,13.5,63.2,40.7,63.2,40.7-24.8,40.7-63.2h0Z" class="cls-4"/>
            <path d="M1826,133.7c0-20.2,16-34.4,38.1-34.4s38.1,14.2,38.1,34.4-16,34.4-38.1,34.4-38.1-14.4-38.1-34.4ZM1831.1,200.5h65.7v221.9h-65.7v-221.9Z" class="cls-4"/>
            <path d="M1954.5,200.5h53.6l4.7,28.1h1.6c18.7-17.9,41-33.5,71.3-33.5,48.2,0,68.8,34,68.8,89.5v137.7h-65.7v-129.3c0-31.9-8.6-41.9-27.6-41.9s-26.6,7.7-41.1,21.6v149.7h-65.7v-221.9h0Z" class="cls-4"/>
            <path d="M2208.9,386.4c0-23.4,16.9-41.5,39.7-41.5s39.7,18,39.7,41.5-16.9,41.3-39.7,41.3-39.7-18-39.7-41.3Z" class="cls-4"/>
            <path d="M2328.6,311.5c0-72.6,45.3-116.4,92-116.4s39.4,9.1,54.4,23.1l-2.4-33.6v-75.6h65.7v313.3h-53.6l-4.7-22h-1.6c-15.7,15.7-37.6,27.4-59,27.4-55.1,0-90.8-43.8-90.8-116.2h0ZM2472.6,354.1v-91.1c-11.6-10.4-24.7-14-36.7-14-21.3,0-40,19.7-40,61.8s15,63.2,40.5,63.2,25.3-5.3,36.2-19.9Z" class="cls-4"/>
            <path d="M2583.4,311.5c0-72,51.4-116.4,104.6-116.4s94.5,45.9,94.5,106.5-1.5,23.7-2.7,29h-132.7c5.9,32.2,27.9,47,57.5,47s31.9-5.1,48-14.5l21.7,39.6c-22.7,15.7-52.4,25-78.7,25-63.2,0-112.2-42.8-112.2-116.2h0ZM2726.4,287.2c0-24.4-10.6-42-36.9-42s-38.7,13.9-43.2,42h80.1Z" class="cls-4"/>
          </g>
        </g>
        <g id="Ebene_1_Kopie">
          <g class="cls-2">
            <rect height="24.7" width="15.2" y="-62.9" x="110.3" class="cls-3"/>
            <rect height="24.7" width="15.2" y="92.6" x="110.3" class="cls-3"/>
          </g>
        </g>
      </g>
    </g>
  </g>
</svg>