<svg width="61" height="50" viewBox="0 0 61 50" fill="none" xmlns="http://www.w3.org/2000/svg">
<path d="M41.3762 5C37.5166 5 33.933 5.906 30.8878 7.62624C28.9899 8.69835 27.3012 10.0866 25.8853 11.7694C22.93 15.2816 21.1631 20.0758 21.1631 25.951C21.1631 31.1674 22.265 35.2085 24.8034 38.5668C26.8379 37.2663 28.5661 35.4102 29.8774 33.125C28.8452 30.8767 28.6588 28.5909 28.6588 25.7065C28.6588 22.6738 29.2786 19.588 30.5959 16.9877C31.7362 14.7368 33.3993 12.85 35.6356 11.6764C37.2049 10.8529 39.0564 10.3805 41.2078 10.3805C49.9669 10.3805 53.4199 18.8587 53.4199 25.5435C53.4199 34.4293 48.114 40.8695 41.0394 40.8695C39.2657 40.8695 38.2009 40.7177 36.7243 40C35.2233 41.6705 33.5094 43.0609 31.6554 44.1836C34.4748 45.6858 37.1675 46.25 40.7025 46.25C50.5564 46.25 60.9998 39.8913 60.9998 25.299C60.9998 13.2337 53.083 5 41.3762 5Z" fill="url(#paint0_linear_1636_2356)"/>
<path d="M19.6236 46.25C23.4832 46.25 27.0668 45.344 30.112 43.6238C32.0099 42.5517 33.6986 41.1634 35.1145 39.4806C38.0698 35.9684 39.8367 31.1742 39.8367 25.299C39.8367 20.0826 38.7348 16.0415 36.1964 12.6832C34.162 13.9837 32.4337 15.8398 31.1224 18.125C32.1546 20.3733 32.341 22.6591 32.341 25.5435C32.341 28.5762 31.7212 31.662 30.4039 34.2623C29.2636 36.5132 27.6005 38.4 25.3642 39.5736C23.7949 40.3971 21.9434 40.8695 19.792 40.8695C11.0329 40.8695 7.57989 32.3913 7.57989 25.7065C7.57989 16.8207 12.8858 10.3805 19.9604 10.3805C21.7342 10.3805 22.7989 10.5323 24.2755 11.25C25.7765 9.57949 27.4904 8.18911 29.3445 7.06643C26.525 5.56421 23.8323 5 20.2973 5C10.4434 5 0 11.3587 0 25.951C5.10165e-05 38.0163 7.91685 46.25 19.6236 46.25Z" fill="url(#paint1_linear_1636_2356)"/>
<defs>
<linearGradient id="paint0_linear_1636_2356" x1="41.0815" y1="5" x2="41.0815" y2="46.25" gradientUnits="userSpaceOnUse">
<stop stop-color="#69DCE5"/>
<stop offset="1" stop-color="#1C7BF3"/>
</linearGradient>
<linearGradient id="paint1_linear_1636_2356" x1="19.9184" y1="5" x2="19.9184" y2="46.25" gradientUnits="userSpaceOnUse">
<stop stop-color="#69DCE5"/>
<stop offset="1" stop-color="#1C7BF3"/>
</linearGradient>
</defs>
</svg>
